G04 #@! TF.GenerationSoftware,KiCad,Pcbnew,10.0.6*
G04 #@! TF.CreationDate,2026-09-04T16:18:08-04:00*
G04 #@! TF.ProjectId,KiCAD_ESP32_Sensor,4b694341-445f-4455-9350-33325f53656e,rev?*
G04 #@! TF.SameCoordinates,Original*
G04 #@! TF.FileFunction,Legend,Top*
G04 #@! TF.FilePolarity,Positive*
%FSLAX46Y46*%
G04 Gerber Fmt 4.6, Leading zero omitted, Abs format (unit mm)*
G04 Created by KiCad (PCBNEW 10.0.6) date 2026-09-04 16:18:08*
%MOMM*%
%LPD*%
G01*
G04 APERTURE LIST*
G04 Aperture macros list*
%AMRoundRect*
0 Rectangle with rounded corners*
0 $1 Rounding radius*
0 $2 $3 $4 $5 $6 $7 $8 $9 X,Y pos of 4 corners*
0 Add a 4 corners polygon primitive as box body*
4,1,4,$2,$3,$4,$5,$6,$7,$8,$9,$2,$3,0*
0 Add four circle primitives for the rounded corners*
1,1,$1+$1,$2,$3*
1,1,$1+$1,$4,$5*
1,1,$1+$1,$6,$7*
1,1,$1+$1,$8,$9*
0 Add four rect primitives between the rounded corners*
20,1,$1+$1,$2,$3,$4,$5,0*
20,1,$1+$1,$4,$5,$6,$7,0*
20,1,$1+$1,$6,$7,$8,$9,0*
20,1,$1+$1,$8,$9,$2,$3,0*%
G04 Aperture macros list end*
%ADD10C,0.150000*%
%ADD11C,0.120000*%
%ADD12C,1.500000*%
%ADD13RoundRect,0.250000X0.337500X0.475000X-0.337500X0.475000X-0.337500X-0.475000X0.337500X-0.475000X0*%
%ADD14RoundRect,0.250000X0.350000X0.450000X-0.350000X0.450000X-0.350000X-0.450000X0.350000X-0.450000X0*%
%ADD15RoundRect,0.250000X0.475000X-0.337500X0.475000X0.337500X-0.475000X0.337500X-0.475000X-0.337500X0*%
%ADD16RoundRect,0.250000X-0.337500X-0.475000X0.337500X-0.475000X0.337500X0.475000X-0.337500X0.475000X0*%
%ADD17RoundRect,0.250000X-0.475000X0.337500X-0.475000X-0.337500X0.475000X-0.337500X0.475000X0.337500X0*%
%ADD18RoundRect,0.150000X0.150000X-0.587500X0.150000X0.587500X-0.150000X0.587500X-0.150000X-0.587500X0*%
%ADD19RoundRect,0.250000X-0.450000X0.350000X-0.450000X-0.350000X0.450000X-0.350000X0.450000X0.350000X0*%
%ADD20RoundRect,0.250000X0.450000X-0.350000X0.450000X0.350000X-0.450000X0.350000X-0.450000X-0.350000X0*%
%ADD21RoundRect,0.250000X-0.350000X-0.450000X0.350000X-0.450000X0.350000X0.450000X-0.350000X0.450000X0*%
%ADD22RoundRect,0.375000X0.625000X0.375000X-0.625000X0.375000X-0.625000X-0.375000X0.625000X-0.375000X0*%
%ADD23RoundRect,0.500000X0.500000X1.400000X-0.500000X1.400000X-0.500000X-1.400000X0.500000X-1.400000X0*%
%ADD24R,1.500000X0.900000*%
%ADD25R,0.900000X1.500000*%
%ADD26R,0.900000X0.900000*%
%ADD27C,0.600000*%
%ADD28RoundRect,0.150000X0.150000X-0.825000X0.150000X0.825000X-0.150000X0.825000X-0.150000X-0.825000X0*%
%ADD29C,0.650000*%
%ADD30RoundRect,0.150000X-0.150000X-0.575000X0.150000X-0.575000X0.150000X0.575000X-0.150000X0.575000X0*%
%ADD31RoundRect,0.075000X-0.075000X-0.650000X0.075000X-0.650000X0.075000X0.650000X-0.075000X0.650000X0*%
%ADD32O,1.000000X2.100000*%
%ADD33O,1.000000X1.600000*%
%ADD34R,1.700000X1.700000*%
%ADD35C,1.700000*%
G04 APERTURE END LIST*
D10*
X53778095Y-67134819D02*
X54349523Y-67134819D01*
X54063809Y-68134819D02*
X54063809Y-67134819D01*
X54682857Y-68134819D02*
X54682857Y-67134819D01*
X54682857Y-67134819D02*
X55063809Y-67134819D01*
X55063809Y-67134819D02*
X55159047Y-67182438D01*
X55159047Y-67182438D02*
X55206666Y-67230057D01*
X55206666Y-67230057D02*
X55254285Y-67325295D01*
X55254285Y-67325295D02*
X55254285Y-67468152D01*
X55254285Y-67468152D02*
X55206666Y-67563390D01*
X55206666Y-67563390D02*
X55159047Y-67611009D01*
X55159047Y-67611009D02*
X55063809Y-67658628D01*
X55063809Y-67658628D02*
X54682857Y-67658628D01*
X56206666Y-68134819D02*
X55635238Y-68134819D01*
X55920952Y-68134819D02*
X55920952Y-67134819D01*
X55920952Y-67134819D02*
X55825714Y-67277676D01*
X55825714Y-67277676D02*
X55730476Y-67372914D01*
X55730476Y-67372914D02*
X55635238Y-67420533D01*
X61468095Y-78046819D02*
X62039523Y-78046819D01*
X61753809Y-79046819D02*
X61753809Y-78046819D01*
X62372857Y-79046819D02*
X62372857Y-78046819D01*
X62372857Y-78046819D02*
X62753809Y-78046819D01*
X62753809Y-78046819D02*
X62849047Y-78094438D01*
X62849047Y-78094438D02*
X62896666Y-78142057D01*
X62896666Y-78142057D02*
X62944285Y-78237295D01*
X62944285Y-78237295D02*
X62944285Y-78380152D01*
X62944285Y-78380152D02*
X62896666Y-78475390D01*
X62896666Y-78475390D02*
X62849047Y-78523009D01*
X62849047Y-78523009D02*
X62753809Y-78570628D01*
X62753809Y-78570628D02*
X62372857Y-78570628D01*
X63849047Y-78046819D02*
X63372857Y-78046819D01*
X63372857Y-78046819D02*
X63325238Y-78523009D01*
X63325238Y-78523009D02*
X63372857Y-78475390D01*
X63372857Y-78475390D02*
X63468095Y-78427771D01*
X63468095Y-78427771D02*
X63706190Y-78427771D01*
X63706190Y-78427771D02*
X63801428Y-78475390D01*
X63801428Y-78475390D02*
X63849047Y-78523009D01*
X63849047Y-78523009D02*
X63896666Y-78618247D01*
X63896666Y-78618247D02*
X63896666Y-78856342D01*
X63896666Y-78856342D02*
X63849047Y-78951580D01*
X63849047Y-78951580D02*
X63801428Y-78999200D01*
X63801428Y-78999200D02*
X63706190Y-79046819D01*
X63706190Y-79046819D02*
X63468095Y-79046819D01*
X63468095Y-79046819D02*
X63372857Y-78999200D01*
X63372857Y-78999200D02*
X63325238Y-78951580D01*
X80578095Y-67554819D02*
X81149523Y-67554819D01*
X80863809Y-68554819D02*
X80863809Y-67554819D01*
X81482857Y-68554819D02*
X81482857Y-67554819D01*
X81482857Y-67554819D02*
X81863809Y-67554819D01*
X81863809Y-67554819D02*
X81959047Y-67602438D01*
X81959047Y-67602438D02*
X82006666Y-67650057D01*
X82006666Y-67650057D02*
X82054285Y-67745295D01*
X82054285Y-67745295D02*
X82054285Y-67888152D01*
X82054285Y-67888152D02*
X82006666Y-67983390D01*
X82006666Y-67983390D02*
X81959047Y-68031009D01*
X81959047Y-68031009D02*
X81863809Y-68078628D01*
X81863809Y-68078628D02*
X81482857Y-68078628D01*
X82911428Y-67888152D02*
X82911428Y-68554819D01*
X82673333Y-67507200D02*
X82435238Y-68221485D01*
X82435238Y-68221485D02*
X83054285Y-68221485D01*
X52568095Y-77014819D02*
X53139523Y-77014819D01*
X52853809Y-78014819D02*
X52853809Y-77014819D01*
X53472857Y-78014819D02*
X53472857Y-77014819D01*
X53472857Y-77014819D02*
X53853809Y-77014819D01*
X53853809Y-77014819D02*
X53949047Y-77062438D01*
X53949047Y-77062438D02*
X53996666Y-77110057D01*
X53996666Y-77110057D02*
X54044285Y-77205295D01*
X54044285Y-77205295D02*
X54044285Y-77348152D01*
X54044285Y-77348152D02*
X53996666Y-77443390D01*
X53996666Y-77443390D02*
X53949047Y-77491009D01*
X53949047Y-77491009D02*
X53853809Y-77538628D01*
X53853809Y-77538628D02*
X53472857Y-77538628D01*
X54377619Y-77014819D02*
X54996666Y-77014819D01*
X54996666Y-77014819D02*
X54663333Y-77395771D01*
X54663333Y-77395771D02*
X54806190Y-77395771D01*
X54806190Y-77395771D02*
X54901428Y-77443390D01*
X54901428Y-77443390D02*
X54949047Y-77491009D01*
X54949047Y-77491009D02*
X54996666Y-77586247D01*
X54996666Y-77586247D02*
X54996666Y-77824342D01*
X54996666Y-77824342D02*
X54949047Y-77919580D01*
X54949047Y-77919580D02*
X54901428Y-77967200D01*
X54901428Y-77967200D02*
X54806190Y-78014819D01*
X54806190Y-78014819D02*
X54520476Y-78014819D01*
X54520476Y-78014819D02*
X54425238Y-77967200D01*
X54425238Y-77967200D02*
X54377619Y-77919580D01*
X61878095Y-74406819D02*
X62449523Y-74406819D01*
X62163809Y-75406819D02*
X62163809Y-74406819D01*
X62782857Y-75406819D02*
X62782857Y-74406819D01*
X62782857Y-74406819D02*
X63163809Y-74406819D01*
X63163809Y-74406819D02*
X63259047Y-74454438D01*
X63259047Y-74454438D02*
X63306666Y-74502057D01*
X63306666Y-74502057D02*
X63354285Y-74597295D01*
X63354285Y-74597295D02*
X63354285Y-74740152D01*
X63354285Y-74740152D02*
X63306666Y-74835390D01*
X63306666Y-74835390D02*
X63259047Y-74883009D01*
X63259047Y-74883009D02*
X63163809Y-74930628D01*
X63163809Y-74930628D02*
X62782857Y-74930628D01*
X63735238Y-74502057D02*
X63782857Y-74454438D01*
X63782857Y-74454438D02*
X63878095Y-74406819D01*
X63878095Y-74406819D02*
X64116190Y-74406819D01*
X64116190Y-74406819D02*
X64211428Y-74454438D01*
X64211428Y-74454438D02*
X64259047Y-74502057D01*
X64259047Y-74502057D02*
X64306666Y-74597295D01*
X64306666Y-74597295D02*
X64306666Y-74692533D01*
X64306666Y-74692533D02*
X64259047Y-74835390D01*
X64259047Y-74835390D02*
X63687619Y-75406819D01*
X63687619Y-75406819D02*
X64306666Y-75406819D01*
X52793333Y-53039580D02*
X52745714Y-53087200D01*
X52745714Y-53087200D02*
X52602857Y-53134819D01*
X52602857Y-53134819D02*
X52507619Y-53134819D01*
X52507619Y-53134819D02*
X52364762Y-53087200D01*
X52364762Y-53087200D02*
X52269524Y-52991961D01*
X52269524Y-52991961D02*
X52221905Y-52896723D01*
X52221905Y-52896723D02*
X52174286Y-52706247D01*
X52174286Y-52706247D02*
X52174286Y-52563390D01*
X52174286Y-52563390D02*
X52221905Y-52372914D01*
X52221905Y-52372914D02*
X52269524Y-52277676D01*
X52269524Y-52277676D02*
X52364762Y-52182438D01*
X52364762Y-52182438D02*
X52507619Y-52134819D01*
X52507619Y-52134819D02*
X52602857Y-52134819D01*
X52602857Y-52134819D02*
X52745714Y-52182438D01*
X52745714Y-52182438D02*
X52793333Y-52230057D01*
X53126667Y-52134819D02*
X53793333Y-52134819D01*
X53793333Y-52134819D02*
X53364762Y-53134819D01*
X52793333Y-57289580D02*
X52745714Y-57337200D01*
X52745714Y-57337200D02*
X52602857Y-57384819D01*
X52602857Y-57384819D02*
X52507619Y-57384819D01*
X52507619Y-57384819D02*
X52364762Y-57337200D01*
X52364762Y-57337200D02*
X52269524Y-57241961D01*
X52269524Y-57241961D02*
X52221905Y-57146723D01*
X52221905Y-57146723D02*
X52174286Y-56956247D01*
X52174286Y-56956247D02*
X52174286Y-56813390D01*
X52174286Y-56813390D02*
X52221905Y-56622914D01*
X52221905Y-56622914D02*
X52269524Y-56527676D01*
X52269524Y-56527676D02*
X52364762Y-56432438D01*
X52364762Y-56432438D02*
X52507619Y-56384819D01*
X52507619Y-56384819D02*
X52602857Y-56384819D01*
X52602857Y-56384819D02*
X52745714Y-56432438D01*
X52745714Y-56432438D02*
X52793333Y-56480057D01*
X53269524Y-57384819D02*
X53460000Y-57384819D01*
X53460000Y-57384819D02*
X53555238Y-57337200D01*
X53555238Y-57337200D02*
X53602857Y-57289580D01*
X53602857Y-57289580D02*
X53698095Y-57146723D01*
X53698095Y-57146723D02*
X53745714Y-56956247D01*
X53745714Y-56956247D02*
X53745714Y-56575295D01*
X53745714Y-56575295D02*
X53698095Y-56480057D01*
X53698095Y-56480057D02*
X53650476Y-56432438D01*
X53650476Y-56432438D02*
X53555238Y-56384819D01*
X53555238Y-56384819D02*
X53364762Y-56384819D01*
X53364762Y-56384819D02*
X53269524Y-56432438D01*
X53269524Y-56432438D02*
X53221905Y-56480057D01*
X53221905Y-56480057D02*
X53174286Y-56575295D01*
X53174286Y-56575295D02*
X53174286Y-56813390D01*
X53174286Y-56813390D02*
X53221905Y-56908628D01*
X53221905Y-56908628D02*
X53269524Y-56956247D01*
X53269524Y-56956247D02*
X53364762Y-57003866D01*
X53364762Y-57003866D02*
X53555238Y-57003866D01*
X53555238Y-57003866D02*
X53650476Y-56956247D01*
X53650476Y-56956247D02*
X53698095Y-56908628D01*
X53698095Y-56908628D02*
X53745714Y-56813390D01*
X59993333Y-76604819D02*
X59660000Y-76128628D01*
X59421905Y-76604819D02*
X59421905Y-75604819D01*
X59421905Y-75604819D02*
X59802857Y-75604819D01*
X59802857Y-75604819D02*
X59898095Y-75652438D01*
X59898095Y-75652438D02*
X59945714Y-75700057D01*
X59945714Y-75700057D02*
X59993333Y-75795295D01*
X59993333Y-75795295D02*
X59993333Y-75938152D01*
X59993333Y-75938152D02*
X59945714Y-76033390D01*
X59945714Y-76033390D02*
X59898095Y-76081009D01*
X59898095Y-76081009D02*
X59802857Y-76128628D01*
X59802857Y-76128628D02*
X59421905Y-76128628D01*
X60374286Y-75700057D02*
X60421905Y-75652438D01*
X60421905Y-75652438D02*
X60517143Y-75604819D01*
X60517143Y-75604819D02*
X60755238Y-75604819D01*
X60755238Y-75604819D02*
X60850476Y-75652438D01*
X60850476Y-75652438D02*
X60898095Y-75700057D01*
X60898095Y-75700057D02*
X60945714Y-75795295D01*
X60945714Y-75795295D02*
X60945714Y-75890533D01*
X60945714Y-75890533D02*
X60898095Y-76033390D01*
X60898095Y-76033390D02*
X60326667Y-76604819D01*
X60326667Y-76604819D02*
X60945714Y-76604819D01*
X52823333Y-62469580D02*
X52775714Y-62517200D01*
X52775714Y-62517200D02*
X52632857Y-62564819D01*
X52632857Y-62564819D02*
X52537619Y-62564819D01*
X52537619Y-62564819D02*
X52394762Y-62517200D01*
X52394762Y-62517200D02*
X52299524Y-62421961D01*
X52299524Y-62421961D02*
X52251905Y-62326723D01*
X52251905Y-62326723D02*
X52204286Y-62136247D01*
X52204286Y-62136247D02*
X52204286Y-61993390D01*
X52204286Y-61993390D02*
X52251905Y-61802914D01*
X52251905Y-61802914D02*
X52299524Y-61707676D01*
X52299524Y-61707676D02*
X52394762Y-61612438D01*
X52394762Y-61612438D02*
X52537619Y-61564819D01*
X52537619Y-61564819D02*
X52632857Y-61564819D01*
X52632857Y-61564819D02*
X52775714Y-61612438D01*
X52775714Y-61612438D02*
X52823333Y-61660057D01*
X53680476Y-61564819D02*
X53490000Y-61564819D01*
X53490000Y-61564819D02*
X53394762Y-61612438D01*
X53394762Y-61612438D02*
X53347143Y-61660057D01*
X53347143Y-61660057D02*
X53251905Y-61802914D01*
X53251905Y-61802914D02*
X53204286Y-61993390D01*
X53204286Y-61993390D02*
X53204286Y-62374342D01*
X53204286Y-62374342D02*
X53251905Y-62469580D01*
X53251905Y-62469580D02*
X53299524Y-62517200D01*
X53299524Y-62517200D02*
X53394762Y-62564819D01*
X53394762Y-62564819D02*
X53585238Y-62564819D01*
X53585238Y-62564819D02*
X53680476Y-62517200D01*
X53680476Y-62517200D02*
X53728095Y-62469580D01*
X53728095Y-62469580D02*
X53775714Y-62374342D01*
X53775714Y-62374342D02*
X53775714Y-62136247D01*
X53775714Y-62136247D02*
X53728095Y-62041009D01*
X53728095Y-62041009D02*
X53680476Y-61993390D01*
X53680476Y-61993390D02*
X53585238Y-61945771D01*
X53585238Y-61945771D02*
X53394762Y-61945771D01*
X53394762Y-61945771D02*
X53299524Y-61993390D01*
X53299524Y-61993390D02*
X53251905Y-62041009D01*
X53251905Y-62041009D02*
X53204286Y-62136247D01*
X64633333Y-81709580D02*
X64585714Y-81757200D01*
X64585714Y-81757200D02*
X64442857Y-81804819D01*
X64442857Y-81804819D02*
X64347619Y-81804819D01*
X64347619Y-81804819D02*
X64204762Y-81757200D01*
X64204762Y-81757200D02*
X64109524Y-81661961D01*
X64109524Y-81661961D02*
X64061905Y-81566723D01*
X64061905Y-81566723D02*
X64014286Y-81376247D01*
X64014286Y-81376247D02*
X64014286Y-81233390D01*
X64014286Y-81233390D02*
X64061905Y-81042914D01*
X64061905Y-81042914D02*
X64109524Y-80947676D01*
X64109524Y-80947676D02*
X64204762Y-80852438D01*
X64204762Y-80852438D02*
X64347619Y-80804819D01*
X64347619Y-80804819D02*
X64442857Y-80804819D01*
X64442857Y-80804819D02*
X64585714Y-80852438D01*
X64585714Y-80852438D02*
X64633333Y-80900057D01*
X64966667Y-80804819D02*
X65585714Y-80804819D01*
X65585714Y-80804819D02*
X65252381Y-81185771D01*
X65252381Y-81185771D02*
X65395238Y-81185771D01*
X65395238Y-81185771D02*
X65490476Y-81233390D01*
X65490476Y-81233390D02*
X65538095Y-81281009D01*
X65538095Y-81281009D02*
X65585714Y-81376247D01*
X65585714Y-81376247D02*
X65585714Y-81614342D01*
X65585714Y-81614342D02*
X65538095Y-81709580D01*
X65538095Y-81709580D02*
X65490476Y-81757200D01*
X65490476Y-81757200D02*
X65395238Y-81804819D01*
X65395238Y-81804819D02*
X65109524Y-81804819D01*
X65109524Y-81804819D02*
X65014286Y-81757200D01*
X65014286Y-81757200D02*
X64966667Y-81709580D01*
X63783333Y-89539580D02*
X63735714Y-89587200D01*
X63735714Y-89587200D02*
X63592857Y-89634819D01*
X63592857Y-89634819D02*
X63497619Y-89634819D01*
X63497619Y-89634819D02*
X63354762Y-89587200D01*
X63354762Y-89587200D02*
X63259524Y-89491961D01*
X63259524Y-89491961D02*
X63211905Y-89396723D01*
X63211905Y-89396723D02*
X63164286Y-89206247D01*
X63164286Y-89206247D02*
X63164286Y-89063390D01*
X63164286Y-89063390D02*
X63211905Y-88872914D01*
X63211905Y-88872914D02*
X63259524Y-88777676D01*
X63259524Y-88777676D02*
X63354762Y-88682438D01*
X63354762Y-88682438D02*
X63497619Y-88634819D01*
X63497619Y-88634819D02*
X63592857Y-88634819D01*
X63592857Y-88634819D02*
X63735714Y-88682438D01*
X63735714Y-88682438D02*
X63783333Y-88730057D01*
X64688095Y-88634819D02*
X64211905Y-88634819D01*
X64211905Y-88634819D02*
X64164286Y-89111009D01*
X64164286Y-89111009D02*
X64211905Y-89063390D01*
X64211905Y-89063390D02*
X64307143Y-89015771D01*
X64307143Y-89015771D02*
X64545238Y-89015771D01*
X64545238Y-89015771D02*
X64640476Y-89063390D01*
X64640476Y-89063390D02*
X64688095Y-89111009D01*
X64688095Y-89111009D02*
X64735714Y-89206247D01*
X64735714Y-89206247D02*
X64735714Y-89444342D01*
X64735714Y-89444342D02*
X64688095Y-89539580D01*
X64688095Y-89539580D02*
X64640476Y-89587200D01*
X64640476Y-89587200D02*
X64545238Y-89634819D01*
X64545238Y-89634819D02*
X64307143Y-89634819D01*
X64307143Y-89634819D02*
X64211905Y-89587200D01*
X64211905Y-89587200D02*
X64164286Y-89539580D01*
X55084761Y-70660057D02*
X54989523Y-70612438D01*
X54989523Y-70612438D02*
X54894285Y-70517200D01*
X54894285Y-70517200D02*
X54751428Y-70374342D01*
X54751428Y-70374342D02*
X54656190Y-70326723D01*
X54656190Y-70326723D02*
X54560952Y-70326723D01*
X54608571Y-70564819D02*
X54513333Y-70517200D01*
X54513333Y-70517200D02*
X54418095Y-70421961D01*
X54418095Y-70421961D02*
X54370476Y-70231485D01*
X54370476Y-70231485D02*
X54370476Y-69898152D01*
X54370476Y-69898152D02*
X54418095Y-69707676D01*
X54418095Y-69707676D02*
X54513333Y-69612438D01*
X54513333Y-69612438D02*
X54608571Y-69564819D01*
X54608571Y-69564819D02*
X54799047Y-69564819D01*
X54799047Y-69564819D02*
X54894285Y-69612438D01*
X54894285Y-69612438D02*
X54989523Y-69707676D01*
X54989523Y-69707676D02*
X55037142Y-69898152D01*
X55037142Y-69898152D02*
X55037142Y-70231485D01*
X55037142Y-70231485D02*
X54989523Y-70421961D01*
X54989523Y-70421961D02*
X54894285Y-70517200D01*
X54894285Y-70517200D02*
X54799047Y-70564819D01*
X54799047Y-70564819D02*
X54608571Y-70564819D01*
X55989523Y-70564819D02*
X55418095Y-70564819D01*
X55703809Y-70564819D02*
X55703809Y-69564819D01*
X55703809Y-69564819D02*
X55608571Y-69707676D01*
X55608571Y-69707676D02*
X55513333Y-69802914D01*
X55513333Y-69802914D02*
X55418095Y-69850533D01*
X52833333Y-59664819D02*
X52500000Y-59188628D01*
X52261905Y-59664819D02*
X52261905Y-58664819D01*
X52261905Y-58664819D02*
X52642857Y-58664819D01*
X52642857Y-58664819D02*
X52738095Y-58712438D01*
X52738095Y-58712438D02*
X52785714Y-58760057D01*
X52785714Y-58760057D02*
X52833333Y-58855295D01*
X52833333Y-58855295D02*
X52833333Y-58998152D01*
X52833333Y-58998152D02*
X52785714Y-59093390D01*
X52785714Y-59093390D02*
X52738095Y-59141009D01*
X52738095Y-59141009D02*
X52642857Y-59188628D01*
X52642857Y-59188628D02*
X52261905Y-59188628D01*
X53738095Y-58664819D02*
X53261905Y-58664819D01*
X53261905Y-58664819D02*
X53214286Y-59141009D01*
X53214286Y-59141009D02*
X53261905Y-59093390D01*
X53261905Y-59093390D02*
X53357143Y-59045771D01*
X53357143Y-59045771D02*
X53595238Y-59045771D01*
X53595238Y-59045771D02*
X53690476Y-59093390D01*
X53690476Y-59093390D02*
X53738095Y-59141009D01*
X53738095Y-59141009D02*
X53785714Y-59236247D01*
X53785714Y-59236247D02*
X53785714Y-59474342D01*
X53785714Y-59474342D02*
X53738095Y-59569580D01*
X53738095Y-59569580D02*
X53690476Y-59617200D01*
X53690476Y-59617200D02*
X53595238Y-59664819D01*
X53595238Y-59664819D02*
X53357143Y-59664819D01*
X53357143Y-59664819D02*
X53261905Y-59617200D01*
X53261905Y-59617200D02*
X53214286Y-59569580D01*
X83393333Y-85774819D02*
X83060000Y-85298628D01*
X82821905Y-85774819D02*
X82821905Y-84774819D01*
X82821905Y-84774819D02*
X83202857Y-84774819D01*
X83202857Y-84774819D02*
X83298095Y-84822438D01*
X83298095Y-84822438D02*
X83345714Y-84870057D01*
X83345714Y-84870057D02*
X83393333Y-84965295D01*
X83393333Y-84965295D02*
X83393333Y-85108152D01*
X83393333Y-85108152D02*
X83345714Y-85203390D01*
X83345714Y-85203390D02*
X83298095Y-85251009D01*
X83298095Y-85251009D02*
X83202857Y-85298628D01*
X83202857Y-85298628D02*
X82821905Y-85298628D01*
X84250476Y-85108152D02*
X84250476Y-85774819D01*
X84012381Y-84727200D02*
X83774286Y-85441485D01*
X83774286Y-85441485D02*
X84393333Y-85441485D01*
X67553333Y-79969580D02*
X67505714Y-80017200D01*
X67505714Y-80017200D02*
X67362857Y-80064819D01*
X67362857Y-80064819D02*
X67267619Y-80064819D01*
X67267619Y-80064819D02*
X67124762Y-80017200D01*
X67124762Y-80017200D02*
X67029524Y-79921961D01*
X67029524Y-79921961D02*
X66981905Y-79826723D01*
X66981905Y-79826723D02*
X66934286Y-79636247D01*
X66934286Y-79636247D02*
X66934286Y-79493390D01*
X66934286Y-79493390D02*
X66981905Y-79302914D01*
X66981905Y-79302914D02*
X67029524Y-79207676D01*
X67029524Y-79207676D02*
X67124762Y-79112438D01*
X67124762Y-79112438D02*
X67267619Y-79064819D01*
X67267619Y-79064819D02*
X67362857Y-79064819D01*
X67362857Y-79064819D02*
X67505714Y-79112438D01*
X67505714Y-79112438D02*
X67553333Y-79160057D01*
X68505714Y-80064819D02*
X67934286Y-80064819D01*
X68220000Y-80064819D02*
X68220000Y-79064819D01*
X68220000Y-79064819D02*
X68124762Y-79207676D01*
X68124762Y-79207676D02*
X68029524Y-79302914D01*
X68029524Y-79302914D02*
X67934286Y-79350533D01*
X81233333Y-72354819D02*
X80900000Y-71878628D01*
X80661905Y-72354819D02*
X80661905Y-71354819D01*
X80661905Y-71354819D02*
X81042857Y-71354819D01*
X81042857Y-71354819D02*
X81138095Y-71402438D01*
X81138095Y-71402438D02*
X81185714Y-71450057D01*
X81185714Y-71450057D02*
X81233333Y-71545295D01*
X81233333Y-71545295D02*
X81233333Y-71688152D01*
X81233333Y-71688152D02*
X81185714Y-71783390D01*
X81185714Y-71783390D02*
X81138095Y-71831009D01*
X81138095Y-71831009D02*
X81042857Y-71878628D01*
X81042857Y-71878628D02*
X80661905Y-71878628D01*
X82090476Y-71354819D02*
X81900000Y-71354819D01*
X81900000Y-71354819D02*
X81804762Y-71402438D01*
X81804762Y-71402438D02*
X81757143Y-71450057D01*
X81757143Y-71450057D02*
X81661905Y-71592914D01*
X81661905Y-71592914D02*
X81614286Y-71783390D01*
X81614286Y-71783390D02*
X81614286Y-72164342D01*
X81614286Y-72164342D02*
X81661905Y-72259580D01*
X81661905Y-72259580D02*
X81709524Y-72307200D01*
X81709524Y-72307200D02*
X81804762Y-72354819D01*
X81804762Y-72354819D02*
X81995238Y-72354819D01*
X81995238Y-72354819D02*
X82090476Y-72307200D01*
X82090476Y-72307200D02*
X82138095Y-72259580D01*
X82138095Y-72259580D02*
X82185714Y-72164342D01*
X82185714Y-72164342D02*
X82185714Y-71926247D01*
X82185714Y-71926247D02*
X82138095Y-71831009D01*
X82138095Y-71831009D02*
X82090476Y-71783390D01*
X82090476Y-71783390D02*
X81995238Y-71735771D01*
X81995238Y-71735771D02*
X81804762Y-71735771D01*
X81804762Y-71735771D02*
X81709524Y-71783390D01*
X81709524Y-71783390D02*
X81661905Y-71831009D01*
X81661905Y-71831009D02*
X81614286Y-71926247D01*
X60213333Y-79514819D02*
X59880000Y-79038628D01*
X59641905Y-79514819D02*
X59641905Y-78514819D01*
X59641905Y-78514819D02*
X60022857Y-78514819D01*
X60022857Y-78514819D02*
X60118095Y-78562438D01*
X60118095Y-78562438D02*
X60165714Y-78610057D01*
X60165714Y-78610057D02*
X60213333Y-78705295D01*
X60213333Y-78705295D02*
X60213333Y-78848152D01*
X60213333Y-78848152D02*
X60165714Y-78943390D01*
X60165714Y-78943390D02*
X60118095Y-78991009D01*
X60118095Y-78991009D02*
X60022857Y-79038628D01*
X60022857Y-79038628D02*
X59641905Y-79038628D01*
X61165714Y-79514819D02*
X60594286Y-79514819D01*
X60880000Y-79514819D02*
X60880000Y-78514819D01*
X60880000Y-78514819D02*
X60784762Y-78657676D01*
X60784762Y-78657676D02*
X60689524Y-78752914D01*
X60689524Y-78752914D02*
X60594286Y-78800533D01*
X68253333Y-89574819D02*
X67920000Y-89098628D01*
X67681905Y-89574819D02*
X67681905Y-88574819D01*
X67681905Y-88574819D02*
X68062857Y-88574819D01*
X68062857Y-88574819D02*
X68158095Y-88622438D01*
X68158095Y-88622438D02*
X68205714Y-88670057D01*
X68205714Y-88670057D02*
X68253333Y-88765295D01*
X68253333Y-88765295D02*
X68253333Y-88908152D01*
X68253333Y-88908152D02*
X68205714Y-89003390D01*
X68205714Y-89003390D02*
X68158095Y-89051009D01*
X68158095Y-89051009D02*
X68062857Y-89098628D01*
X68062857Y-89098628D02*
X67681905Y-89098628D01*
X68586667Y-88574819D02*
X69205714Y-88574819D01*
X69205714Y-88574819D02*
X68872381Y-88955771D01*
X68872381Y-88955771D02*
X69015238Y-88955771D01*
X69015238Y-88955771D02*
X69110476Y-89003390D01*
X69110476Y-89003390D02*
X69158095Y-89051009D01*
X69158095Y-89051009D02*
X69205714Y-89146247D01*
X69205714Y-89146247D02*
X69205714Y-89384342D01*
X69205714Y-89384342D02*
X69158095Y-89479580D01*
X69158095Y-89479580D02*
X69110476Y-89527200D01*
X69110476Y-89527200D02*
X69015238Y-89574819D01*
X69015238Y-89574819D02*
X68729524Y-89574819D01*
X68729524Y-89574819D02*
X68634286Y-89527200D01*
X68634286Y-89527200D02*
X68586667Y-89479580D01*
X57578095Y-80474819D02*
X57578095Y-81284342D01*
X57578095Y-81284342D02*
X57625714Y-81379580D01*
X57625714Y-81379580D02*
X57673333Y-81427200D01*
X57673333Y-81427200D02*
X57768571Y-81474819D01*
X57768571Y-81474819D02*
X57959047Y-81474819D01*
X57959047Y-81474819D02*
X58054285Y-81427200D01*
X58054285Y-81427200D02*
X58101904Y-81379580D01*
X58101904Y-81379580D02*
X58149523Y-81284342D01*
X58149523Y-81284342D02*
X58149523Y-80474819D01*
X58578095Y-80570057D02*
X58625714Y-80522438D01*
X58625714Y-80522438D02*
X58720952Y-80474819D01*
X58720952Y-80474819D02*
X58959047Y-80474819D01*
X58959047Y-80474819D02*
X59054285Y-80522438D01*
X59054285Y-80522438D02*
X59101904Y-80570057D01*
X59101904Y-80570057D02*
X59149523Y-80665295D01*
X59149523Y-80665295D02*
X59149523Y-80760533D01*
X59149523Y-80760533D02*
X59101904Y-80903390D01*
X59101904Y-80903390D02*
X58530476Y-81474819D01*
X58530476Y-81474819D02*
X59149523Y-81474819D01*
X61844761Y-73770057D02*
X61749523Y-73722438D01*
X61749523Y-73722438D02*
X61654285Y-73627200D01*
X61654285Y-73627200D02*
X61511428Y-73484342D01*
X61511428Y-73484342D02*
X61416190Y-73436723D01*
X61416190Y-73436723D02*
X61320952Y-73436723D01*
X61368571Y-73674819D02*
X61273333Y-73627200D01*
X61273333Y-73627200D02*
X61178095Y-73531961D01*
X61178095Y-73531961D02*
X61130476Y-73341485D01*
X61130476Y-73341485D02*
X61130476Y-73008152D01*
X61130476Y-73008152D02*
X61178095Y-72817676D01*
X61178095Y-72817676D02*
X61273333Y-72722438D01*
X61273333Y-72722438D02*
X61368571Y-72674819D01*
X61368571Y-72674819D02*
X61559047Y-72674819D01*
X61559047Y-72674819D02*
X61654285Y-72722438D01*
X61654285Y-72722438D02*
X61749523Y-72817676D01*
X61749523Y-72817676D02*
X61797142Y-73008152D01*
X61797142Y-73008152D02*
X61797142Y-73341485D01*
X61797142Y-73341485D02*
X61749523Y-73531961D01*
X61749523Y-73531961D02*
X61654285Y-73627200D01*
X61654285Y-73627200D02*
X61559047Y-73674819D01*
X61559047Y-73674819D02*
X61368571Y-73674819D01*
X62178095Y-72770057D02*
X62225714Y-72722438D01*
X62225714Y-72722438D02*
X62320952Y-72674819D01*
X62320952Y-72674819D02*
X62559047Y-72674819D01*
X62559047Y-72674819D02*
X62654285Y-72722438D01*
X62654285Y-72722438D02*
X62701904Y-72770057D01*
X62701904Y-72770057D02*
X62749523Y-72865295D01*
X62749523Y-72865295D02*
X62749523Y-72960533D01*
X62749523Y-72960533D02*
X62701904Y-73103390D01*
X62701904Y-73103390D02*
X62130476Y-73674819D01*
X62130476Y-73674819D02*
X62749523Y-73674819D01*
X66976779Y-70454819D02*
X66976779Y-71264342D01*
X66976779Y-71264342D02*
X67024398Y-71359580D01*
X67024398Y-71359580D02*
X67072017Y-71407200D01*
X67072017Y-71407200D02*
X67167255Y-71454819D01*
X67167255Y-71454819D02*
X67357731Y-71454819D01*
X67357731Y-71454819D02*
X67452969Y-71407200D01*
X67452969Y-71407200D02*
X67500588Y-71359580D01*
X67500588Y-71359580D02*
X67548207Y-71264342D01*
X67548207Y-71264342D02*
X67548207Y-70454819D01*
X67929160Y-70454819D02*
X68548207Y-70454819D01*
X68548207Y-70454819D02*
X68214874Y-70835771D01*
X68214874Y-70835771D02*
X68357731Y-70835771D01*
X68357731Y-70835771D02*
X68452969Y-70883390D01*
X68452969Y-70883390D02*
X68500588Y-70931009D01*
X68500588Y-70931009D02*
X68548207Y-71026247D01*
X68548207Y-71026247D02*
X68548207Y-71264342D01*
X68548207Y-71264342D02*
X68500588Y-71359580D01*
X68500588Y-71359580D02*
X68452969Y-71407200D01*
X68452969Y-71407200D02*
X68357731Y-71454819D01*
X68357731Y-71454819D02*
X68072017Y-71454819D01*
X68072017Y-71454819D02*
X67976779Y-71407200D01*
X67976779Y-71407200D02*
X67929160Y-71359580D01*
X74258095Y-72104819D02*
X74258095Y-72914342D01*
X74258095Y-72914342D02*
X74305714Y-73009580D01*
X74305714Y-73009580D02*
X74353333Y-73057200D01*
X74353333Y-73057200D02*
X74448571Y-73104819D01*
X74448571Y-73104819D02*
X74639047Y-73104819D01*
X74639047Y-73104819D02*
X74734285Y-73057200D01*
X74734285Y-73057200D02*
X74781904Y-73009580D01*
X74781904Y-73009580D02*
X74829523Y-72914342D01*
X74829523Y-72914342D02*
X74829523Y-72104819D01*
X75829523Y-73104819D02*
X75258095Y-73104819D01*
X75543809Y-73104819D02*
X75543809Y-72104819D01*
X75543809Y-72104819D02*
X75448571Y-72247676D01*
X75448571Y-72247676D02*
X75353333Y-72342914D01*
X75353333Y-72342914D02*
X75258095Y-72390533D01*
X52793333Y-55219580D02*
X52745714Y-55267200D01*
X52745714Y-55267200D02*
X52602857Y-55314819D01*
X52602857Y-55314819D02*
X52507619Y-55314819D01*
X52507619Y-55314819D02*
X52364762Y-55267200D01*
X52364762Y-55267200D02*
X52269524Y-55171961D01*
X52269524Y-55171961D02*
X52221905Y-55076723D01*
X52221905Y-55076723D02*
X52174286Y-54886247D01*
X52174286Y-54886247D02*
X52174286Y-54743390D01*
X52174286Y-54743390D02*
X52221905Y-54552914D01*
X52221905Y-54552914D02*
X52269524Y-54457676D01*
X52269524Y-54457676D02*
X52364762Y-54362438D01*
X52364762Y-54362438D02*
X52507619Y-54314819D01*
X52507619Y-54314819D02*
X52602857Y-54314819D01*
X52602857Y-54314819D02*
X52745714Y-54362438D01*
X52745714Y-54362438D02*
X52793333Y-54410057D01*
X53364762Y-54743390D02*
X53269524Y-54695771D01*
X53269524Y-54695771D02*
X53221905Y-54648152D01*
X53221905Y-54648152D02*
X53174286Y-54552914D01*
X53174286Y-54552914D02*
X53174286Y-54505295D01*
X53174286Y-54505295D02*
X53221905Y-54410057D01*
X53221905Y-54410057D02*
X53269524Y-54362438D01*
X53269524Y-54362438D02*
X53364762Y-54314819D01*
X53364762Y-54314819D02*
X53555238Y-54314819D01*
X53555238Y-54314819D02*
X53650476Y-54362438D01*
X53650476Y-54362438D02*
X53698095Y-54410057D01*
X53698095Y-54410057D02*
X53745714Y-54505295D01*
X53745714Y-54505295D02*
X53745714Y-54552914D01*
X53745714Y-54552914D02*
X53698095Y-54648152D01*
X53698095Y-54648152D02*
X53650476Y-54695771D01*
X53650476Y-54695771D02*
X53555238Y-54743390D01*
X53555238Y-54743390D02*
X53364762Y-54743390D01*
X53364762Y-54743390D02*
X53269524Y-54791009D01*
X53269524Y-54791009D02*
X53221905Y-54838628D01*
X53221905Y-54838628D02*
X53174286Y-54933866D01*
X53174286Y-54933866D02*
X53174286Y-55124342D01*
X53174286Y-55124342D02*
X53221905Y-55219580D01*
X53221905Y-55219580D02*
X53269524Y-55267200D01*
X53269524Y-55267200D02*
X53364762Y-55314819D01*
X53364762Y-55314819D02*
X53555238Y-55314819D01*
X53555238Y-55314819D02*
X53650476Y-55267200D01*
X53650476Y-55267200D02*
X53698095Y-55219580D01*
X53698095Y-55219580D02*
X53745714Y-55124342D01*
X53745714Y-55124342D02*
X53745714Y-54933866D01*
X53745714Y-54933866D02*
X53698095Y-54838628D01*
X53698095Y-54838628D02*
X53650476Y-54791009D01*
X53650476Y-54791009D02*
X53555238Y-54743390D01*
X83223333Y-76334819D02*
X82890000Y-75858628D01*
X82651905Y-76334819D02*
X82651905Y-75334819D01*
X82651905Y-75334819D02*
X83032857Y-75334819D01*
X83032857Y-75334819D02*
X83128095Y-75382438D01*
X83128095Y-75382438D02*
X83175714Y-75430057D01*
X83175714Y-75430057D02*
X83223333Y-75525295D01*
X83223333Y-75525295D02*
X83223333Y-75668152D01*
X83223333Y-75668152D02*
X83175714Y-75763390D01*
X83175714Y-75763390D02*
X83128095Y-75811009D01*
X83128095Y-75811009D02*
X83032857Y-75858628D01*
X83032857Y-75858628D02*
X82651905Y-75858628D01*
X83556667Y-75334819D02*
X84223333Y-75334819D01*
X84223333Y-75334819D02*
X83794762Y-76334819D01*
X74966666Y-80854819D02*
X74966666Y-81569104D01*
X74966666Y-81569104D02*
X74919047Y-81711961D01*
X74919047Y-81711961D02*
X74823809Y-81807200D01*
X74823809Y-81807200D02*
X74680952Y-81854819D01*
X74680952Y-81854819D02*
X74585714Y-81854819D01*
X75966666Y-81854819D02*
X75395238Y-81854819D01*
X75680952Y-81854819D02*
X75680952Y-80854819D01*
X75680952Y-80854819D02*
X75585714Y-80997676D01*
X75585714Y-80997676D02*
X75490476Y-81092914D01*
X75490476Y-81092914D02*
X75395238Y-81140533D01*
X83293333Y-81364819D02*
X82960000Y-80888628D01*
X82721905Y-81364819D02*
X82721905Y-80364819D01*
X82721905Y-80364819D02*
X83102857Y-80364819D01*
X83102857Y-80364819D02*
X83198095Y-80412438D01*
X83198095Y-80412438D02*
X83245714Y-80460057D01*
X83245714Y-80460057D02*
X83293333Y-80555295D01*
X83293333Y-80555295D02*
X83293333Y-80698152D01*
X83293333Y-80698152D02*
X83245714Y-80793390D01*
X83245714Y-80793390D02*
X83198095Y-80841009D01*
X83198095Y-80841009D02*
X83102857Y-80888628D01*
X83102857Y-80888628D02*
X82721905Y-80888628D01*
X83864762Y-80793390D02*
X83769524Y-80745771D01*
X83769524Y-80745771D02*
X83721905Y-80698152D01*
X83721905Y-80698152D02*
X83674286Y-80602914D01*
X83674286Y-80602914D02*
X83674286Y-80555295D01*
X83674286Y-80555295D02*
X83721905Y-80460057D01*
X83721905Y-80460057D02*
X83769524Y-80412438D01*
X83769524Y-80412438D02*
X83864762Y-80364819D01*
X83864762Y-80364819D02*
X84055238Y-80364819D01*
X84055238Y-80364819D02*
X84150476Y-80412438D01*
X84150476Y-80412438D02*
X84198095Y-80460057D01*
X84198095Y-80460057D02*
X84245714Y-80555295D01*
X84245714Y-80555295D02*
X84245714Y-80602914D01*
X84245714Y-80602914D02*
X84198095Y-80698152D01*
X84198095Y-80698152D02*
X84150476Y-80745771D01*
X84150476Y-80745771D02*
X84055238Y-80793390D01*
X84055238Y-80793390D02*
X83864762Y-80793390D01*
X83864762Y-80793390D02*
X83769524Y-80841009D01*
X83769524Y-80841009D02*
X83721905Y-80888628D01*
X83721905Y-80888628D02*
X83674286Y-80983866D01*
X83674286Y-80983866D02*
X83674286Y-81174342D01*
X83674286Y-81174342D02*
X83721905Y-81269580D01*
X83721905Y-81269580D02*
X83769524Y-81317200D01*
X83769524Y-81317200D02*
X83864762Y-81364819D01*
X83864762Y-81364819D02*
X84055238Y-81364819D01*
X84055238Y-81364819D02*
X84150476Y-81317200D01*
X84150476Y-81317200D02*
X84198095Y-81269580D01*
X84198095Y-81269580D02*
X84245714Y-81174342D01*
X84245714Y-81174342D02*
X84245714Y-80983866D01*
X84245714Y-80983866D02*
X84198095Y-80888628D01*
X84198095Y-80888628D02*
X84150476Y-80841009D01*
X84150476Y-80841009D02*
X84055238Y-80793390D01*
X67533333Y-74409580D02*
X67485714Y-74457200D01*
X67485714Y-74457200D02*
X67342857Y-74504819D01*
X67342857Y-74504819D02*
X67247619Y-74504819D01*
X67247619Y-74504819D02*
X67104762Y-74457200D01*
X67104762Y-74457200D02*
X67009524Y-74361961D01*
X67009524Y-74361961D02*
X66961905Y-74266723D01*
X66961905Y-74266723D02*
X66914286Y-74076247D01*
X66914286Y-74076247D02*
X66914286Y-73933390D01*
X66914286Y-73933390D02*
X66961905Y-73742914D01*
X66961905Y-73742914D02*
X67009524Y-73647676D01*
X67009524Y-73647676D02*
X67104762Y-73552438D01*
X67104762Y-73552438D02*
X67247619Y-73504819D01*
X67247619Y-73504819D02*
X67342857Y-73504819D01*
X67342857Y-73504819D02*
X67485714Y-73552438D01*
X67485714Y-73552438D02*
X67533333Y-73600057D01*
X67914286Y-73600057D02*
X67961905Y-73552438D01*
X67961905Y-73552438D02*
X68057143Y-73504819D01*
X68057143Y-73504819D02*
X68295238Y-73504819D01*
X68295238Y-73504819D02*
X68390476Y-73552438D01*
X68390476Y-73552438D02*
X68438095Y-73600057D01*
X68438095Y-73600057D02*
X68485714Y-73695295D01*
X68485714Y-73695295D02*
X68485714Y-73790533D01*
X68485714Y-73790533D02*
X68438095Y-73933390D01*
X68438095Y-73933390D02*
X67866667Y-74504819D01*
X67866667Y-74504819D02*
X68485714Y-74504819D01*
X66103333Y-89479580D02*
X66055714Y-89527200D01*
X66055714Y-89527200D02*
X65912857Y-89574819D01*
X65912857Y-89574819D02*
X65817619Y-89574819D01*
X65817619Y-89574819D02*
X65674762Y-89527200D01*
X65674762Y-89527200D02*
X65579524Y-89431961D01*
X65579524Y-89431961D02*
X65531905Y-89336723D01*
X65531905Y-89336723D02*
X65484286Y-89146247D01*
X65484286Y-89146247D02*
X65484286Y-89003390D01*
X65484286Y-89003390D02*
X65531905Y-88812914D01*
X65531905Y-88812914D02*
X65579524Y-88717676D01*
X65579524Y-88717676D02*
X65674762Y-88622438D01*
X65674762Y-88622438D02*
X65817619Y-88574819D01*
X65817619Y-88574819D02*
X65912857Y-88574819D01*
X65912857Y-88574819D02*
X66055714Y-88622438D01*
X66055714Y-88622438D02*
X66103333Y-88670057D01*
X66960476Y-88908152D02*
X66960476Y-89574819D01*
X66722381Y-88527200D02*
X66484286Y-89241485D01*
X66484286Y-89241485D02*
X67103333Y-89241485D01*
X83126666Y-59194819D02*
X83126666Y-59909104D01*
X83126666Y-59909104D02*
X83079047Y-60051961D01*
X83079047Y-60051961D02*
X82983809Y-60147200D01*
X82983809Y-60147200D02*
X82840952Y-60194819D01*
X82840952Y-60194819D02*
X82745714Y-60194819D01*
X83555238Y-59290057D02*
X83602857Y-59242438D01*
X83602857Y-59242438D02*
X83698095Y-59194819D01*
X83698095Y-59194819D02*
X83936190Y-59194819D01*
X83936190Y-59194819D02*
X84031428Y-59242438D01*
X84031428Y-59242438D02*
X84079047Y-59290057D01*
X84079047Y-59290057D02*
X84126666Y-59385295D01*
X84126666Y-59385295D02*
X84126666Y-59480533D01*
X84126666Y-59480533D02*
X84079047Y-59623390D01*
X84079047Y-59623390D02*
X83507619Y-60194819D01*
X83507619Y-60194819D02*
X84126666Y-60194819D01*
D11*
X55880000Y-65650000D02*
G75*
G02*
X53980000Y-65650000I-950000J0D01*
G01*
X53980000Y-65650000D02*
G75*
G02*
X55880000Y-65650000I950000J0D01*
G01*
X63680000Y-80240000D02*
G75*
G02*
X61780000Y-80240000I-950000J0D01*
G01*
X61780000Y-80240000D02*
G75*
G02*
X63680000Y-80240000I950000J0D01*
G01*
X82780000Y-69940000D02*
G75*
G02*
X80880000Y-69940000I-950000J0D01*
G01*
X80880000Y-69940000D02*
G75*
G02*
X82780000Y-69940000I950000J0D01*
G01*
X54770000Y-79630000D02*
G75*
G02*
X52870000Y-79630000I-950000J0D01*
G01*
X52870000Y-79630000D02*
G75*
G02*
X54770000Y-79630000I950000J0D01*
G01*
X64090000Y-76600000D02*
G75*
G02*
X62190000Y-76600000I-950000J0D01*
G01*
X62190000Y-76600000D02*
G75*
G02*
X64090000Y-76600000I950000J0D01*
G01*
X56161252Y-51965000D02*
X55638748Y-51965000D01*
X56161252Y-53435000D02*
X55638748Y-53435000D01*
X56171252Y-56215000D02*
X55648748Y-56215000D01*
X56171252Y-57685000D02*
X55648748Y-57685000D01*
X57527064Y-75345000D02*
X57072936Y-75345000D01*
X57527064Y-76815000D02*
X57072936Y-76815000D01*
X54255000Y-62338752D02*
X54255000Y-61816248D01*
X55725000Y-62338752D02*
X55725000Y-61816248D01*
X64538748Y-82295000D02*
X65061252Y-82295000D01*
X64538748Y-83765000D02*
X65061252Y-83765000D01*
X63265000Y-86106248D02*
X63265000Y-86628752D01*
X64735000Y-86106248D02*
X64735000Y-86628752D01*
X53600000Y-72140000D02*
X54600000Y-72140000D01*
X53600000Y-73660000D02*
X53600000Y-72140000D01*
X53650000Y-73660000D02*
X53600000Y-73660000D01*
X55550000Y-73660000D02*
X54770000Y-73660000D01*
X55720000Y-72140000D02*
X56720000Y-72140000D01*
X56720000Y-72140000D02*
X56720000Y-73660000D01*
X56720000Y-73660000D02*
X56670000Y-73660000D01*
X54780000Y-74200000D02*
X55110000Y-73960000D01*
X55110000Y-74440000D01*
X54780000Y-74200000D01*
G36*
X55110000Y-74440000D02*
G01*
X54780000Y-74200000D01*
X55110000Y-73960000D01*
X55110000Y-74440000D01*
G37*
X56117064Y-58355000D02*
X55662936Y-58355000D01*
X56117064Y-59825000D02*
X55662936Y-59825000D01*
X80845000Y-85052936D02*
X80845000Y-85507064D01*
X82315000Y-85052936D02*
X82315000Y-85507064D01*
X67478748Y-77185000D02*
X68001252Y-77185000D01*
X67478748Y-78655000D02*
X68001252Y-78655000D01*
X78605000Y-70667064D02*
X78605000Y-70212936D01*
X80075000Y-70667064D02*
X80075000Y-70212936D01*
X57262936Y-78295000D02*
X57717064Y-78295000D01*
X57262936Y-79765000D02*
X57717064Y-79765000D01*
X67755000Y-86557064D02*
X67755000Y-86102936D01*
X69225000Y-86557064D02*
X69225000Y-86102936D01*
X56390000Y-81870000D02*
X56390000Y-83130000D01*
X56390000Y-88690000D02*
X56390000Y-87430000D01*
X60150000Y-81870000D02*
X56390000Y-81870000D01*
X60150000Y-88690000D02*
X56390000Y-88690000D01*
X61430000Y-88590000D02*
X61670000Y-88920000D01*
X61190000Y-88920000D01*
X61430000Y-88590000D01*
G36*
X61670000Y-88920000D02*
G01*
X61190000Y-88920000D01*
X61430000Y-88590000D01*
X61670000Y-88920000D01*
G37*
X57520000Y-72130000D02*
X58520000Y-72130000D01*
X57520000Y-73650000D02*
X57520000Y-72130000D01*
X57570000Y-73650000D02*
X57520000Y-73650000D01*
X59470000Y-73650000D02*
X58690000Y-73650000D01*
X59640000Y-72130000D02*
X60640000Y-72130000D01*
X60640000Y-72130000D02*
X60640000Y-73650000D01*
X60640000Y-73650000D02*
X60590000Y-73650000D01*
X58700000Y-74190000D02*
X59030000Y-73950000D01*
X59030000Y-74430000D01*
X58700000Y-74190000D01*
G36*
X59030000Y-74430000D02*
G01*
X58700000Y-74190000D01*
X59030000Y-73950000D01*
X59030000Y-74430000D01*
G37*
X58530000Y-69570000D02*
X58530000Y-68620000D01*
X59930000Y-69570000D02*
X58530000Y-69570000D01*
X75530000Y-69570000D02*
X76930000Y-69570000D01*
X76930000Y-69570000D02*
X76930000Y-68620000D01*
X58530000Y-50620000D02*
X58030000Y-50620000D01*
X58530000Y-50120000D01*
X58530000Y-50620000D01*
G36*
X58530000Y-50620000D02*
G01*
X58030000Y-50620000D01*
X58530000Y-50120000D01*
X58530000Y-50620000D01*
G37*
X69915000Y-74995000D02*
X69970000Y-74995000D01*
X69915000Y-79115000D02*
X69915000Y-74995000D01*
X69970000Y-79115000D02*
X69915000Y-79115000D01*
X79980000Y-74995000D02*
X80035000Y-74995000D01*
X80035000Y-74995000D02*
X80035000Y-79115000D01*
X80035000Y-79115000D02*
X79980000Y-79115000D01*
X69965000Y-79655000D02*
X69635000Y-79895000D01*
X69635000Y-79415000D01*
X69965000Y-79655000D01*
G36*
X69965000Y-79655000D02*
G01*
X69635000Y-79895000D01*
X69635000Y-79415000D01*
X69965000Y-79655000D01*
G37*
X56161252Y-54075000D02*
X55638748Y-54075000D01*
X56161252Y-55545000D02*
X55638748Y-55545000D01*
X80705000Y-76077064D02*
X80705000Y-75622936D01*
X82175000Y-76077064D02*
X82175000Y-75622936D01*
X70300000Y-85350000D02*
X70300000Y-87350000D01*
X70300000Y-89250000D02*
X70300000Y-91150000D01*
X70300000Y-91150000D02*
X79700000Y-91150000D01*
X79700000Y-85350000D02*
X79700000Y-87350000D01*
X79700000Y-89250000D02*
X79700000Y-91150000D01*
X80705000Y-79612936D02*
X80705000Y-80067064D01*
X82175000Y-79612936D02*
X82175000Y-80067064D01*
X67991252Y-74975000D02*
X67468748Y-74975000D01*
X67991252Y-76445000D02*
X67468748Y-76445000D01*
X65565000Y-86106248D02*
X65565000Y-86628752D01*
X67035000Y-86106248D02*
X67035000Y-86628752D01*
X79180000Y-51450000D02*
X80560000Y-51450000D01*
X79180000Y-52830000D02*
X79180000Y-51450000D01*
X79180000Y-54100000D02*
X79180000Y-66910000D01*
X79180000Y-54100000D02*
X81940000Y-54100000D01*
X79180000Y-66910000D02*
X81940000Y-66910000D01*
X81940000Y-54100000D02*
X81940000Y-66910000D01*
%LPC*%
D12*
X54930000Y-65650000D03*
X62730000Y-80240000D03*
X81830000Y-69940000D03*
X53820000Y-79630000D03*
X63140000Y-76600000D03*
D13*
X56937500Y-52700000D03*
X54862500Y-52700000D03*
X56947500Y-56950000D03*
X54872500Y-56950000D03*
D14*
X58300000Y-76080000D03*
X56300000Y-76080000D03*
D15*
X54990000Y-63115000D03*
X54990000Y-61040000D03*
D16*
X63762500Y-83030000D03*
X65837500Y-83030000D03*
D17*
X64000000Y-85330000D03*
X64000000Y-87405000D03*
D18*
X54210000Y-73837500D03*
X56110000Y-73837500D03*
X55160000Y-71962500D03*
D14*
X56890000Y-59090000D03*
X54890000Y-59090000D03*
D19*
X81580000Y-84280000D03*
X81580000Y-86280000D03*
D16*
X66702500Y-77920000D03*
X68777500Y-77920000D03*
D20*
X79340000Y-71440000D03*
X79340000Y-69440000D03*
D21*
X56490000Y-79030000D03*
X58490000Y-79030000D03*
D20*
X68490000Y-87330000D03*
X68490000Y-85330000D03*
D22*
X61450000Y-87580000D03*
X61450000Y-85280000D03*
D23*
X55150000Y-85280000D03*
D22*
X61450000Y-82980000D03*
D18*
X58130000Y-73827500D03*
X60030000Y-73827500D03*
X59080000Y-71952500D03*
D24*
X58980000Y-51360000D03*
X58980000Y-52630000D03*
X58980000Y-53900000D03*
X58980000Y-55170000D03*
X58980000Y-56440000D03*
X58980000Y-57710000D03*
X58980000Y-58980000D03*
X58980000Y-60250000D03*
X58980000Y-61520000D03*
X58980000Y-62790000D03*
X58980000Y-64060000D03*
X58980000Y-65330000D03*
X58980000Y-66600000D03*
X58980000Y-67870000D03*
D25*
X62015000Y-69120000D03*
X63285000Y-69120000D03*
X64555000Y-69120000D03*
X65825000Y-69120000D03*
X67095000Y-69120000D03*
X68365000Y-69120000D03*
X69635000Y-69120000D03*
X70905000Y-69120000D03*
X72175000Y-69120000D03*
X73445000Y-69120000D03*
D24*
X76480000Y-67870000D03*
X76480000Y-66600000D03*
X76480000Y-65330000D03*
X76480000Y-64060000D03*
X76480000Y-62790000D03*
X76480000Y-61520000D03*
X76480000Y-60250000D03*
X76480000Y-58980000D03*
X76480000Y-57710000D03*
X76480000Y-56440000D03*
X76480000Y-55170000D03*
X76480000Y-53900000D03*
X76480000Y-52630000D03*
X76480000Y-51360000D03*
D26*
X64830000Y-57680000D03*
D27*
X64830000Y-58380000D03*
D26*
X64830000Y-59080000D03*
D27*
X64830000Y-59780000D03*
D26*
X64830000Y-60480000D03*
D27*
X65530000Y-57680000D03*
X65530000Y-59080000D03*
X65530000Y-60480000D03*
D26*
X66230000Y-57680000D03*
D27*
X66230000Y-58380000D03*
D26*
X66230000Y-59080000D03*
D27*
X66230000Y-59780000D03*
D26*
X66230000Y-60480000D03*
D27*
X66930000Y-57680000D03*
X66930000Y-59080000D03*
X66930000Y-60480000D03*
D26*
X67630000Y-57680000D03*
D27*
X67630000Y-58380000D03*
D26*
X67630000Y-59080000D03*
D27*
X67630000Y-59780000D03*
D26*
X67630000Y-60480000D03*
D28*
X70530000Y-79530000D03*
X71800000Y-79530000D03*
X73070000Y-79530000D03*
X74340000Y-79530000D03*
X75610000Y-79530000D03*
X76880000Y-79530000D03*
X78150000Y-79530000D03*
X79420000Y-79530000D03*
X79420000Y-74580000D03*
X78150000Y-74580000D03*
X76880000Y-74580000D03*
X75610000Y-74580000D03*
X74340000Y-74580000D03*
X73070000Y-74580000D03*
X71800000Y-74580000D03*
X70530000Y-74580000D03*
D13*
X56937500Y-54810000D03*
X54862500Y-54810000D03*
D20*
X81440000Y-76850000D03*
X81440000Y-74850000D03*
D29*
X72110000Y-84650000D03*
X77890000Y-84650000D03*
D30*
X71750000Y-83205000D03*
X72550000Y-83205000D03*
D31*
X73750000Y-83205000D03*
X74750000Y-83205000D03*
X75250000Y-83205000D03*
X76250000Y-83205000D03*
D30*
X77450000Y-83205000D03*
X78250000Y-83205000D03*
X78250000Y-83205000D03*
X77450000Y-83205000D03*
D31*
X76750000Y-83205000D03*
X75750000Y-83205000D03*
X74250000Y-83205000D03*
X73250000Y-83205000D03*
D30*
X72550000Y-83205000D03*
X71750000Y-83205000D03*
D32*
X70680000Y-84120000D03*
D33*
X70680000Y-88300000D03*
D32*
X79320000Y-84120000D03*
D33*
X79320000Y-88300000D03*
D19*
X81440000Y-78840000D03*
X81440000Y-80840000D03*
D13*
X68767500Y-75710000D03*
X66692500Y-75710000D03*
D17*
X66300000Y-85330000D03*
X66300000Y-87405000D03*
D34*
X80560000Y-52830000D03*
D35*
X80560000Y-55370000D03*
X80560000Y-57910000D03*
X80560000Y-60450000D03*
X80560000Y-62990000D03*
X80560000Y-65530000D03*
%LPD*%
M02*
