G04 #@! TF.GenerationSoftware,KiCad,Pcbnew,10.0.6*
G04 #@! TF.CreationDate,2026-09-04T16:18:07-04:00*
G04 #@! TF.ProjectId,KiCAD_ESP32_Sensor,4b694341-445f-4455-9350-33325f53656e,rev?*
G04 #@! TF.SameCoordinates,Original*
G04 #@! TF.FileFunction,Copper,L1,Top*
G04 #@! TF.FilePolarity,Positive*
%FSLAX46Y46*%
G04 Gerber Fmt 4.6, Leading zero omitted, Abs format (unit mm)*
G04 Created by KiCad (PCBNEW 10.0.6) date 2026-09-04 16:18:07*
%MOMM*%
%LPD*%
G01*
G04 APERTURE LIST*
G04 Aperture macros list*
%AMRoundRect*
0 Rectangle with rounded corners*
0 $1 Rounding radius*
0 $2 $3 $4 $5 $6 $7 $8 $9 X,Y pos of 4 corners*
0 Add a 4 corners polygon primitive as box body*
4,1,4,$2,$3,$4,$5,$6,$7,$8,$9,$2,$3,0*
0 Add four circle primitives for the rounded corners*
1,1,$1+$1,$2,$3*
1,1,$1+$1,$4,$5*
1,1,$1+$1,$6,$7*
1,1,$1+$1,$8,$9*
0 Add four rect primitives between the rounded corners*
20,1,$1+$1,$2,$3,$4,$5,0*
20,1,$1+$1,$4,$5,$6,$7,0*
20,1,$1+$1,$6,$7,$8,$9,0*
20,1,$1+$1,$8,$9,$2,$3,0*%
G04 Aperture macros list end*
G04 #@! TA.AperFunction,SMDPad,CuDef*
%ADD10C,1.500000*%
G04 #@! TD*
G04 #@! TA.AperFunction,SMDPad,CuDef*
%ADD11RoundRect,0.250000X0.337500X0.475000X-0.337500X0.475000X-0.337500X-0.475000X0.337500X-0.475000X0*%
G04 #@! TD*
G04 #@! TA.AperFunction,SMDPad,CuDef*
%ADD12RoundRect,0.250000X0.350000X0.450000X-0.350000X0.450000X-0.350000X-0.450000X0.350000X-0.450000X0*%
G04 #@! TD*
G04 #@! TA.AperFunction,SMDPad,CuDef*
%ADD13RoundRect,0.250000X0.475000X-0.337500X0.475000X0.337500X-0.475000X0.337500X-0.475000X-0.337500X0*%
G04 #@! TD*
G04 #@! TA.AperFunction,SMDPad,CuDef*
%ADD14RoundRect,0.250000X-0.337500X-0.475000X0.337500X-0.475000X0.337500X0.475000X-0.337500X0.475000X0*%
G04 #@! TD*
G04 #@! TA.AperFunction,SMDPad,CuDef*
%ADD15RoundRect,0.250000X-0.475000X0.337500X-0.475000X-0.337500X0.475000X-0.337500X0.475000X0.337500X0*%
G04 #@! TD*
G04 #@! TA.AperFunction,SMDPad,CuDef*
%ADD16RoundRect,0.150000X0.150000X-0.587500X0.150000X0.587500X-0.150000X0.587500X-0.150000X-0.587500X0*%
G04 #@! TD*
G04 #@! TA.AperFunction,SMDPad,CuDef*
%ADD17RoundRect,0.250000X-0.450000X0.350000X-0.450000X-0.350000X0.450000X-0.350000X0.450000X0.350000X0*%
G04 #@! TD*
G04 #@! TA.AperFunction,SMDPad,CuDef*
%ADD18RoundRect,0.250000X0.450000X-0.350000X0.450000X0.350000X-0.450000X0.350000X-0.450000X-0.350000X0*%
G04 #@! TD*
G04 #@! TA.AperFunction,SMDPad,CuDef*
%ADD19RoundRect,0.250000X-0.350000X-0.450000X0.350000X-0.450000X0.350000X0.450000X-0.350000X0.450000X0*%
G04 #@! TD*
G04 #@! TA.AperFunction,SMDPad,CuDef*
%ADD20RoundRect,0.375000X0.625000X0.375000X-0.625000X0.375000X-0.625000X-0.375000X0.625000X-0.375000X0*%
G04 #@! TD*
G04 #@! TA.AperFunction,SMDPad,CuDef*
%ADD21RoundRect,0.500000X0.500000X1.400000X-0.500000X1.400000X-0.500000X-1.400000X0.500000X-1.400000X0*%
G04 #@! TD*
G04 #@! TA.AperFunction,SMDPad,CuDef*
%ADD22R,1.500000X0.900000*%
G04 #@! TD*
G04 #@! TA.AperFunction,SMDPad,CuDef*
%ADD23R,0.900000X1.500000*%
G04 #@! TD*
G04 #@! TA.AperFunction,HeatsinkPad*
%ADD24R,0.900000X0.900000*%
G04 #@! TD*
G04 #@! TA.AperFunction,HeatsinkPad*
%ADD25C,0.600000*%
G04 #@! TD*
G04 #@! TA.AperFunction,SMDPad,CuDef*
%ADD26RoundRect,0.150000X0.150000X-0.825000X0.150000X0.825000X-0.150000X0.825000X-0.150000X-0.825000X0*%
G04 #@! TD*
G04 #@! TA.AperFunction,SMDPad,CuDef*
%ADD27RoundRect,0.150000X-0.150000X-0.575000X0.150000X-0.575000X0.150000X0.575000X-0.150000X0.575000X0*%
G04 #@! TD*
G04 #@! TA.AperFunction,SMDPad,CuDef*
%ADD28RoundRect,0.075000X-0.075000X-0.650000X0.075000X-0.650000X0.075000X0.650000X-0.075000X0.650000X0*%
G04 #@! TD*
G04 #@! TA.AperFunction,ComponentPad*
%ADD29O,1.000000X2.100000*%
G04 #@! TD*
G04 #@! TA.AperFunction,ComponentPad*
%ADD30O,1.000000X1.600000*%
G04 #@! TD*
G04 #@! TA.AperFunction,ComponentPad*
%ADD31R,1.700000X1.700000*%
G04 #@! TD*
G04 #@! TA.AperFunction,ComponentPad*
%ADD32C,1.700000*%
G04 #@! TD*
G04 #@! TA.AperFunction,ViaPad*
%ADD33C,0.600000*%
G04 #@! TD*
G04 #@! TA.AperFunction,Conductor*
%ADD34C,0.250000*%
G04 #@! TD*
G04 #@! TA.AperFunction,Conductor*
%ADD35C,0.500000*%
G04 #@! TD*
G04 APERTURE END LIST*
D10*
X54930000Y-65650000D03*
X62730000Y-80240000D03*
X81830000Y-69940000D03*
X53820000Y-79630000D03*
X63140000Y-76600000D03*
D11*
X56937500Y-52700000D03*
X54862500Y-52700000D03*
X56947500Y-56950000D03*
X54872500Y-56950000D03*
D12*
X58300000Y-76080000D03*
X56300000Y-76080000D03*
D13*
X54990000Y-63115000D03*
X54990000Y-61040000D03*
D14*
X63762500Y-83030000D03*
X65837500Y-83030000D03*
D15*
X64000000Y-85330000D03*
X64000000Y-87405000D03*
D16*
X54210000Y-73837500D03*
X56110000Y-73837500D03*
X55160000Y-71962500D03*
D12*
X56890000Y-59090000D03*
X54890000Y-59090000D03*
D17*
X81580000Y-84280000D03*
X81580000Y-86280000D03*
D14*
X66702500Y-77920000D03*
X68777500Y-77920000D03*
D18*
X79340000Y-71440000D03*
X79340000Y-69440000D03*
D19*
X56490000Y-79030000D03*
X58490000Y-79030000D03*
D18*
X68490000Y-87330000D03*
X68490000Y-85330000D03*
D20*
X61450000Y-87580000D03*
X61450000Y-85280000D03*
D21*
X55150000Y-85280000D03*
D20*
X61450000Y-82980000D03*
D16*
X58130000Y-73827500D03*
X60030000Y-73827500D03*
X59080000Y-71952500D03*
D22*
X58980000Y-51360000D03*
X58980000Y-52630000D03*
X58980000Y-53900000D03*
X58980000Y-55170000D03*
X58980000Y-56440000D03*
X58980000Y-57710000D03*
X58980000Y-58980000D03*
X58980000Y-60250000D03*
X58980000Y-61520000D03*
X58980000Y-62790000D03*
X58980000Y-64060000D03*
X58980000Y-65330000D03*
X58980000Y-66600000D03*
X58980000Y-67870000D03*
D23*
X62015000Y-69120000D03*
X63285000Y-69120000D03*
X64555000Y-69120000D03*
X65825000Y-69120000D03*
X67095000Y-69120000D03*
X68365000Y-69120000D03*
X69635000Y-69120000D03*
X70905000Y-69120000D03*
X72175000Y-69120000D03*
X73445000Y-69120000D03*
D22*
X76480000Y-67870000D03*
X76480000Y-66600000D03*
X76480000Y-65330000D03*
X76480000Y-64060000D03*
X76480000Y-62790000D03*
X76480000Y-61520000D03*
X76480000Y-60250000D03*
X76480000Y-58980000D03*
X76480000Y-57710000D03*
X76480000Y-56440000D03*
X76480000Y-55170000D03*
X76480000Y-53900000D03*
X76480000Y-52630000D03*
X76480000Y-51360000D03*
D24*
X64830000Y-57680000D03*
D25*
X64830000Y-58380000D03*
D24*
X64830000Y-59080000D03*
D25*
X64830000Y-59780000D03*
D24*
X64830000Y-60480000D03*
D25*
X65530000Y-57680000D03*
X65530000Y-59080000D03*
X65530000Y-60480000D03*
D24*
X66230000Y-57680000D03*
D25*
X66230000Y-58380000D03*
D24*
X66230000Y-59080000D03*
D25*
X66230000Y-59780000D03*
D24*
X66230000Y-60480000D03*
D25*
X66930000Y-57680000D03*
X66930000Y-59080000D03*
X66930000Y-60480000D03*
D24*
X67630000Y-57680000D03*
D25*
X67630000Y-58380000D03*
D24*
X67630000Y-59080000D03*
D25*
X67630000Y-59780000D03*
D24*
X67630000Y-60480000D03*
D26*
X70530000Y-79530000D03*
X71800000Y-79530000D03*
X73070000Y-79530000D03*
X74340000Y-79530000D03*
X75610000Y-79530000D03*
X76880000Y-79530000D03*
X78150000Y-79530000D03*
X79420000Y-79530000D03*
X79420000Y-74580000D03*
X78150000Y-74580000D03*
X76880000Y-74580000D03*
X75610000Y-74580000D03*
X74340000Y-74580000D03*
X73070000Y-74580000D03*
X71800000Y-74580000D03*
X70530000Y-74580000D03*
D11*
X56937500Y-54810000D03*
X54862500Y-54810000D03*
D18*
X81440000Y-76850000D03*
X81440000Y-74850000D03*
D27*
X71750000Y-83205000D03*
X72550000Y-83205000D03*
D28*
X73750000Y-83205000D03*
X74750000Y-83205000D03*
X75250000Y-83205000D03*
X76250000Y-83205000D03*
D27*
X77450000Y-83205000D03*
X78250000Y-83205000D03*
X78250000Y-83205000D03*
X77450000Y-83205000D03*
D28*
X76750000Y-83205000D03*
X75750000Y-83205000D03*
X74250000Y-83205000D03*
X73250000Y-83205000D03*
D27*
X72550000Y-83205000D03*
X71750000Y-83205000D03*
D29*
X70680000Y-84120000D03*
D30*
X70680000Y-88300000D03*
D29*
X79320000Y-84120000D03*
D30*
X79320000Y-88300000D03*
D17*
X81440000Y-78840000D03*
X81440000Y-80840000D03*
D11*
X68767500Y-75710000D03*
X66692500Y-75710000D03*
D15*
X66300000Y-85330000D03*
X66300000Y-87405000D03*
D31*
X80560000Y-52830000D03*
D32*
X80560000Y-55370000D03*
X80560000Y-57910000D03*
X80560000Y-60450000D03*
X80560000Y-62990000D03*
X80560000Y-65530000D03*
D33*
X52970000Y-63920000D03*
X56060000Y-80670000D03*
X60370000Y-80710000D03*
X82430000Y-88290000D03*
X78620000Y-81310000D03*
X70500000Y-77640000D03*
X70510000Y-76710000D03*
X57480000Y-69540000D03*
X82900000Y-52910000D03*
X67190000Y-83800000D03*
X65330000Y-80460000D03*
X82900000Y-73570000D03*
X82890000Y-79710000D03*
X64750000Y-73770000D03*
X73875000Y-71595000D03*
X62760000Y-64490000D03*
X71350000Y-85520000D03*
X83440000Y-82450000D03*
X71570000Y-54350000D03*
X76960000Y-72660000D03*
X71540000Y-64500000D03*
X68060000Y-83030000D03*
X78510000Y-85490000D03*
X81580000Y-82440000D03*
X69080000Y-83040000D03*
X62720000Y-54470000D03*
X72330000Y-71370000D03*
X57420000Y-70760000D03*
X60670000Y-54850000D03*
X56730000Y-60990000D03*
X72604326Y-83928012D03*
X77395674Y-83928011D03*
X60838750Y-71416250D03*
X70570000Y-71385000D03*
X62770000Y-72010000D03*
X71470000Y-72020000D03*
X71825000Y-77870000D03*
X74960000Y-56480000D03*
X73100000Y-76820000D03*
X74930000Y-55200000D03*
X74240000Y-81370000D03*
X76910000Y-81330000D03*
X54890000Y-68870000D03*
D34*
X80780000Y-69440000D02*
X79340000Y-69440000D01*
X81280000Y-69940000D02*
X80780000Y-69440000D01*
X81830000Y-69940000D02*
X81280000Y-69940000D01*
D35*
X53775000Y-63115000D02*
X52970000Y-63920000D01*
X54990000Y-63115000D02*
X53775000Y-63115000D01*
X63762500Y-81272500D02*
X63762500Y-82107500D01*
X62730000Y-80240000D02*
X63762500Y-81272500D01*
X65220000Y-76600000D02*
X65330000Y-76490000D01*
X63140000Y-76600000D02*
X65220000Y-76600000D01*
X65330000Y-76490000D02*
X65330000Y-74350000D01*
X65330000Y-74350000D02*
X64750000Y-73770000D01*
X65330000Y-80460000D02*
X65330000Y-76490000D01*
X79185000Y-71595000D02*
X79340000Y-71440000D01*
X73875000Y-71595000D02*
X79185000Y-71595000D01*
D34*
X76480000Y-68590000D02*
X76480000Y-67870000D01*
X79130000Y-69320000D02*
X77210000Y-69320000D01*
X79340000Y-69440000D02*
X79250000Y-69440000D01*
D35*
X81790000Y-73570000D02*
X82900000Y-73570000D01*
X79750000Y-71530000D02*
X81790000Y-73570000D01*
D34*
X77210000Y-69320000D02*
X76480000Y-68590000D01*
D35*
X79430000Y-71530000D02*
X79750000Y-71530000D01*
X79340000Y-71440000D02*
X79430000Y-71530000D01*
D34*
X79250000Y-69440000D02*
X79130000Y-69320000D01*
X60030000Y-76930000D02*
X60030000Y-73827500D01*
X58260000Y-78700000D02*
X60030000Y-76930000D01*
X58260000Y-79050000D02*
X58260000Y-78700000D01*
X56260000Y-78800000D02*
X54210000Y-76750000D01*
X56260000Y-79050000D02*
X56260000Y-78800000D01*
X54210000Y-76750000D02*
X54210000Y-73837500D01*
X56730000Y-65620000D02*
X56730000Y-61165000D01*
X56700000Y-65650000D02*
X56730000Y-65620000D01*
X54930000Y-65650000D02*
X56700000Y-65650000D01*
X56730000Y-69385000D02*
X56730000Y-66700000D01*
D35*
X78250000Y-81680000D02*
X78620000Y-81310000D01*
X78250000Y-83205000D02*
X78250000Y-81680000D01*
X70220000Y-77920000D02*
X70500000Y-77640000D01*
X68777500Y-77920000D02*
X70220000Y-77920000D01*
X69510000Y-75710000D02*
X70510000Y-76710000D01*
X68767500Y-75710000D02*
X69510000Y-75710000D01*
X64470000Y-81400000D02*
X63762500Y-82107500D01*
X72550000Y-82110000D02*
X71840000Y-81400000D01*
X71840000Y-81400000D02*
X64470000Y-81400000D01*
X63762500Y-82107500D02*
X63762500Y-83030000D01*
X72550000Y-83205000D02*
X72550000Y-82110000D01*
X56890000Y-59090000D02*
X56890000Y-52747500D01*
X66652500Y-75180000D02*
X66652500Y-79352500D01*
X82890000Y-79710000D02*
X81670000Y-80930000D01*
X55150000Y-85280000D02*
X61450000Y-85280000D01*
X57480000Y-59680000D02*
X57480000Y-69540000D01*
X73794645Y-76010000D02*
X71270000Y-76010000D01*
X70530000Y-74580000D02*
X69760000Y-73810000D01*
X65330000Y-80460000D02*
X65545000Y-80460000D01*
X64750000Y-73770000D02*
X64740000Y-73770000D01*
X82900000Y-52910000D02*
X80640000Y-52910000D01*
X74365000Y-78875000D02*
X74365000Y-76580355D01*
X68022500Y-73810000D02*
X66652500Y-75180000D01*
X66300000Y-85330000D02*
X66300000Y-84690000D01*
X74365000Y-76580355D02*
X73794645Y-76010000D01*
X66300000Y-84690000D02*
X67190000Y-83800000D01*
X69760000Y-73810000D02*
X68022500Y-73810000D01*
X61450000Y-85280000D02*
X63950000Y-85280000D01*
X64000000Y-85330000D02*
X66300000Y-85330000D01*
X65545000Y-80460000D02*
X66652500Y-79352500D01*
X56890000Y-59090000D02*
X57480000Y-59680000D01*
X81640000Y-74830000D02*
X82900000Y-73570000D01*
X57007500Y-52630000D02*
X58980000Y-52630000D01*
X71270000Y-76010000D02*
X70530000Y-75270000D01*
X78250000Y-83205000D02*
X78405000Y-83205000D01*
X79005000Y-82450000D02*
X81570000Y-82450000D01*
X69560000Y-82460000D02*
X69080000Y-82940000D01*
X78250000Y-83205000D02*
X79005000Y-82450000D01*
X78405000Y-83205000D02*
X79320000Y-84120000D01*
X71005000Y-82460000D02*
X69560000Y-82460000D01*
X81570000Y-82450000D02*
X81580000Y-82440000D01*
X71750000Y-83205000D02*
X71595000Y-83205000D01*
X69080000Y-82940000D02*
X69080000Y-83040000D01*
X70680000Y-84850000D02*
X71350000Y-85520000D01*
X68060000Y-83030000D02*
X65837500Y-83030000D01*
X71750000Y-83205000D02*
X71005000Y-82460000D01*
X79320000Y-84680000D02*
X78510000Y-85490000D01*
X71595000Y-83205000D02*
X70680000Y-84120000D01*
D34*
X58260000Y-76230000D02*
X58260000Y-73957500D01*
X56110000Y-71730000D02*
X56110000Y-73837500D01*
X74365000Y-73385000D02*
X74365000Y-73925000D01*
X72350000Y-71370000D02*
X74365000Y-73385000D01*
X56170000Y-76140000D02*
X56170000Y-73897500D01*
X57080000Y-70760000D02*
X56110000Y-71730000D01*
X72330000Y-71370000D02*
X72350000Y-71370000D01*
X57420000Y-70760000D02*
X57080000Y-70760000D01*
X56680000Y-61040000D02*
X56730000Y-60990000D01*
X54890000Y-59090000D02*
X54890000Y-60940000D01*
X54990000Y-61040000D02*
X56680000Y-61040000D01*
X60670000Y-54850000D02*
X59720000Y-53900000D01*
X56730000Y-66700000D02*
X56730000Y-65620000D01*
X55160000Y-71962500D02*
X55160000Y-70955000D01*
X55160000Y-70955000D02*
X56730000Y-69385000D01*
X56730000Y-61165000D02*
X56905000Y-60990000D01*
X59720000Y-53900000D02*
X58980000Y-53900000D01*
D35*
X77450000Y-83205000D02*
X77450000Y-83873685D01*
X63762500Y-83030000D02*
X61500000Y-83030000D01*
X72550000Y-83873686D02*
X72550000Y-83205000D01*
X72604326Y-83928012D02*
X72550000Y-83873686D01*
X77450000Y-83873685D02*
X77395674Y-83928011D01*
D34*
X77470000Y-86210000D02*
X81130000Y-86210000D01*
X76750000Y-85490000D02*
X77470000Y-86210000D01*
X76750000Y-83205000D02*
X76750000Y-85490000D01*
X59616250Y-71416250D02*
X59080000Y-71952500D01*
X77850000Y-70530000D02*
X71916518Y-70530000D01*
X71916518Y-70530000D02*
X71061518Y-71385000D01*
X71061518Y-71385000D02*
X70570000Y-71385000D01*
X77960000Y-70420000D02*
X77850000Y-70530000D01*
X60838750Y-71416250D02*
X59616250Y-71416250D01*
X77960000Y-70420000D02*
X78950000Y-69430000D01*
X73095000Y-73488884D02*
X73095000Y-73925000D01*
X71470000Y-72020000D02*
X71626116Y-72020000D01*
X61488750Y-73291250D02*
X60566250Y-73291250D01*
X60566250Y-73291250D02*
X60030000Y-73827500D01*
X71626116Y-72020000D02*
X73095000Y-73488884D01*
X62770000Y-72010000D02*
X61488750Y-73291250D01*
X69450000Y-86290000D02*
X72980000Y-86290000D01*
X73750000Y-85520000D02*
X73750000Y-83205000D01*
X68490000Y-85330000D02*
X69450000Y-86290000D01*
X72980000Y-86290000D02*
X73750000Y-85520000D01*
X83525000Y-74945000D02*
X83525000Y-63415000D01*
X77820000Y-57710000D02*
X76480000Y-57710000D01*
X83525000Y-63415000D02*
X80560000Y-60450000D01*
X80560000Y-60450000D02*
X77820000Y-57710000D01*
X81640000Y-76830000D02*
X83525000Y-74945000D01*
X74960000Y-56480000D02*
X76440000Y-56480000D01*
X71825000Y-77870000D02*
X71825000Y-78875000D01*
X73095000Y-76825000D02*
X73100000Y-76820000D01*
X73095000Y-78875000D02*
X73095000Y-76825000D01*
X74930000Y-55200000D02*
X76450000Y-55200000D01*
X80560000Y-57400000D02*
X77060000Y-53900000D01*
X83980000Y-61330000D02*
X80560000Y-57910000D01*
X81670000Y-78930000D02*
X83980000Y-76620000D01*
X83980000Y-76620000D02*
X83980000Y-61330000D01*
X75007236Y-82155000D02*
X75542764Y-82155000D01*
X75750000Y-82362236D02*
X75750000Y-83205000D01*
X74750000Y-82412236D02*
X75007236Y-82155000D01*
X75542764Y-82155000D02*
X75635000Y-82247236D01*
X74750000Y-83205000D02*
X74750000Y-82412236D01*
X75635000Y-82247236D02*
X75635000Y-78875000D01*
X75542764Y-82155000D02*
X75750000Y-82362236D01*
X76905000Y-81325000D02*
X76905000Y-78875000D01*
X74992764Y-84255000D02*
X75250000Y-83997764D01*
X75250000Y-83997764D02*
X75250000Y-83205000D01*
X74250000Y-83205000D02*
X74250000Y-83997764D01*
X74240000Y-81730000D02*
X74250000Y-81740000D01*
X76910000Y-81330000D02*
X76905000Y-81325000D01*
X74250000Y-83997764D02*
X74507236Y-84255000D01*
X74250000Y-81740000D02*
X74250000Y-83205000D01*
X74240000Y-81370000D02*
X74240000Y-81730000D01*
X74507236Y-84255000D02*
X74992764Y-84255000D01*
G04 #@! TA.AperFunction,Conductor*
G36*
X57676374Y-50720185D02*
G01*
X57722129Y-50772989D01*
X57732625Y-50837755D01*
X57730000Y-50862171D01*
X57730000Y-51110000D01*
X60230000Y-51110000D01*
X60230000Y-50862172D01*
X60229999Y-50862171D01*
X60227375Y-50837755D01*
X60239781Y-50768995D01*
X60287392Y-50717858D01*
X60350665Y-50700500D01*
X75109335Y-50700500D01*
X75176374Y-50720185D01*
X75222129Y-50772989D01*
X75232625Y-50837755D01*
X75230000Y-50862171D01*
X75230000Y-51110000D01*
X77730000Y-51110000D01*
X77730000Y-50862172D01*
X77729999Y-50862171D01*
X77727375Y-50837755D01*
X77739781Y-50768995D01*
X77787392Y-50717858D01*
X77850665Y-50700500D01*
X83995500Y-50700500D01*
X84062539Y-50720185D01*
X84108294Y-50772989D01*
X84119500Y-50824500D01*
X84119500Y-60285547D01*
X84099815Y-60352586D01*
X84047011Y-60398341D01*
X83977853Y-60408285D01*
X83914297Y-60379260D01*
X83907819Y-60373228D01*
X81902428Y-58367837D01*
X81868943Y-58306514D01*
X81872178Y-58241837D01*
X81877246Y-58226243D01*
X81910500Y-58016287D01*
X81910500Y-57803713D01*
X81877246Y-57593757D01*
X81811557Y-57391588D01*
X81715051Y-57202184D01*
X81715049Y-57202181D01*
X81715048Y-57202179D01*
X81590109Y-57030213D01*
X81439786Y-56879890D01*
X81267817Y-56754949D01*
X81258504Y-56750204D01*
X81207707Y-56702230D01*
X81190912Y-56634409D01*
X81213449Y-56568274D01*
X81258507Y-56529232D01*
X81267555Y-56524622D01*
X81321716Y-56485270D01*
X81321717Y-56485270D01*
X80689408Y-55852962D01*
X80752993Y-55835925D01*
X80867007Y-55770099D01*
X80960099Y-55677007D01*
X81025925Y-55562993D01*
X81042962Y-55499408D01*
X81675270Y-56131717D01*
X81675270Y-56131716D01*
X81714622Y-56077554D01*
X81811095Y-55888217D01*
X81876757Y-55686130D01*
X81876757Y-55686127D01*
X81910000Y-55476246D01*
X81910000Y-55263753D01*
X81876757Y-55053872D01*
X81876757Y-55053869D01*
X81811095Y-54851782D01*
X81714624Y-54662449D01*
X81675270Y-54608282D01*
X81675269Y-54608282D01*
X81042962Y-55240590D01*
X81025925Y-55177007D01*
X80960099Y-55062993D01*
X80867007Y-54969901D01*
X80752993Y-54904075D01*
X80689409Y-54887037D01*
X81359627Y-54216818D01*
X81420950Y-54183333D01*
X81447307Y-54180499D01*
X81457872Y-54180499D01*
X81517483Y-54174091D01*
X81652331Y-54123796D01*
X81767546Y-54037546D01*
X81853796Y-53922331D01*
X81904091Y-53787483D01*
X81905837Y-53771242D01*
X81932574Y-53706694D01*
X81989967Y-53666846D01*
X82029126Y-53660500D01*
X82595396Y-53660500D01*
X82642844Y-53669937D01*
X82666503Y-53679737D01*
X82666508Y-53679738D01*
X82666511Y-53679739D01*
X82821153Y-53710499D01*
X82821156Y-53710500D01*
X82821158Y-53710500D01*
X82978844Y-53710500D01*
X82978845Y-53710499D01*
X83133497Y-53679737D01*
X83279179Y-53619394D01*
X83410289Y-53531789D01*
X83521789Y-53420289D01*
X83609394Y-53289179D01*
X83669737Y-53143497D01*
X83700500Y-52988842D01*
X83700500Y-52831158D01*
X83700500Y-52831155D01*
X83700499Y-52831153D01*
X83669738Y-52676510D01*
X83669737Y-52676503D01*
X83669735Y-52676498D01*
X83609397Y-52530827D01*
X83609390Y-52530814D01*
X83521789Y-52399711D01*
X83521786Y-52399707D01*
X83410292Y-52288213D01*
X83410288Y-52288210D01*
X83279185Y-52200609D01*
X83279172Y-52200602D01*
X83133501Y-52140264D01*
X83133489Y-52140261D01*
X82978845Y-52109500D01*
X82978842Y-52109500D01*
X82821158Y-52109500D01*
X82821155Y-52109500D01*
X82666511Y-52140260D01*
X82666506Y-52140262D01*
X82666504Y-52140262D01*
X82666503Y-52140263D01*
X82642844Y-52150062D01*
X82595396Y-52159500D01*
X82034499Y-52159500D01*
X81967460Y-52139815D01*
X81921705Y-52087011D01*
X81910499Y-52035500D01*
X81910499Y-51932129D01*
X81910498Y-51932123D01*
X81910497Y-51932116D01*
X81904091Y-51872517D01*
X81898618Y-51857844D01*
X81853797Y-51737671D01*
X81853793Y-51737664D01*
X81767547Y-51622455D01*
X81767544Y-51622452D01*
X81652335Y-51536206D01*
X81652328Y-51536202D01*
X81517482Y-51485908D01*
X81517483Y-51485908D01*
X81457883Y-51479501D01*
X81457881Y-51479500D01*
X81457873Y-51479500D01*
X81457864Y-51479500D01*
X79662129Y-51479500D01*
X79662123Y-51479501D01*
X79602516Y-51485908D01*
X79467671Y-51536202D01*
X79467664Y-51536206D01*
X79352455Y-51622452D01*
X79352452Y-51622455D01*
X79266206Y-51737664D01*
X79266202Y-51737671D01*
X79215908Y-51872517D01*
X79209501Y-51932116D01*
X79209501Y-51932123D01*
X79209500Y-51932135D01*
X79209500Y-53727870D01*
X79209501Y-53727876D01*
X79215908Y-53787483D01*
X79266202Y-53922328D01*
X79266206Y-53922335D01*
X79352452Y-54037544D01*
X79352455Y-54037547D01*
X79467664Y-54123793D01*
X79467671Y-54123797D01*
X79512618Y-54140561D01*
X79602517Y-54174091D01*
X79662127Y-54180500D01*
X79672685Y-54180499D01*
X79739723Y-54200179D01*
X79760372Y-54216818D01*
X80430591Y-54887037D01*
X80367007Y-54904075D01*
X80252993Y-54969901D01*
X80159901Y-55062993D01*
X80094075Y-55177007D01*
X80077037Y-55240591D01*
X79444728Y-54608282D01*
X79444727Y-54608282D01*
X79405380Y-54662439D01*
X79308905Y-54851781D01*
X79270265Y-54970701D01*
X79230827Y-55028376D01*
X79166468Y-55055574D01*
X79097622Y-55043659D01*
X79064653Y-55020063D01*
X77766818Y-53722228D01*
X77733333Y-53660905D01*
X77730499Y-53634547D01*
X77730499Y-53402129D01*
X77730498Y-53402123D01*
X77730497Y-53402116D01*
X77724091Y-53342517D01*
X77711340Y-53308332D01*
X77706357Y-53238642D01*
X77711340Y-53221669D01*
X77724091Y-53187483D01*
X77730500Y-53127873D01*
X77730499Y-52132128D01*
X77724091Y-52072517D01*
X77711073Y-52037616D01*
X77709458Y-52015024D01*
X77703260Y-51993237D01*
X77706605Y-51975134D01*
X77706090Y-51967926D01*
X77708578Y-51958346D01*
X77725037Y-51903990D01*
X77729998Y-51857846D01*
X77730000Y-51857827D01*
X77730000Y-51610000D01*
X75230000Y-51610000D01*
X75230000Y-51857844D01*
X75236401Y-51917372D01*
X75236403Y-51917379D01*
X75248925Y-51950952D01*
X75253909Y-52020643D01*
X75248925Y-52037617D01*
X75235909Y-52072514D01*
X75235908Y-52072516D01*
X75229501Y-52132116D01*
X75229501Y-52132123D01*
X75229500Y-52132135D01*
X75229500Y-53127870D01*
X75229501Y-53127876D01*
X75235908Y-53187481D01*
X75248659Y-53221669D01*
X75253642Y-53291361D01*
X75248659Y-53308331D01*
X75235908Y-53342518D01*
X75229501Y-53402116D01*
X75229501Y-53402123D01*
X75229500Y-53402135D01*
X75229500Y-54292297D01*
X75209815Y-54359336D01*
X75157011Y-54405091D01*
X75087853Y-54415035D01*
X75081309Y-54413914D01*
X75008845Y-54399500D01*
X75008842Y-54399500D01*
X74851158Y-54399500D01*
X74851155Y-54399500D01*
X74696510Y-54430261D01*
X74696498Y-54430264D01*
X74550827Y-54490602D01*
X74550814Y-54490609D01*
X74419711Y-54578210D01*
X74419707Y-54578213D01*
X74308213Y-54689707D01*
X74308210Y-54689711D01*
X74220609Y-54820814D01*
X74220602Y-54820827D01*
X74160264Y-54966498D01*
X74160261Y-54966510D01*
X74129500Y-55121153D01*
X74129500Y-55278846D01*
X74160261Y-55433489D01*
X74160264Y-55433501D01*
X74220602Y-55579172D01*
X74220609Y-55579185D01*
X74308210Y-55710288D01*
X74308213Y-55710292D01*
X74365240Y-55767319D01*
X74398725Y-55828642D01*
X74393741Y-55898334D01*
X74365240Y-55942681D01*
X74338213Y-55969707D01*
X74338210Y-55969711D01*
X74250609Y-56100814D01*
X74250602Y-56100827D01*
X74190264Y-56246498D01*
X74190261Y-56246510D01*
X74159500Y-56401153D01*
X74159500Y-56558846D01*
X74190261Y-56713489D01*
X74190264Y-56713501D01*
X74250602Y-56859172D01*
X74250609Y-56859185D01*
X74338210Y-56990288D01*
X74338213Y-56990292D01*
X74449707Y-57101786D01*
X74449711Y-57101789D01*
X74580814Y-57189390D01*
X74580827Y-57189397D01*
X74726498Y-57249735D01*
X74726503Y-57249737D01*
X74881153Y-57280499D01*
X74881156Y-57280500D01*
X74881158Y-57280500D01*
X75038843Y-57280500D01*
X75081308Y-57272053D01*
X75150899Y-57278280D01*
X75206077Y-57321142D01*
X75229322Y-57387032D01*
X75229500Y-57393670D01*
X75229500Y-58207870D01*
X75229501Y-58207876D01*
X75235908Y-58267481D01*
X75248659Y-58301669D01*
X75253642Y-58371361D01*
X75248659Y-58388331D01*
X75235908Y-58422518D01*
X75229501Y-58482116D01*
X75229501Y-58482123D01*
X75229500Y-58482135D01*
X75229500Y-59477870D01*
X75229501Y-59477876D01*
X75235908Y-59537481D01*
X75248659Y-59571669D01*
X75253642Y-59641361D01*
X75248659Y-59658331D01*
X75235908Y-59692518D01*
X75229501Y-59752116D01*
X75229501Y-59752123D01*
X75229500Y-59752135D01*
X75229500Y-60747870D01*
X75229501Y-60747876D01*
X75235908Y-60807481D01*
X75248659Y-60841669D01*
X75253642Y-60911361D01*
X75248659Y-60928331D01*
X75235908Y-60962518D01*
X75229501Y-61022116D01*
X75229501Y-61022123D01*
X75229500Y-61022135D01*
X75229500Y-62017870D01*
X75229501Y-62017876D01*
X75235908Y-62077481D01*
X75248659Y-62111669D01*
X75253642Y-62181361D01*
X75248659Y-62198331D01*
X75235908Y-62232518D01*
X75230569Y-62282184D01*
X75229501Y-62292123D01*
X75229500Y-62292135D01*
X75229500Y-63287870D01*
X75229501Y-63287876D01*
X75235908Y-63347481D01*
X75248659Y-63381669D01*
X75253642Y-63451361D01*
X75248659Y-63468331D01*
X75235908Y-63502518D01*
X75229501Y-63562116D01*
X75229501Y-63562123D01*
X75229500Y-63562135D01*
X75229500Y-64557870D01*
X75229501Y-64557876D01*
X75235908Y-64617481D01*
X75248659Y-64651669D01*
X75253642Y-64721361D01*
X75248659Y-64738331D01*
X75235908Y-64772518D01*
X75230569Y-64822184D01*
X75229501Y-64832123D01*
X75229500Y-64832135D01*
X75229500Y-65827870D01*
X75229501Y-65827876D01*
X75235908Y-65887481D01*
X75248659Y-65921669D01*
X75253642Y-65991361D01*
X75248659Y-66008331D01*
X75235908Y-66042518D01*
X75229501Y-66102116D01*
X75229501Y-66102123D01*
X75229500Y-66102135D01*
X75229500Y-67097870D01*
X75229501Y-67097876D01*
X75235908Y-67157481D01*
X75248659Y-67191669D01*
X75253642Y-67261361D01*
X75248659Y-67278331D01*
X75235908Y-67312518D01*
X75229501Y-67372116D01*
X75229501Y-67372123D01*
X75229500Y-67372135D01*
X75229500Y-68367870D01*
X75229501Y-68367876D01*
X75235908Y-68427483D01*
X75286202Y-68562328D01*
X75286206Y-68562335D01*
X75372452Y-68677544D01*
X75372455Y-68677547D01*
X75487664Y-68763793D01*
X75487671Y-68763797D01*
X75506088Y-68770666D01*
X75622517Y-68814091D01*
X75682127Y-68820500D01*
X75816201Y-68820499D01*
X75883240Y-68840183D01*
X75921564Y-68881714D01*
X75922303Y-68881221D01*
X75925438Y-68885913D01*
X75925557Y-68886042D01*
X75925687Y-68886285D01*
X75959707Y-68937198D01*
X75959709Y-68937201D01*
X75959711Y-68937203D01*
X75982562Y-68971403D01*
X75994143Y-68988735D01*
X76085586Y-69080178D01*
X76085608Y-69080198D01*
X76698229Y-69692819D01*
X76731714Y-69754142D01*
X76726730Y-69823834D01*
X76684858Y-69879767D01*
X76619394Y-69904184D01*
X76610548Y-69904500D01*
X74519500Y-69904500D01*
X74452461Y-69884815D01*
X74406706Y-69832011D01*
X74395500Y-69780500D01*
X74395499Y-68322129D01*
X74395498Y-68322123D01*
X74395146Y-68318851D01*
X74389091Y-68262517D01*
X74338884Y-68127906D01*
X74338797Y-68127671D01*
X74338793Y-68127664D01*
X74252547Y-68012455D01*
X74252544Y-68012452D01*
X74137335Y-67926206D01*
X74137328Y-67926202D01*
X74002482Y-67875908D01*
X74002483Y-67875908D01*
X73942883Y-67869501D01*
X73942881Y-67869500D01*
X73942873Y-67869500D01*
X73942864Y-67869500D01*
X72947129Y-67869500D01*
X72947123Y-67869501D01*
X72887518Y-67875908D01*
X72853331Y-67888659D01*
X72783639Y-67893642D01*
X72766669Y-67888659D01*
X72749140Y-67882121D01*
X72732483Y-67875909D01*
X72732482Y-67875908D01*
X72672883Y-67869501D01*
X72672881Y-67869500D01*
X72672873Y-67869500D01*
X72672864Y-67869500D01*
X71677129Y-67869500D01*
X71677123Y-67869501D01*
X71617518Y-67875908D01*
X71583331Y-67888659D01*
X71513639Y-67893642D01*
X71496669Y-67888659D01*
X71479140Y-67882121D01*
X71462483Y-67875909D01*
X71462482Y-67875908D01*
X71402883Y-67869501D01*
X71402881Y-67869500D01*
X71402873Y-67869500D01*
X71402864Y-67869500D01*
X70407129Y-67869500D01*
X70407123Y-67869501D01*
X70347518Y-67875908D01*
X70313331Y-67888659D01*
X70243639Y-67893642D01*
X70226669Y-67888659D01*
X70209140Y-67882121D01*
X70192483Y-67875909D01*
X70192482Y-67875908D01*
X70132883Y-67869501D01*
X70132881Y-67869500D01*
X70132873Y-67869500D01*
X70132864Y-67869500D01*
X69137129Y-67869500D01*
X69137123Y-67869501D01*
X69077518Y-67875908D01*
X69043331Y-67888659D01*
X68973639Y-67893642D01*
X68956669Y-67888659D01*
X68939140Y-67882121D01*
X68922483Y-67875909D01*
X68922482Y-67875908D01*
X68862883Y-67869501D01*
X68862881Y-67869500D01*
X68862873Y-67869500D01*
X68862864Y-67869500D01*
X67867129Y-67869500D01*
X67867123Y-67869501D01*
X67807518Y-67875908D01*
X67773331Y-67888659D01*
X67703639Y-67893642D01*
X67686669Y-67888659D01*
X67669140Y-67882121D01*
X67652483Y-67875909D01*
X67652482Y-67875908D01*
X67592883Y-67869501D01*
X67592881Y-67869500D01*
X67592873Y-67869500D01*
X67592864Y-67869500D01*
X66597129Y-67869500D01*
X66597123Y-67869501D01*
X66537518Y-67875908D01*
X66503331Y-67888659D01*
X66433639Y-67893642D01*
X66416669Y-67888659D01*
X66399140Y-67882121D01*
X66382483Y-67875909D01*
X66382482Y-67875908D01*
X66322883Y-67869501D01*
X66322881Y-67869500D01*
X66322873Y-67869500D01*
X66322864Y-67869500D01*
X65327129Y-67869500D01*
X65327123Y-67869501D01*
X65267518Y-67875908D01*
X65233331Y-67888659D01*
X65163639Y-67893642D01*
X65146669Y-67888659D01*
X65129140Y-67882121D01*
X65112483Y-67875909D01*
X65112482Y-67875908D01*
X65052883Y-67869501D01*
X65052881Y-67869500D01*
X65052873Y-67869500D01*
X65052864Y-67869500D01*
X64057129Y-67869500D01*
X64057123Y-67869501D01*
X63997518Y-67875908D01*
X63963331Y-67888659D01*
X63893639Y-67893642D01*
X63876669Y-67888659D01*
X63859140Y-67882121D01*
X63842483Y-67875909D01*
X63842482Y-67875908D01*
X63782883Y-67869501D01*
X63782881Y-67869500D01*
X63782873Y-67869500D01*
X63782864Y-67869500D01*
X62787129Y-67869500D01*
X62787123Y-67869501D01*
X62727520Y-67875908D01*
X62727517Y-67875908D01*
X62727517Y-67875909D01*
X62692620Y-67888925D01*
X62692617Y-67888926D01*
X62622925Y-67893909D01*
X62605952Y-67888925D01*
X62572379Y-67876403D01*
X62572372Y-67876401D01*
X62512844Y-67870000D01*
X62265000Y-67870000D01*
X62265000Y-70370000D01*
X62512828Y-70370000D01*
X62512844Y-70369999D01*
X62572372Y-70363598D01*
X62572375Y-70363597D01*
X62605949Y-70351075D01*
X62675640Y-70346089D01*
X62692619Y-70351075D01*
X62727511Y-70364089D01*
X62727512Y-70364089D01*
X62727517Y-70364091D01*
X62787127Y-70370500D01*
X63782872Y-70370499D01*
X63842483Y-70364091D01*
X63876667Y-70351340D01*
X63946358Y-70346357D01*
X63963327Y-70351338D01*
X63997517Y-70364091D01*
X64057127Y-70370500D01*
X65052872Y-70370499D01*
X65112483Y-70364091D01*
X65146667Y-70351340D01*
X65216358Y-70346357D01*
X65233327Y-70351338D01*
X65267517Y-70364091D01*
X65327127Y-70370500D01*
X66322872Y-70370499D01*
X66382483Y-70364091D01*
X66416667Y-70351340D01*
X66486358Y-70346357D01*
X66503327Y-70351338D01*
X66537517Y-70364091D01*
X66597127Y-70370500D01*
X67592872Y-70370499D01*
X67652483Y-70364091D01*
X67686667Y-70351340D01*
X67756358Y-70346357D01*
X67773327Y-70351338D01*
X67807517Y-70364091D01*
X67867127Y-70370500D01*
X68862872Y-70370499D01*
X68922483Y-70364091D01*
X68956667Y-70351340D01*
X69026358Y-70346357D01*
X69043327Y-70351338D01*
X69077517Y-70364091D01*
X69137127Y-70370500D01*
X70132872Y-70370499D01*
X70192483Y-70364091D01*
X70226667Y-70351340D01*
X70296358Y-70346357D01*
X70313327Y-70351338D01*
X70347517Y-70364091D01*
X70353712Y-70364757D01*
X70418262Y-70391492D01*
X70458112Y-70448883D01*
X70460608Y-70518708D01*
X70424958Y-70578798D01*
X70364653Y-70609663D01*
X70336505Y-70615262D01*
X70336498Y-70615264D01*
X70190827Y-70675602D01*
X70190814Y-70675609D01*
X70059711Y-70763210D01*
X70059707Y-70763213D01*
X69948213Y-70874707D01*
X69948210Y-70874711D01*
X69860609Y-71005814D01*
X69860602Y-71005827D01*
X69800264Y-71151498D01*
X69800261Y-71151510D01*
X69769500Y-71306153D01*
X69769500Y-71463846D01*
X69800261Y-71618489D01*
X69800264Y-71618501D01*
X69860602Y-71764172D01*
X69860609Y-71764185D01*
X69948210Y-71895288D01*
X69948213Y-71895292D01*
X70059707Y-72006786D01*
X70059711Y-72006789D01*
X70190814Y-72094390D01*
X70190827Y-72094397D01*
X70336498Y-72154735D01*
X70336503Y-72154737D01*
X70454700Y-72178248D01*
X70491153Y-72185499D01*
X70491156Y-72185500D01*
X70589244Y-72185500D01*
X70656283Y-72205185D01*
X70702038Y-72257989D01*
X70703805Y-72262048D01*
X70760602Y-72399172D01*
X70760609Y-72399185D01*
X70848210Y-72530288D01*
X70848213Y-72530292D01*
X70959707Y-72641786D01*
X70959711Y-72641789D01*
X71090814Y-72729390D01*
X71090827Y-72729397D01*
X71214321Y-72780549D01*
X71236503Y-72789737D01*
X71386131Y-72819500D01*
X71391153Y-72820499D01*
X71391156Y-72820500D01*
X71391158Y-72820500D01*
X71490664Y-72820500D01*
X71557703Y-72840185D01*
X71578345Y-72856819D01*
X71618271Y-72896745D01*
X71651756Y-72958068D01*
X71646772Y-73027760D01*
X71604900Y-73083693D01*
X71552875Y-73106407D01*
X71547431Y-73107401D01*
X71389606Y-73153254D01*
X71389603Y-73153255D01*
X71248137Y-73236917D01*
X71241969Y-73241702D01*
X71240072Y-73239256D01*
X71191358Y-73265857D01*
X71121666Y-73260873D01*
X71089296Y-73240069D01*
X71088031Y-73241702D01*
X71081862Y-73236917D01*
X70940396Y-73153255D01*
X70940393Y-73153254D01*
X70782573Y-73107402D01*
X70782567Y-73107401D01*
X70745701Y-73104500D01*
X70745694Y-73104500D01*
X70314306Y-73104500D01*
X70314298Y-73104500D01*
X70277432Y-73107401D01*
X70170837Y-73138370D01*
X70100968Y-73138170D01*
X70088791Y-73133854D01*
X69978917Y-73088343D01*
X69978907Y-73088340D01*
X69833920Y-73059500D01*
X69833918Y-73059500D01*
X67948582Y-73059500D01*
X67922320Y-73064724D01*
X67922319Y-73064724D01*
X67803595Y-73088339D01*
X67803583Y-73088342D01*
X67754197Y-73108798D01*
X67754198Y-73108799D01*
X67667008Y-73144914D01*
X67666998Y-73144919D01*
X67603128Y-73187597D01*
X67544082Y-73227049D01*
X67544079Y-73227052D01*
X66315735Y-74455395D01*
X66254412Y-74488880D01*
X66240655Y-74491072D01*
X66217101Y-74493478D01*
X66148408Y-74480708D01*
X66097524Y-74432827D01*
X66080500Y-74370120D01*
X66080500Y-74276079D01*
X66051659Y-74131092D01*
X66051658Y-74131091D01*
X66051658Y-74131087D01*
X66051656Y-74131082D01*
X65995087Y-73994511D01*
X65995085Y-73994507D01*
X65995084Y-73994505D01*
X65948973Y-73925495D01*
X65931341Y-73899106D01*
X65912954Y-73871586D01*
X65496071Y-73454703D01*
X65469191Y-73414475D01*
X65459394Y-73390821D01*
X65459389Y-73390814D01*
X65371789Y-73259710D01*
X65260292Y-73148213D01*
X65260288Y-73148210D01*
X65129185Y-73060609D01*
X65129172Y-73060602D01*
X64983501Y-73000264D01*
X64983489Y-73000261D01*
X64828845Y-72969500D01*
X64828842Y-72969500D01*
X64671158Y-72969500D01*
X64671155Y-72969500D01*
X64516510Y-73000261D01*
X64516498Y-73000264D01*
X64370827Y-73060602D01*
X64370814Y-73060609D01*
X64239711Y-73148210D01*
X64239707Y-73148213D01*
X64128213Y-73259707D01*
X64128210Y-73259711D01*
X64040609Y-73390814D01*
X64040602Y-73390827D01*
X63980264Y-73536498D01*
X63980261Y-73536510D01*
X63949500Y-73691153D01*
X63949500Y-73848846D01*
X63980261Y-74003489D01*
X63980264Y-74003501D01*
X64040602Y-74149172D01*
X64040609Y-74149185D01*
X64128210Y-74280288D01*
X64128213Y-74280292D01*
X64239710Y-74391789D01*
X64326816Y-74449991D01*
X64370821Y-74479394D01*
X64394475Y-74489191D01*
X64434703Y-74516071D01*
X64543181Y-74624549D01*
X64576666Y-74685872D01*
X64579500Y-74712230D01*
X64579500Y-75725500D01*
X64559815Y-75792539D01*
X64507011Y-75838294D01*
X64455500Y-75849500D01*
X64203614Y-75849500D01*
X64136575Y-75829815D01*
X64103297Y-75798387D01*
X64093828Y-75785354D01*
X63954648Y-75646174D01*
X63954646Y-75646172D01*
X63795405Y-75530476D01*
X63620029Y-75441117D01*
X63432826Y-75380290D01*
X63238422Y-75349500D01*
X63238417Y-75349500D01*
X63041583Y-75349500D01*
X63041578Y-75349500D01*
X62847173Y-75380290D01*
X62659970Y-75441117D01*
X62484594Y-75530476D01*
X62416455Y-75579983D01*
X62325354Y-75646172D01*
X62325352Y-75646174D01*
X62325351Y-75646174D01*
X62186174Y-75785351D01*
X62186174Y-75785352D01*
X62186172Y-75785354D01*
X62147709Y-75838294D01*
X62070476Y-75944594D01*
X61981117Y-76119970D01*
X61920290Y-76307173D01*
X61889500Y-76501577D01*
X61889500Y-76698422D01*
X61920290Y-76892826D01*
X61981117Y-77080029D01*
X62067723Y-77250001D01*
X62070476Y-77255405D01*
X62186172Y-77414646D01*
X62325354Y-77553828D01*
X62484595Y-77669524D01*
X62567455Y-77711743D01*
X62659970Y-77758882D01*
X62659972Y-77758882D01*
X62659975Y-77758884D01*
X62759288Y-77791153D01*
X62847173Y-77819709D01*
X63041578Y-77850500D01*
X63041583Y-77850500D01*
X63238422Y-77850500D01*
X63432826Y-77819709D01*
X63463276Y-77809815D01*
X63620025Y-77758884D01*
X63795405Y-77669524D01*
X63954646Y-77553828D01*
X64093828Y-77414646D01*
X64103297Y-77401612D01*
X64158628Y-77358948D01*
X64203614Y-77350500D01*
X64455500Y-77350500D01*
X64522539Y-77370185D01*
X64568294Y-77422989D01*
X64579500Y-77474500D01*
X64579500Y-80155396D01*
X64570062Y-80202844D01*
X64562837Y-80220289D01*
X64560262Y-80226506D01*
X64560260Y-80226511D01*
X64529500Y-80381153D01*
X64529500Y-80525500D01*
X64509815Y-80592539D01*
X64457011Y-80638294D01*
X64405500Y-80649500D01*
X64396077Y-80649500D01*
X64298260Y-80668957D01*
X64228668Y-80662730D01*
X64186388Y-80635021D01*
X64012772Y-80461405D01*
X63979287Y-80400082D01*
X63977980Y-80354325D01*
X63980500Y-80338415D01*
X63980500Y-80141577D01*
X63949709Y-79947173D01*
X63914886Y-79840000D01*
X63888884Y-79759975D01*
X63888882Y-79759972D01*
X63888882Y-79759970D01*
X63799523Y-79584594D01*
X63789940Y-79571404D01*
X63683828Y-79425354D01*
X63544646Y-79286172D01*
X63385405Y-79170476D01*
X63210029Y-79081117D01*
X63022826Y-79020290D01*
X62828422Y-78989500D01*
X62828417Y-78989500D01*
X62631583Y-78989500D01*
X62631578Y-78989500D01*
X62437173Y-79020290D01*
X62249970Y-79081117D01*
X62074594Y-79170476D01*
X61983741Y-79236485D01*
X61915354Y-79286172D01*
X61915352Y-79286174D01*
X61915351Y-79286174D01*
X61776174Y-79425351D01*
X61776174Y-79425352D01*
X61776172Y-79425354D01*
X61775399Y-79426418D01*
X61660476Y-79584594D01*
X61571117Y-79759970D01*
X61510290Y-79947173D01*
X61479500Y-80141577D01*
X61479500Y-80338422D01*
X61510290Y-80532826D01*
X61571117Y-80720029D01*
X61636944Y-80849221D01*
X61660476Y-80895405D01*
X61776172Y-81054646D01*
X61915354Y-81193828D01*
X62074595Y-81309524D01*
X62139901Y-81342799D01*
X62249970Y-81398882D01*
X62249972Y-81398882D01*
X62249975Y-81398884D01*
X62350317Y-81431487D01*
X62437173Y-81459709D01*
X62631578Y-81490500D01*
X62631583Y-81490500D01*
X62828416Y-81490500D01*
X62828417Y-81490500D01*
X62844326Y-81487980D01*
X62856963Y-81489613D01*
X62869344Y-81486580D01*
X62890957Y-81494005D01*
X62913618Y-81496934D01*
X62923367Y-81505141D01*
X62935423Y-81509283D01*
X62951405Y-81522772D01*
X62975681Y-81547048D01*
X63009166Y-81608371D01*
X63012000Y-81634729D01*
X63012000Y-81858752D01*
X63003793Y-81886698D01*
X62998344Y-81915323D01*
X62994065Y-81919831D01*
X62992315Y-81925791D01*
X62961002Y-81956531D01*
X62962011Y-81957807D01*
X62956347Y-81962284D01*
X62901795Y-82016837D01*
X62840471Y-82050321D01*
X62770779Y-82045336D01*
X62717467Y-82006842D01*
X62697722Y-81982278D01*
X62697721Y-81982277D01*
X62549295Y-81862969D01*
X62549292Y-81862967D01*
X62378697Y-81778360D01*
X62193892Y-81732400D01*
X62172506Y-81730950D01*
X62151123Y-81729500D01*
X62151120Y-81729500D01*
X60748877Y-81729500D01*
X60748874Y-81729501D01*
X60706113Y-81732399D01*
X60706112Y-81732399D01*
X60521303Y-81778360D01*
X60350707Y-81862967D01*
X60350704Y-81862969D01*
X60202278Y-81982277D01*
X60202277Y-81982278D01*
X60082969Y-82130704D01*
X60082967Y-82130707D01*
X59998360Y-82301302D01*
X59952400Y-82486107D01*
X59952400Y-82486111D01*
X59949599Y-82527426D01*
X59949500Y-82528879D01*
X59949500Y-83431122D01*
X59949501Y-83431125D01*
X59952399Y-83473886D01*
X59952399Y-83473887D01*
X59998360Y-83658696D01*
X60082967Y-83829292D01*
X60082969Y-83829295D01*
X60202277Y-83977721D01*
X60202278Y-83977722D01*
X60271486Y-84033353D01*
X60311405Y-84090696D01*
X60313985Y-84160518D01*
X60278406Y-84220651D01*
X60271486Y-84226647D01*
X60202278Y-84282277D01*
X60202277Y-84282278D01*
X60082969Y-84430704D01*
X60068146Y-84460594D01*
X60020725Y-84511907D01*
X59957058Y-84529500D01*
X56774499Y-84529500D01*
X56707460Y-84509815D01*
X56661705Y-84457011D01*
X56650499Y-84405500D01*
X56650499Y-83821971D01*
X56650499Y-83821964D01*
X56639886Y-83702582D01*
X56583909Y-83506951D01*
X56489698Y-83326593D01*
X56423692Y-83245643D01*
X56361109Y-83168890D01*
X56203409Y-83040304D01*
X56203410Y-83040304D01*
X56203407Y-83040302D01*
X56023049Y-82946091D01*
X56023048Y-82946090D01*
X56023045Y-82946089D01*
X55905829Y-82912550D01*
X55827418Y-82890114D01*
X55827415Y-82890113D01*
X55827413Y-82890113D01*
X55761102Y-82884217D01*
X55708037Y-82879500D01*
X55708032Y-82879500D01*
X54591971Y-82879500D01*
X54591965Y-82879500D01*
X54591964Y-82879501D01*
X54580316Y-82880536D01*
X54472584Y-82890113D01*
X54276954Y-82946089D01*
X54186772Y-82993196D01*
X54096593Y-83040302D01*
X54096591Y-83040303D01*
X54096590Y-83040304D01*
X53938890Y-83168890D01*
X53810304Y-83326590D01*
X53716089Y-83506954D01*
X53660114Y-83702583D01*
X53660113Y-83702586D01*
X53649500Y-83821966D01*
X53649500Y-86738028D01*
X53649501Y-86738034D01*
X53660113Y-86857415D01*
X53716089Y-87053045D01*
X53716090Y-87053048D01*
X53716091Y-87053049D01*
X53810302Y-87233407D01*
X53810304Y-87233409D01*
X53938890Y-87391109D01*
X54032803Y-87467684D01*
X54096593Y-87519698D01*
X54276951Y-87613909D01*
X54276953Y-87613909D01*
X54276954Y-87613910D01*
X54296355Y-87619461D01*
X54472582Y-87669886D01*
X54591963Y-87680500D01*
X55708036Y-87680499D01*
X55827418Y-87669886D01*
X56023049Y-87613909D01*
X56203407Y-87519698D01*
X56361109Y-87391109D01*
X56489698Y-87233407D01*
X56583909Y-87053049D01*
X56639886Y-86857418D01*
X56650500Y-86738037D01*
X56650500Y-86154500D01*
X56670185Y-86087461D01*
X56722989Y-86041706D01*
X56774500Y-86030500D01*
X59957058Y-86030500D01*
X60024097Y-86050185D01*
X60068146Y-86099406D01*
X60082969Y-86129295D01*
X60202277Y-86277721D01*
X60202278Y-86277722D01*
X60271884Y-86333673D01*
X60311803Y-86391016D01*
X60314383Y-86460838D01*
X60278804Y-86520971D01*
X60271885Y-86526967D01*
X60202631Y-86582635D01*
X60083392Y-86730974D01*
X60083390Y-86730977D01*
X59998831Y-86901476D01*
X59952897Y-87086175D01*
X59950000Y-87128903D01*
X59950000Y-87330000D01*
X62645000Y-87330000D01*
X62645000Y-87279000D01*
X62664685Y-87211961D01*
X62717489Y-87166206D01*
X62769000Y-87155000D01*
X67160000Y-87155000D01*
X67196319Y-87118681D01*
X67198390Y-87120752D01*
X67232489Y-87091206D01*
X67284000Y-87080000D01*
X69689999Y-87080000D01*
X69689999Y-87039500D01*
X69709684Y-86972461D01*
X69762488Y-86926706D01*
X69813999Y-86915500D01*
X70094342Y-86915500D01*
X70161381Y-86935185D01*
X70207136Y-86987989D01*
X70217080Y-87057147D01*
X70188055Y-87120703D01*
X70163233Y-87142602D01*
X70042537Y-87223248D01*
X70042533Y-87223251D01*
X69903251Y-87362533D01*
X69903248Y-87362537D01*
X69820000Y-87487126D01*
X69818524Y-87491994D01*
X69780227Y-87550433D01*
X69716415Y-87578890D01*
X69699863Y-87580000D01*
X68740000Y-87580000D01*
X68740000Y-88429999D01*
X68989972Y-88429999D01*
X68989986Y-88429998D01*
X69092697Y-88419505D01*
X69259119Y-88364358D01*
X69259124Y-88364356D01*
X69408345Y-88272315D01*
X69532315Y-88148345D01*
X69556643Y-88108904D01*
X69608591Y-88062179D01*
X69662182Y-88050000D01*
X70380000Y-88050000D01*
X70380000Y-88550000D01*
X69680000Y-88550000D01*
X69680000Y-88698495D01*
X69718427Y-88891681D01*
X69718430Y-88891693D01*
X69793807Y-89073671D01*
X69793814Y-89073684D01*
X69903248Y-89237462D01*
X69903251Y-89237466D01*
X70042533Y-89376748D01*
X70042537Y-89376751D01*
X70185681Y-89472398D01*
X70230486Y-89526010D01*
X70239193Y-89595335D01*
X70209038Y-89658363D01*
X70149595Y-89695082D01*
X70116790Y-89699500D01*
X52584500Y-89699500D01*
X52517461Y-89679815D01*
X52471706Y-89627011D01*
X52460500Y-89575500D01*
X52460500Y-88031096D01*
X59950000Y-88031096D01*
X59952897Y-88073824D01*
X59998831Y-88258523D01*
X60083390Y-88429022D01*
X60083392Y-88429025D01*
X60202632Y-88577366D01*
X60202633Y-88577367D01*
X60350974Y-88696607D01*
X60350977Y-88696609D01*
X60521476Y-88781168D01*
X60706175Y-88827102D01*
X60748903Y-88830000D01*
X61200000Y-88830000D01*
X61200000Y-87830000D01*
X61700000Y-87830000D01*
X61700000Y-88830000D01*
X62151097Y-88830000D01*
X62193824Y-88827102D01*
X62378523Y-88781168D01*
X62549022Y-88696609D01*
X62549025Y-88696607D01*
X62697366Y-88577367D01*
X62697367Y-88577366D01*
X62816605Y-88429027D01*
X62850721Y-88360239D01*
X62898142Y-88308926D01*
X62965777Y-88291396D01*
X63032152Y-88313216D01*
X63049491Y-88327652D01*
X63056654Y-88334815D01*
X63205875Y-88426856D01*
X63205880Y-88426858D01*
X63372302Y-88482005D01*
X63372309Y-88482006D01*
X63475019Y-88492499D01*
X63749999Y-88492499D01*
X64250000Y-88492499D01*
X64524972Y-88492499D01*
X64524986Y-88492498D01*
X64627697Y-88482005D01*
X64794119Y-88426858D01*
X64794124Y-88426856D01*
X64943345Y-88334815D01*
X65062319Y-88215842D01*
X65123642Y-88182357D01*
X65193334Y-88187341D01*
X65237681Y-88215842D01*
X65356654Y-88334815D01*
X65505875Y-88426856D01*
X65505880Y-88426858D01*
X65672302Y-88482005D01*
X65672309Y-88482006D01*
X65775019Y-88492499D01*
X66049999Y-88492499D01*
X66050000Y-88492498D01*
X66050000Y-87655000D01*
X66550000Y-87655000D01*
X66550000Y-88492499D01*
X66824972Y-88492499D01*
X66824986Y-88492498D01*
X66927697Y-88482005D01*
X67094119Y-88426858D01*
X67094124Y-88426856D01*
X67243345Y-88334815D01*
X67351069Y-88227092D01*
X67412392Y-88193607D01*
X67482084Y-88198591D01*
X67526431Y-88227092D01*
X67571654Y-88272315D01*
X67720875Y-88364356D01*
X67720880Y-88364358D01*
X67887302Y-88419505D01*
X67887309Y-88419506D01*
X67990019Y-88429999D01*
X68239999Y-88429999D01*
X68240000Y-88429998D01*
X68240000Y-87580000D01*
X67655000Y-87580000D01*
X67618681Y-87616319D01*
X67616609Y-87614247D01*
X67582511Y-87643794D01*
X67531000Y-87655000D01*
X66550000Y-87655000D01*
X66050000Y-87655000D01*
X64250000Y-87655000D01*
X64250000Y-88492499D01*
X63749999Y-88492499D01*
X63750000Y-88492498D01*
X63750000Y-87655000D01*
X63080000Y-87655000D01*
X63080000Y-87706000D01*
X63060315Y-87773039D01*
X63007511Y-87818794D01*
X62956000Y-87830000D01*
X61700000Y-87830000D01*
X61200000Y-87830000D01*
X59950000Y-87830000D01*
X59950000Y-88031096D01*
X52460500Y-88031096D01*
X52460500Y-80673677D01*
X53129873Y-80673677D01*
X53129873Y-80673678D01*
X53164858Y-80699096D01*
X53340164Y-80788418D01*
X53527294Y-80849221D01*
X53721618Y-80880000D01*
X53918382Y-80880000D01*
X54112705Y-80849221D01*
X54299835Y-80788418D01*
X54475143Y-80699095D01*
X54510125Y-80673678D01*
X54510126Y-80673678D01*
X53820001Y-79983553D01*
X53820000Y-79983553D01*
X53129873Y-80673677D01*
X52460500Y-80673677D01*
X52460500Y-80231689D01*
X52480185Y-80164650D01*
X52532989Y-80118895D01*
X52602147Y-80108951D01*
X52665703Y-80137976D01*
X52694985Y-80175394D01*
X52750905Y-80285145D01*
X52776319Y-80320125D01*
X52776320Y-80320125D01*
X53466446Y-79630000D01*
X53466446Y-79629999D01*
X54173553Y-79629999D01*
X54173553Y-79630001D01*
X54863678Y-80320126D01*
X54863678Y-80320125D01*
X54889095Y-80285143D01*
X54978418Y-80109835D01*
X55039221Y-79922705D01*
X55070000Y-79728382D01*
X55070000Y-79531617D01*
X55039221Y-79337294D01*
X54978418Y-79150164D01*
X54889096Y-78974858D01*
X54863678Y-78939873D01*
X54863677Y-78939873D01*
X54173553Y-79629999D01*
X53466446Y-79629999D01*
X52776320Y-78939872D01*
X52776320Y-78939873D01*
X52750902Y-78974859D01*
X52694985Y-79084604D01*
X52647011Y-79135400D01*
X52579190Y-79152195D01*
X52513055Y-79129658D01*
X52469603Y-79074943D01*
X52460500Y-79028309D01*
X52460500Y-78586320D01*
X53129872Y-78586320D01*
X53820000Y-79276446D01*
X53820001Y-79276446D01*
X54510125Y-78586320D01*
X54510125Y-78586319D01*
X54475145Y-78560905D01*
X54299835Y-78471581D01*
X54112705Y-78410778D01*
X53918382Y-78380000D01*
X53721618Y-78380000D01*
X53527294Y-78410778D01*
X53340161Y-78471582D01*
X53164863Y-78560899D01*
X53164859Y-78560902D01*
X53129873Y-78586320D01*
X53129872Y-78586320D01*
X52460500Y-78586320D01*
X52460500Y-73184298D01*
X53409500Y-73184298D01*
X53409500Y-74490701D01*
X53412401Y-74527567D01*
X53412402Y-74527573D01*
X53458254Y-74685393D01*
X53458255Y-74685396D01*
X53458256Y-74685398D01*
X53541919Y-74826865D01*
X53548179Y-74833125D01*
X53581665Y-74894445D01*
X53584500Y-74920808D01*
X53584500Y-76811606D01*
X53601621Y-76897680D01*
X53608537Y-76932451D01*
X53618083Y-76955497D01*
X53618082Y-76955497D01*
X53655685Y-77046280D01*
X53655687Y-77046283D01*
X53655688Y-77046286D01*
X53670998Y-77069199D01*
X53689914Y-77097507D01*
X53689915Y-77097509D01*
X53724141Y-77148733D01*
X53815586Y-77240178D01*
X53815608Y-77240198D01*
X55353181Y-78777771D01*
X55386666Y-78839094D01*
X55389500Y-78865452D01*
X55389501Y-79530000D01*
X55389501Y-79530019D01*
X55400000Y-79632796D01*
X55400001Y-79632799D01*
X55424918Y-79707991D01*
X55455186Y-79799334D01*
X55547288Y-79948656D01*
X55671344Y-80072712D01*
X55820666Y-80164814D01*
X55987203Y-80219999D01*
X56089991Y-80230500D01*
X56890008Y-80230499D01*
X56890016Y-80230498D01*
X56890019Y-80230498D01*
X56946302Y-80224748D01*
X56992797Y-80219999D01*
X57159334Y-80164814D01*
X57308656Y-80072712D01*
X57402319Y-79979049D01*
X57463642Y-79945564D01*
X57533334Y-79950548D01*
X57577681Y-79979049D01*
X57671344Y-80072712D01*
X57820666Y-80164814D01*
X57987203Y-80219999D01*
X58089991Y-80230500D01*
X58890008Y-80230499D01*
X58890016Y-80230498D01*
X58890019Y-80230498D01*
X58946302Y-80224748D01*
X58992797Y-80219999D01*
X59159334Y-80164814D01*
X59308656Y-80072712D01*
X59432712Y-79948656D01*
X59524814Y-79799334D01*
X59579999Y-79632797D01*
X59590500Y-79530009D01*
X59590499Y-78529992D01*
X59579999Y-78427203D01*
X59563583Y-78377665D01*
X59561181Y-78307839D01*
X59593606Y-78250982D01*
X60428729Y-77415860D01*
X60428733Y-77415858D01*
X60515858Y-77328733D01*
X60537122Y-77296908D01*
X60558386Y-77265086D01*
X60558387Y-77265085D01*
X60584309Y-77226290D01*
X60584312Y-77226286D01*
X60624970Y-77128127D01*
X60631463Y-77112452D01*
X60655500Y-76991606D01*
X60655500Y-74910808D01*
X60675185Y-74843769D01*
X60691817Y-74823128D01*
X60698081Y-74816865D01*
X60781744Y-74675398D01*
X60827598Y-74517569D01*
X60830500Y-74480694D01*
X60830500Y-74040750D01*
X60850185Y-73973711D01*
X60902989Y-73927956D01*
X60954500Y-73916750D01*
X61550358Y-73916750D01*
X61550358Y-73916749D01*
X61639061Y-73899106D01*
X61639062Y-73899106D01*
X61649872Y-73896955D01*
X61671202Y-73892713D01*
X61706415Y-73878127D01*
X61785036Y-73845562D01*
X61847989Y-73803497D01*
X61887483Y-73777108D01*
X61974608Y-73689983D01*
X61974609Y-73689981D01*
X61981675Y-73682915D01*
X61981678Y-73682911D01*
X62828797Y-72835791D01*
X62890118Y-72802308D01*
X62892128Y-72801889D01*
X63003497Y-72779737D01*
X63132102Y-72726467D01*
X63149172Y-72719397D01*
X63149172Y-72719396D01*
X63149179Y-72719394D01*
X63280289Y-72631789D01*
X63391789Y-72520289D01*
X63479394Y-72389179D01*
X63539737Y-72243497D01*
X63570500Y-72088842D01*
X63570500Y-71931158D01*
X63570500Y-71931155D01*
X63570499Y-71931153D01*
X63561858Y-71887714D01*
X63539737Y-71776503D01*
X63487235Y-71649751D01*
X63479397Y-71630827D01*
X63479390Y-71630814D01*
X63391789Y-71499711D01*
X63391786Y-71499707D01*
X63280292Y-71388213D01*
X63280288Y-71388210D01*
X63149185Y-71300609D01*
X63149172Y-71300602D01*
X63003501Y-71240264D01*
X63003489Y-71240261D01*
X62848845Y-71209500D01*
X62848842Y-71209500D01*
X62691158Y-71209500D01*
X62691155Y-71209500D01*
X62536510Y-71240261D01*
X62536498Y-71240264D01*
X62390827Y-71300602D01*
X62390814Y-71300609D01*
X62259711Y-71388210D01*
X62259707Y-71388213D01*
X62148213Y-71499707D01*
X62148210Y-71499711D01*
X62060609Y-71630814D01*
X62060602Y-71630827D01*
X62000264Y-71776498D01*
X62000261Y-71776508D01*
X61978141Y-71887714D01*
X61945756Y-71949625D01*
X61944205Y-71951203D01*
X61265979Y-72629431D01*
X61204656Y-72662916D01*
X61178298Y-72665750D01*
X60520810Y-72665750D01*
X60457689Y-72648482D01*
X60457305Y-72648255D01*
X60440398Y-72638256D01*
X60440397Y-72638255D01*
X60440396Y-72638255D01*
X60440393Y-72638254D01*
X60282573Y-72592402D01*
X60282567Y-72592401D01*
X60245701Y-72589500D01*
X60245694Y-72589500D01*
X60004500Y-72589500D01*
X59937461Y-72569815D01*
X59891706Y-72517011D01*
X59880500Y-72465500D01*
X59880500Y-72165750D01*
X59900185Y-72098711D01*
X59952989Y-72052956D01*
X60004500Y-72041750D01*
X60296400Y-72041750D01*
X60363439Y-72061435D01*
X60365291Y-72062648D01*
X60459571Y-72125644D01*
X60459573Y-72125645D01*
X60459577Y-72125647D01*
X60556396Y-72165750D01*
X60605253Y-72185987D01*
X60759903Y-72216749D01*
X60759906Y-72216750D01*
X60759908Y-72216750D01*
X60917594Y-72216750D01*
X60917595Y-72216749D01*
X61072247Y-72185987D01*
X61217929Y-72125644D01*
X61349039Y-72038039D01*
X61460539Y-71926539D01*
X61548144Y-71795429D01*
X61608487Y-71649747D01*
X61639250Y-71495092D01*
X61639250Y-71337408D01*
X61639250Y-71337405D01*
X61639249Y-71337403D01*
X61633660Y-71309306D01*
X61608487Y-71182753D01*
X61573747Y-71098882D01*
X61548147Y-71037077D01*
X61548140Y-71037064D01*
X61460539Y-70905961D01*
X61460536Y-70905957D01*
X61349042Y-70794463D01*
X61349038Y-70794460D01*
X61217935Y-70706859D01*
X61217922Y-70706852D01*
X61072251Y-70646514D01*
X61072239Y-70646511D01*
X60917595Y-70615750D01*
X60917592Y-70615750D01*
X60759908Y-70615750D01*
X60759905Y-70615750D01*
X60605260Y-70646511D01*
X60605248Y-70646514D01*
X60459577Y-70706852D01*
X60459565Y-70706859D01*
X60365291Y-70769852D01*
X60298614Y-70790730D01*
X60296400Y-70790750D01*
X59570810Y-70790750D01*
X59507689Y-70773482D01*
X59506128Y-70772559D01*
X59490398Y-70763256D01*
X59490397Y-70763255D01*
X59490396Y-70763255D01*
X59490393Y-70763254D01*
X59332573Y-70717402D01*
X59332567Y-70717401D01*
X59295701Y-70714500D01*
X59295694Y-70714500D01*
X58864306Y-70714500D01*
X58864298Y-70714500D01*
X58827432Y-70717401D01*
X58827426Y-70717402D01*
X58669606Y-70763254D01*
X58669603Y-70763255D01*
X58528137Y-70846917D01*
X58528133Y-70846920D01*
X58431060Y-70943993D01*
X58369737Y-70977477D01*
X58300045Y-70972493D01*
X58244112Y-70930621D01*
X58219695Y-70865156D01*
X58219977Y-70844152D01*
X58220500Y-70838844D01*
X58220500Y-70681155D01*
X58220499Y-70681153D01*
X58207393Y-70615264D01*
X58189737Y-70526503D01*
X58165978Y-70469143D01*
X58129397Y-70380827D01*
X58129395Y-70380823D01*
X58129394Y-70380821D01*
X58042480Y-70250746D01*
X58021603Y-70184070D01*
X58040087Y-70116690D01*
X58057900Y-70094177D01*
X58101789Y-70050289D01*
X58189394Y-69919179D01*
X58189947Y-69917844D01*
X61065000Y-69917844D01*
X61071401Y-69977372D01*
X61071403Y-69977379D01*
X61121645Y-70112086D01*
X61121649Y-70112093D01*
X61207809Y-70227187D01*
X61207812Y-70227190D01*
X61322906Y-70313350D01*
X61322913Y-70313354D01*
X61457620Y-70363596D01*
X61457627Y-70363598D01*
X61517155Y-70369999D01*
X61517172Y-70370000D01*
X61765000Y-70370000D01*
X61765000Y-69370000D01*
X61065000Y-69370000D01*
X61065000Y-69917844D01*
X58189947Y-69917844D01*
X58249737Y-69773497D01*
X58280500Y-69618842D01*
X58280500Y-69461158D01*
X58280500Y-69461155D01*
X58262367Y-69370000D01*
X58249737Y-69306503D01*
X58237299Y-69276475D01*
X58235384Y-69269854D01*
X58235422Y-69260146D01*
X58230500Y-69235396D01*
X58230500Y-68944499D01*
X58250185Y-68877460D01*
X58302989Y-68831705D01*
X58354500Y-68820499D01*
X59777871Y-68820499D01*
X59777872Y-68820499D01*
X59837483Y-68814091D01*
X59972331Y-68763796D01*
X60087546Y-68677546D01*
X60173796Y-68562331D01*
X60224091Y-68427483D01*
X60230500Y-68367873D01*
X60230500Y-68322155D01*
X61065000Y-68322155D01*
X61065000Y-68870000D01*
X61765000Y-68870000D01*
X61765000Y-67870000D01*
X61517155Y-67870000D01*
X61457627Y-67876401D01*
X61457620Y-67876403D01*
X61322913Y-67926645D01*
X61322906Y-67926649D01*
X61207812Y-68012809D01*
X61207809Y-68012812D01*
X61121649Y-68127906D01*
X61121645Y-68127913D01*
X61071403Y-68262620D01*
X61071401Y-68262627D01*
X61065000Y-68322155D01*
X60230500Y-68322155D01*
X60230499Y-67870000D01*
X60230499Y-67372129D01*
X60230498Y-67372123D01*
X60230497Y-67372116D01*
X60224091Y-67312517D01*
X60211340Y-67278332D01*
X60206357Y-67208642D01*
X60211340Y-67191669D01*
X60224091Y-67157483D01*
X60230500Y-67097873D01*
X60230499Y-66102128D01*
X60224091Y-66042517D01*
X60211340Y-66008332D01*
X60206357Y-65938642D01*
X60211340Y-65921669D01*
X60224091Y-65887483D01*
X60230500Y-65827873D01*
X60230499Y-64832128D01*
X60224091Y-64772517D01*
X60211340Y-64738332D01*
X60206357Y-64668642D01*
X60211340Y-64651669D01*
X60224091Y-64617483D01*
X60230500Y-64557873D01*
X60230499Y-63562128D01*
X60224091Y-63502517D01*
X60211340Y-63468332D01*
X60206357Y-63398642D01*
X60211340Y-63381669D01*
X60224091Y-63347483D01*
X60230500Y-63287873D01*
X60230499Y-62292128D01*
X60224091Y-62232517D01*
X60211340Y-62198332D01*
X60206357Y-62128642D01*
X60211340Y-62111669D01*
X60224091Y-62077483D01*
X60230500Y-62017873D01*
X60230499Y-61022128D01*
X60224091Y-60962517D01*
X60211340Y-60928332D01*
X60206357Y-60858642D01*
X60211340Y-60841669D01*
X60224091Y-60807483D01*
X60230500Y-60747873D01*
X60230499Y-59752128D01*
X60224091Y-59692517D01*
X60211340Y-59658332D01*
X60206357Y-59588642D01*
X60211340Y-59571669D01*
X60224091Y-59537483D01*
X60230500Y-59477873D01*
X60230499Y-58482128D01*
X60224091Y-58422517D01*
X60211340Y-58388332D01*
X60206357Y-58318642D01*
X60211340Y-58301669D01*
X60224091Y-58267483D01*
X60230500Y-58207873D01*
X60230499Y-57212128D01*
X60224091Y-57152517D01*
X60211340Y-57118332D01*
X60206357Y-57048642D01*
X60211338Y-57031672D01*
X60224091Y-56997483D01*
X60230500Y-56937873D01*
X60230499Y-55942128D01*
X60224091Y-55882517D01*
X60211340Y-55848332D01*
X60206357Y-55778642D01*
X60211338Y-55761672D01*
X60224091Y-55727483D01*
X60226530Y-55704792D01*
X60253266Y-55640244D01*
X60310657Y-55600394D01*
X60380482Y-55597899D01*
X60397271Y-55603487D01*
X60436498Y-55619735D01*
X60436503Y-55619737D01*
X60591153Y-55650499D01*
X60591156Y-55650500D01*
X60591158Y-55650500D01*
X60748844Y-55650500D01*
X60748845Y-55650499D01*
X60903497Y-55619737D01*
X61049179Y-55559394D01*
X61180289Y-55471789D01*
X61291789Y-55360289D01*
X61379394Y-55229179D01*
X61439737Y-55083497D01*
X61470500Y-54928842D01*
X61470500Y-54771158D01*
X61470500Y-54771155D01*
X61470499Y-54771153D01*
X61439738Y-54616510D01*
X61439737Y-54616503D01*
X61416333Y-54560000D01*
X61379397Y-54470827D01*
X61379390Y-54470814D01*
X61291789Y-54339711D01*
X61291786Y-54339707D01*
X61180292Y-54228213D01*
X61180288Y-54228210D01*
X61049185Y-54140609D01*
X61049172Y-54140602D01*
X60903501Y-54080264D01*
X60903489Y-54080261D01*
X60792285Y-54058141D01*
X60730374Y-54025756D01*
X60728795Y-54024205D01*
X60266818Y-53562228D01*
X60233333Y-53500905D01*
X60230499Y-53474547D01*
X60230499Y-53402129D01*
X60230498Y-53402123D01*
X60230497Y-53402116D01*
X60224091Y-53342517D01*
X60211340Y-53308332D01*
X60206357Y-53238642D01*
X60211340Y-53221669D01*
X60224091Y-53187483D01*
X60230500Y-53127873D01*
X60230499Y-52132128D01*
X60224091Y-52072517D01*
X60211073Y-52037616D01*
X60206090Y-51967926D01*
X60211075Y-51950949D01*
X60223597Y-51917375D01*
X60223598Y-51917372D01*
X60229999Y-51857844D01*
X60230000Y-51857827D01*
X60230000Y-51610000D01*
X57742688Y-51610000D01*
X57677592Y-51591539D01*
X57594334Y-51540186D01*
X57582311Y-51536202D01*
X57427797Y-51485001D01*
X57427795Y-51485000D01*
X57325010Y-51474500D01*
X56549998Y-51474500D01*
X56549980Y-51474501D01*
X56447203Y-51485000D01*
X56447200Y-51485001D01*
X56280668Y-51540185D01*
X56280663Y-51540187D01*
X56131342Y-51632289D01*
X56007288Y-51756343D01*
X56007283Y-51756349D01*
X56005241Y-51759661D01*
X56003247Y-51761453D01*
X56002807Y-51762011D01*
X56002711Y-51761935D01*
X55953291Y-51806383D01*
X55884328Y-51817602D01*
X55820247Y-51789755D01*
X55794168Y-51759656D01*
X55792319Y-51756659D01*
X55792316Y-51756655D01*
X55668345Y-51632684D01*
X55519124Y-51540643D01*
X55519119Y-51540641D01*
X55352697Y-51485494D01*
X55352690Y-51485493D01*
X55249986Y-51475000D01*
X55112500Y-51475000D01*
X55112500Y-55616880D01*
X55119666Y-55630004D01*
X55122500Y-55656362D01*
X55122500Y-56826000D01*
X55102815Y-56893039D01*
X55050011Y-56938794D01*
X54998500Y-56950000D01*
X54872500Y-56950000D01*
X54872500Y-57076000D01*
X54852815Y-57143039D01*
X54800011Y-57188794D01*
X54748500Y-57200000D01*
X53785001Y-57200000D01*
X53785001Y-57474986D01*
X53795494Y-57577697D01*
X53850641Y-57744119D01*
X53850643Y-57744124D01*
X53942684Y-57893345D01*
X53996304Y-57946965D01*
X54029789Y-58008288D01*
X54024805Y-58077980D01*
X53996305Y-58122326D01*
X53947289Y-58171342D01*
X53855187Y-58320663D01*
X53855186Y-58320666D01*
X53800001Y-58487203D01*
X53800001Y-58487204D01*
X53800000Y-58487204D01*
X53789500Y-58589983D01*
X53789500Y-59590001D01*
X53789501Y-59590019D01*
X53800000Y-59692796D01*
X53800001Y-59692799D01*
X53855185Y-59859331D01*
X53855187Y-59859336D01*
X53947289Y-60008657D01*
X53959700Y-60021068D01*
X53993185Y-60082391D01*
X53988201Y-60152083D01*
X53959702Y-60196428D01*
X53922289Y-60233842D01*
X53830187Y-60383163D01*
X53830186Y-60383166D01*
X53775001Y-60549703D01*
X53775001Y-60549704D01*
X53775000Y-60549704D01*
X53764500Y-60652483D01*
X53764500Y-61427501D01*
X53764501Y-61427519D01*
X53775000Y-61530296D01*
X53775001Y-61530299D01*
X53811503Y-61640452D01*
X53830186Y-61696834D01*
X53922288Y-61846156D01*
X54046344Y-61970212D01*
X54049628Y-61972237D01*
X54049653Y-61972253D01*
X54051445Y-61974246D01*
X54052011Y-61974693D01*
X54051934Y-61974789D01*
X54096379Y-62024199D01*
X54107603Y-62093161D01*
X54079761Y-62157244D01*
X54049665Y-62183326D01*
X54046660Y-62185179D01*
X54046655Y-62185183D01*
X53922684Y-62309154D01*
X53830643Y-62458375D01*
X53830641Y-62458380D01*
X53775494Y-62624802D01*
X53775493Y-62624809D01*
X53765000Y-62727513D01*
X53765000Y-62865000D01*
X54866000Y-62865000D01*
X54933039Y-62884685D01*
X54978794Y-62937489D01*
X54990000Y-62989000D01*
X54990000Y-63241000D01*
X54970315Y-63308039D01*
X54917511Y-63353794D01*
X54866000Y-63365000D01*
X53765001Y-63365000D01*
X53765001Y-63502486D01*
X53775494Y-63605197D01*
X53830641Y-63771619D01*
X53830643Y-63771624D01*
X53922684Y-63920845D01*
X54046654Y-64044815D01*
X54195875Y-64136856D01*
X54195880Y-64136858D01*
X54362302Y-64192005D01*
X54362309Y-64192006D01*
X54465019Y-64202499D01*
X54555335Y-64202499D01*
X54622374Y-64222183D01*
X54668130Y-64274986D01*
X54678074Y-64344145D01*
X54649050Y-64407701D01*
X54593656Y-64444429D01*
X54449974Y-64491116D01*
X54274594Y-64580476D01*
X54183741Y-64646485D01*
X54115354Y-64696172D01*
X54115352Y-64696174D01*
X54115351Y-64696174D01*
X53976174Y-64835351D01*
X53976174Y-64835352D01*
X53976172Y-64835354D01*
X53964569Y-64851324D01*
X53860476Y-64994594D01*
X53771117Y-65169970D01*
X53710290Y-65357173D01*
X53679500Y-65551577D01*
X53679500Y-65748422D01*
X53710290Y-65942826D01*
X53771117Y-66130029D01*
X53826038Y-66237816D01*
X53860476Y-66305405D01*
X53976172Y-66464646D01*
X54115354Y-66603828D01*
X54274595Y-66719524D01*
X54357455Y-66761743D01*
X54449970Y-66808882D01*
X54449972Y-66808882D01*
X54449975Y-66808884D01*
X54550317Y-66841487D01*
X54637173Y-66869709D01*
X54831578Y-66900500D01*
X54831583Y-66900500D01*
X55028422Y-66900500D01*
X55222826Y-66869709D01*
X55410025Y-66808884D01*
X55585405Y-66719524D01*
X55744646Y-66603828D01*
X55883828Y-66464646D01*
X55883835Y-66464635D01*
X55886207Y-66461860D01*
X55944712Y-66423665D01*
X56014580Y-66423163D01*
X56073628Y-66460515D01*
X56103108Y-66523861D01*
X56104500Y-66542388D01*
X56104500Y-69074547D01*
X56084815Y-69141586D01*
X56068181Y-69162228D01*
X55424551Y-69805858D01*
X54761270Y-70469139D01*
X54761267Y-70469142D01*
X54733121Y-70497288D01*
X54674142Y-70556266D01*
X54650528Y-70591608D01*
X54650527Y-70591609D01*
X54605690Y-70658709D01*
X54605687Y-70658715D01*
X54581378Y-70717403D01*
X54560199Y-70768536D01*
X54560198Y-70768539D01*
X54558539Y-70772543D01*
X54558534Y-70772559D01*
X54540756Y-70861940D01*
X54540756Y-70861941D01*
X54533311Y-70899369D01*
X54531355Y-70898979D01*
X54508605Y-70955275D01*
X54499070Y-70965983D01*
X54491922Y-70973131D01*
X54491917Y-70973137D01*
X54408255Y-71114603D01*
X54408254Y-71114606D01*
X54362402Y-71272426D01*
X54362401Y-71272432D01*
X54359500Y-71309298D01*
X54359500Y-72475500D01*
X54339815Y-72542539D01*
X54287011Y-72588294D01*
X54235500Y-72599500D01*
X53994298Y-72599500D01*
X53957432Y-72602401D01*
X53957426Y-72602402D01*
X53799606Y-72648254D01*
X53799603Y-72648255D01*
X53658137Y-72731917D01*
X53658129Y-72731923D01*
X53541923Y-72848129D01*
X53541917Y-72848137D01*
X53458255Y-72989603D01*
X53458254Y-72989606D01*
X53412402Y-73147426D01*
X53412401Y-73147432D01*
X53409500Y-73184298D01*
X52460500Y-73184298D01*
X52460500Y-55334986D01*
X53775001Y-55334986D01*
X53785494Y-55437697D01*
X53840641Y-55604119D01*
X53840643Y-55604124D01*
X53932684Y-55753345D01*
X53976657Y-55797318D01*
X54010142Y-55858641D01*
X54005158Y-55928333D01*
X53976659Y-55972678D01*
X53942684Y-56006654D01*
X53850643Y-56155875D01*
X53850641Y-56155880D01*
X53795494Y-56322302D01*
X53795493Y-56322309D01*
X53785000Y-56425013D01*
X53785000Y-56700000D01*
X54622500Y-56700000D01*
X54622500Y-56143119D01*
X54615334Y-56129996D01*
X54612500Y-56103638D01*
X54612500Y-55060000D01*
X53775001Y-55060000D01*
X53775001Y-55334986D01*
X52460500Y-55334986D01*
X52460500Y-54285013D01*
X53775000Y-54285013D01*
X53775000Y-54560000D01*
X54612500Y-54560000D01*
X54612500Y-52950000D01*
X53775001Y-52950000D01*
X53775001Y-53224986D01*
X53785494Y-53327697D01*
X53840641Y-53494119D01*
X53840643Y-53494124D01*
X53932684Y-53643345D01*
X53956658Y-53667319D01*
X53990143Y-53728642D01*
X53985159Y-53798334D01*
X53956658Y-53842681D01*
X53932684Y-53866654D01*
X53840643Y-54015875D01*
X53840641Y-54015880D01*
X53785494Y-54182302D01*
X53785493Y-54182309D01*
X53775000Y-54285013D01*
X52460500Y-54285013D01*
X52460500Y-52175013D01*
X53775000Y-52175013D01*
X53775000Y-52450000D01*
X54612500Y-52450000D01*
X54612500Y-51475000D01*
X54475027Y-51475000D01*
X54475012Y-51475001D01*
X54372302Y-51485494D01*
X54205880Y-51540641D01*
X54205875Y-51540643D01*
X54056654Y-51632684D01*
X53932684Y-51756654D01*
X53840643Y-51905875D01*
X53840641Y-51905880D01*
X53785494Y-52072302D01*
X53785493Y-52072309D01*
X53775000Y-52175013D01*
X52460500Y-52175013D01*
X52460500Y-50824500D01*
X52480185Y-50757461D01*
X52532989Y-50711706D01*
X52584500Y-50700500D01*
X57609335Y-50700500D01*
X57676374Y-50720185D01*
G37*
G04 #@! TD.AperFunction*
G04 #@! TA.AperFunction,Conductor*
G36*
X75983697Y-84417679D02*
G01*
X76032099Y-84417652D01*
X76032599Y-84417786D01*
X76092258Y-84454153D01*
X76122784Y-84517002D01*
X76124500Y-84537559D01*
X76124500Y-85551611D01*
X76148535Y-85672444D01*
X76148540Y-85672461D01*
X76195685Y-85786281D01*
X76195688Y-85786286D01*
X76215732Y-85816283D01*
X76215733Y-85816286D01*
X76215734Y-85816286D01*
X76264141Y-85888732D01*
X76264144Y-85888736D01*
X76355586Y-85980178D01*
X76355608Y-85980198D01*
X76981016Y-86605606D01*
X76981045Y-86605637D01*
X77071264Y-86695856D01*
X77071267Y-86695858D01*
X77148190Y-86747256D01*
X77173710Y-86764309D01*
X77173712Y-86764310D01*
X77173715Y-86764312D01*
X77240396Y-86791931D01*
X77240398Y-86791933D01*
X77280640Y-86808601D01*
X77287548Y-86811463D01*
X77347971Y-86823481D01*
X77408393Y-86835500D01*
X77408394Y-86835500D01*
X78894834Y-86835500D01*
X78961873Y-86855185D01*
X79007628Y-86907989D01*
X79017572Y-86977147D01*
X78988547Y-87040703D01*
X78942287Y-87074061D01*
X78846324Y-87113809D01*
X78846315Y-87113814D01*
X78682537Y-87223248D01*
X78682533Y-87223251D01*
X78543251Y-87362533D01*
X78543248Y-87362537D01*
X78433814Y-87526315D01*
X78433807Y-87526328D01*
X78358430Y-87708306D01*
X78358427Y-87708318D01*
X78320000Y-87901504D01*
X78320000Y-88050000D01*
X79020000Y-88050000D01*
X79020000Y-88550000D01*
X78320000Y-88550000D01*
X78320000Y-88698495D01*
X78358427Y-88891681D01*
X78358430Y-88891693D01*
X78433807Y-89073671D01*
X78433814Y-89073684D01*
X78543248Y-89237462D01*
X78543251Y-89237466D01*
X78682533Y-89376748D01*
X78682537Y-89376751D01*
X78825681Y-89472398D01*
X78870486Y-89526010D01*
X78879193Y-89595335D01*
X78849038Y-89658363D01*
X78789595Y-89695082D01*
X78756790Y-89699500D01*
X71243210Y-89699500D01*
X71176171Y-89679815D01*
X71130416Y-89627011D01*
X71120472Y-89557853D01*
X71149497Y-89494297D01*
X71174319Y-89472398D01*
X71317462Y-89376751D01*
X71317466Y-89376748D01*
X71456748Y-89237466D01*
X71456751Y-89237462D01*
X71566185Y-89073684D01*
X71566192Y-89073671D01*
X71641569Y-88891693D01*
X71641572Y-88891681D01*
X71679999Y-88698495D01*
X71680000Y-88698492D01*
X71680000Y-88550000D01*
X70980000Y-88550000D01*
X70980000Y-88050000D01*
X71680000Y-88050000D01*
X71680000Y-87901508D01*
X71679999Y-87901504D01*
X71641572Y-87708318D01*
X71641569Y-87708306D01*
X71566192Y-87526328D01*
X71566185Y-87526315D01*
X71456751Y-87362537D01*
X71456748Y-87362533D01*
X71317466Y-87223251D01*
X71317462Y-87223248D01*
X71196767Y-87142602D01*
X71151962Y-87088990D01*
X71143255Y-87019665D01*
X71173409Y-86956637D01*
X71232852Y-86919918D01*
X71265658Y-86915500D01*
X73041607Y-86915500D01*
X73102029Y-86903481D01*
X73162452Y-86891463D01*
X73162455Y-86891461D01*
X73162458Y-86891461D01*
X73195787Y-86877654D01*
X73195786Y-86877654D01*
X73195792Y-86877652D01*
X73276286Y-86844312D01*
X73327509Y-86810084D01*
X73378733Y-86775858D01*
X73465858Y-86688733D01*
X73465858Y-86688731D01*
X73476066Y-86678524D01*
X73476067Y-86678521D01*
X74235857Y-85918734D01*
X74239212Y-85913714D01*
X74255905Y-85888732D01*
X74304307Y-85816292D01*
X74304313Y-85816282D01*
X74320501Y-85777200D01*
X74351463Y-85702452D01*
X74359012Y-85664500D01*
X74375500Y-85581607D01*
X74375500Y-85458394D01*
X74375500Y-85004501D01*
X74395185Y-84937462D01*
X74447989Y-84891707D01*
X74499500Y-84880501D01*
X74574957Y-84880501D01*
X74574977Y-84880500D01*
X75054372Y-84880500D01*
X75054372Y-84880499D01*
X75134810Y-84864500D01*
X75134811Y-84864500D01*
X75148401Y-84861796D01*
X75175216Y-84856463D01*
X75215678Y-84839703D01*
X75289050Y-84809312D01*
X75340273Y-84775084D01*
X75391497Y-84740858D01*
X75478622Y-84653733D01*
X75478622Y-84653731D01*
X75488830Y-84643524D01*
X75488833Y-84643520D01*
X75665538Y-84466818D01*
X75726861Y-84433334D01*
X75753218Y-84430500D01*
X75862713Y-84430500D01*
X75862720Y-84430500D01*
X75975236Y-84415687D01*
X75975236Y-84415686D01*
X75983295Y-84414626D01*
X75983697Y-84417679D01*
G37*
G04 #@! TD.AperFunction*
G04 #@! TA.AperFunction,Conductor*
G36*
X84038834Y-77548269D02*
G01*
X84094767Y-77590141D01*
X84119184Y-77655605D01*
X84119500Y-77664451D01*
X84119500Y-89575500D01*
X84099815Y-89642539D01*
X84047011Y-89688294D01*
X83995500Y-89699500D01*
X79883210Y-89699500D01*
X79816171Y-89679815D01*
X79770416Y-89627011D01*
X79760472Y-89557853D01*
X79789497Y-89494297D01*
X79814319Y-89472398D01*
X79957462Y-89376751D01*
X79957466Y-89376748D01*
X80096748Y-89237466D01*
X80096751Y-89237462D01*
X80206185Y-89073684D01*
X80206192Y-89073671D01*
X80281569Y-88891693D01*
X80281572Y-88891681D01*
X80319999Y-88698495D01*
X80320000Y-88698492D01*
X80320000Y-88550000D01*
X79620000Y-88550000D01*
X79620000Y-88050000D01*
X80320000Y-88050000D01*
X80320000Y-87901508D01*
X80319999Y-87901504D01*
X80281572Y-87708318D01*
X80281569Y-87708306D01*
X80206192Y-87526328D01*
X80206185Y-87526315D01*
X80096751Y-87362537D01*
X80096748Y-87362533D01*
X79957466Y-87223251D01*
X79957462Y-87223248D01*
X79793684Y-87113814D01*
X79793675Y-87113809D01*
X79697713Y-87074061D01*
X79643310Y-87030220D01*
X79621245Y-86963926D01*
X79638524Y-86896227D01*
X79689661Y-86848616D01*
X79745166Y-86835500D01*
X80317924Y-86835500D01*
X80384963Y-86855185D01*
X80430718Y-86907989D01*
X80435629Y-86920495D01*
X80445182Y-86949325D01*
X80445185Y-86949331D01*
X80445186Y-86949334D01*
X80537288Y-87098656D01*
X80661344Y-87222712D01*
X80810666Y-87314814D01*
X80977203Y-87369999D01*
X81079991Y-87380500D01*
X82080008Y-87380499D01*
X82080016Y-87380498D01*
X82080019Y-87380498D01*
X82136302Y-87374748D01*
X82182797Y-87369999D01*
X82349334Y-87314814D01*
X82498656Y-87222712D01*
X82622712Y-87098656D01*
X82714814Y-86949334D01*
X82769999Y-86782797D01*
X82780500Y-86680009D01*
X82780499Y-85879992D01*
X82769999Y-85777203D01*
X82714814Y-85610666D01*
X82622712Y-85461344D01*
X82528695Y-85367327D01*
X82495210Y-85306004D01*
X82500194Y-85236312D01*
X82528695Y-85191964D01*
X82622317Y-85098342D01*
X82714356Y-84949124D01*
X82714358Y-84949119D01*
X82769505Y-84782697D01*
X82769506Y-84782690D01*
X82779999Y-84679986D01*
X82780000Y-84679973D01*
X82780000Y-84530000D01*
X80374000Y-84530000D01*
X80306961Y-84510315D01*
X80261206Y-84457511D01*
X80250000Y-84406000D01*
X80250000Y-84370000D01*
X79620000Y-84370000D01*
X79620000Y-83870000D01*
X80326000Y-83870000D01*
X80393039Y-83889685D01*
X80438794Y-83942489D01*
X80450000Y-83994000D01*
X80450000Y-84030000D01*
X81330000Y-84030000D01*
X81830000Y-84030000D01*
X82779999Y-84030000D01*
X82779999Y-83880028D01*
X82779998Y-83880013D01*
X82769505Y-83777302D01*
X82714358Y-83610880D01*
X82714356Y-83610875D01*
X82622315Y-83461654D01*
X82498345Y-83337684D01*
X82349124Y-83245643D01*
X82349119Y-83245641D01*
X82182697Y-83190494D01*
X82182690Y-83190493D01*
X82079986Y-83180000D01*
X81830000Y-83180000D01*
X81830000Y-84030000D01*
X81330000Y-84030000D01*
X81330000Y-83180000D01*
X81080029Y-83180000D01*
X81080012Y-83180001D01*
X80977302Y-83190494D01*
X80810880Y-83245641D01*
X80810875Y-83245643D01*
X80661654Y-83337684D01*
X80537683Y-83461655D01*
X80537210Y-83462423D01*
X80536748Y-83462838D01*
X80533202Y-83467323D01*
X80532435Y-83466717D01*
X80485261Y-83509146D01*
X80416298Y-83520366D01*
X80352216Y-83492521D01*
X80313362Y-83434451D01*
X80310056Y-83421514D01*
X80281572Y-83278318D01*
X80281569Y-83278306D01*
X80206192Y-83096328D01*
X80206185Y-83096315D01*
X80096751Y-82932537D01*
X80096748Y-82932533D01*
X79957466Y-82793251D01*
X79957462Y-82793248D01*
X79793684Y-82683814D01*
X79793671Y-82683807D01*
X79611691Y-82608429D01*
X79611683Y-82608427D01*
X79570000Y-82600135D01*
X79570000Y-83403011D01*
X79560060Y-83385795D01*
X79504205Y-83329940D01*
X79435796Y-83290444D01*
X79359496Y-83270000D01*
X79280504Y-83270000D01*
X79204204Y-83290444D01*
X79135795Y-83329940D01*
X79079940Y-83385795D01*
X79070000Y-83403011D01*
X79070000Y-82585606D01*
X79053106Y-82560806D01*
X79053105Y-82560801D01*
X79053104Y-82560800D01*
X79053103Y-82560795D01*
X79047487Y-82532425D01*
X79047100Y-82527510D01*
X79047099Y-82527504D01*
X79001283Y-82369806D01*
X79001282Y-82369803D01*
X78917685Y-82228447D01*
X78917678Y-82228438D01*
X78801561Y-82112321D01*
X78801552Y-82112314D01*
X78660196Y-82028717D01*
X78660193Y-82028716D01*
X78502494Y-81982900D01*
X78502497Y-81982900D01*
X78500000Y-81982703D01*
X78500000Y-83081000D01*
X78480315Y-83148039D01*
X78427511Y-83193794D01*
X78376000Y-83205000D01*
X78374500Y-83205000D01*
X78307461Y-83185315D01*
X78261706Y-83132511D01*
X78250500Y-83081000D01*
X78250500Y-82564313D01*
X78250499Y-82564298D01*
X78250224Y-82560806D01*
X78247598Y-82527431D01*
X78241089Y-82505028D01*
X78201745Y-82369606D01*
X78201744Y-82369603D01*
X78201744Y-82369602D01*
X78118081Y-82228135D01*
X78118079Y-82228133D01*
X78118076Y-82228129D01*
X78036319Y-82146372D01*
X78002834Y-82085049D01*
X78000000Y-82058691D01*
X78000000Y-81982703D01*
X77997504Y-81982900D01*
X77885490Y-82015444D01*
X77816300Y-82015444D01*
X77702573Y-81982402D01*
X77702567Y-81982401D01*
X77663267Y-81979309D01*
X77663317Y-81978667D01*
X77599586Y-81957187D01*
X77555952Y-81902618D01*
X77548747Y-81833121D01*
X77567590Y-81786709D01*
X77589115Y-81754494D01*
X77619394Y-81709179D01*
X77679737Y-81563497D01*
X77710500Y-81408842D01*
X77710500Y-81251158D01*
X77710500Y-81251155D01*
X77690083Y-81148514D01*
X77686387Y-81129935D01*
X77692614Y-81060344D01*
X77735477Y-81005167D01*
X77801366Y-80981922D01*
X77842599Y-80986668D01*
X77897426Y-81002597D01*
X77897429Y-81002597D01*
X77897431Y-81002598D01*
X77934306Y-81005500D01*
X77934314Y-81005500D01*
X78365686Y-81005500D01*
X78365694Y-81005500D01*
X78402569Y-81002598D01*
X78402571Y-81002597D01*
X78402573Y-81002597D01*
X78464700Y-80984547D01*
X78560398Y-80956744D01*
X78701865Y-80873081D01*
X78701870Y-80873075D01*
X78708031Y-80868298D01*
X78709933Y-80870750D01*
X78758579Y-80844155D01*
X78828274Y-80849104D01*
X78860695Y-80869940D01*
X78861969Y-80868298D01*
X78868132Y-80873078D01*
X78868135Y-80873081D01*
X79009602Y-80956744D01*
X79051224Y-80968836D01*
X79167426Y-81002597D01*
X79167429Y-81002597D01*
X79167431Y-81002598D01*
X79204306Y-81005500D01*
X79204314Y-81005500D01*
X79635686Y-81005500D01*
X79635694Y-81005500D01*
X79672569Y-81002598D01*
X79672571Y-81002597D01*
X79672573Y-81002597D01*
X79734700Y-80984547D01*
X79830398Y-80956744D01*
X79971865Y-80873081D01*
X80027820Y-80817125D01*
X80089141Y-80783642D01*
X80158833Y-80788626D01*
X80214767Y-80830497D01*
X80239184Y-80895961D01*
X80239500Y-80904808D01*
X80239500Y-81240000D01*
X80239501Y-81240019D01*
X80250000Y-81342796D01*
X80250001Y-81342799D01*
X80305185Y-81509331D01*
X80305187Y-81509336D01*
X80316113Y-81527050D01*
X80397288Y-81658656D01*
X80521344Y-81782712D01*
X80670666Y-81874814D01*
X80837203Y-81929999D01*
X80939991Y-81940500D01*
X81940008Y-81940499D01*
X81940016Y-81940498D01*
X81940019Y-81940498D01*
X82018754Y-81932455D01*
X82042797Y-81929999D01*
X82209334Y-81874814D01*
X82358656Y-81782712D01*
X82482712Y-81658656D01*
X82574814Y-81509334D01*
X82629999Y-81342797D01*
X82640500Y-81240009D01*
X82640499Y-81072228D01*
X82660183Y-81005189D01*
X82676813Y-80984552D01*
X83205296Y-80456070D01*
X83245522Y-80429192D01*
X83269179Y-80419394D01*
X83400289Y-80331789D01*
X83511789Y-80220289D01*
X83599394Y-80089179D01*
X83659737Y-79943497D01*
X83690500Y-79788842D01*
X83690500Y-79631158D01*
X83690500Y-79631155D01*
X83690499Y-79631153D01*
X83668149Y-79518794D01*
X83659737Y-79476503D01*
X83648235Y-79448735D01*
X83599397Y-79330827D01*
X83599390Y-79330814D01*
X83511789Y-79199711D01*
X83511786Y-79199707D01*
X83400292Y-79088213D01*
X83400288Y-79088210D01*
X83269185Y-79000609D01*
X83269172Y-79000602D01*
X83123501Y-78940264D01*
X83123489Y-78940261D01*
X82968845Y-78909500D01*
X82968842Y-78909500D01*
X82874451Y-78909500D01*
X82807412Y-78889815D01*
X82761657Y-78837011D01*
X82751713Y-78767853D01*
X82780738Y-78704297D01*
X82786770Y-78697819D01*
X83375137Y-78109452D01*
X83907820Y-77576768D01*
X83969142Y-77543285D01*
X84038834Y-77548269D01*
G37*
G04 #@! TD.AperFunction*
G04 #@! TA.AperFunction,Conductor*
G36*
X73084996Y-84673829D02*
G01*
X73120648Y-84733918D01*
X73124500Y-84764583D01*
X73124500Y-85209547D01*
X73104815Y-85276586D01*
X73088181Y-85297228D01*
X72757229Y-85628181D01*
X72695906Y-85661666D01*
X72669548Y-85664500D01*
X71398692Y-85664500D01*
X71331653Y-85644815D01*
X71285898Y-85592011D01*
X71275954Y-85522853D01*
X71304979Y-85459297D01*
X71313296Y-85451199D01*
X71313156Y-85451059D01*
X71456748Y-85307466D01*
X71456751Y-85307462D01*
X71569574Y-85138613D01*
X71571007Y-85139570D01*
X71614198Y-85095580D01*
X71682332Y-85080103D01*
X71748018Y-85103919D01*
X71750089Y-85105697D01*
X71750189Y-85105568D01*
X71756630Y-85110510D01*
X71756635Y-85110515D01*
X71887865Y-85186281D01*
X72034234Y-85225500D01*
X72034236Y-85225500D01*
X72185764Y-85225500D01*
X72185766Y-85225500D01*
X72332135Y-85186281D01*
X72463365Y-85110515D01*
X72570515Y-85003365D01*
X72646281Y-84872135D01*
X72664897Y-84802655D01*
X72701260Y-84742997D01*
X72760477Y-84713133D01*
X72837823Y-84697749D01*
X72927350Y-84660666D01*
X72953048Y-84650022D01*
X73022517Y-84642553D01*
X73084996Y-84673829D01*
G37*
G04 #@! TD.AperFunction*
G04 #@! TA.AperFunction,Conductor*
G36*
X78367980Y-85087411D02*
G01*
X78424176Y-85128930D01*
X78430394Y-85138634D01*
X78430426Y-85138613D01*
X78543248Y-85307462D01*
X78543251Y-85307466D01*
X78608604Y-85372819D01*
X78642089Y-85434142D01*
X78637105Y-85503834D01*
X78595233Y-85559767D01*
X78529769Y-85584184D01*
X78520923Y-85584500D01*
X77780452Y-85584500D01*
X77713413Y-85564815D01*
X77692771Y-85548181D01*
X77533383Y-85388793D01*
X77499898Y-85327470D01*
X77504882Y-85257778D01*
X77546754Y-85201845D01*
X77612218Y-85177428D01*
X77659758Y-85185130D01*
X77660014Y-85184177D01*
X77667863Y-85186280D01*
X77667865Y-85186281D01*
X77814234Y-85225500D01*
X77814236Y-85225500D01*
X77965764Y-85225500D01*
X77965766Y-85225500D01*
X78112135Y-85186281D01*
X78243365Y-85110515D01*
X78243372Y-85110507D01*
X78249811Y-85105568D01*
X78252044Y-85108478D01*
X78298258Y-85082865D01*
X78367980Y-85087411D01*
G37*
G04 #@! TD.AperFunction*
G04 #@! TA.AperFunction,Conductor*
G36*
X70978057Y-82170185D02*
G01*
X71023812Y-82222989D01*
X71033756Y-82292147D01*
X71017750Y-82337621D01*
X70998717Y-82369803D01*
X70998716Y-82369806D01*
X70952900Y-82527504D01*
X70952898Y-82527517D01*
X70952511Y-82532436D01*
X70930000Y-82591485D01*
X70930000Y-83403011D01*
X70920060Y-83385795D01*
X70864205Y-83329940D01*
X70795796Y-83290444D01*
X70719496Y-83270000D01*
X70640504Y-83270000D01*
X70564204Y-83290444D01*
X70495795Y-83329940D01*
X70439940Y-83385795D01*
X70430000Y-83403011D01*
X70430000Y-82600136D01*
X70429999Y-82600135D01*
X70388316Y-82608427D01*
X70388308Y-82608429D01*
X70206328Y-82683807D01*
X70206315Y-82683814D01*
X70042537Y-82793248D01*
X70042533Y-82793251D01*
X69903251Y-82932533D01*
X69903248Y-82932537D01*
X69793814Y-83096315D01*
X69793807Y-83096328D01*
X69718430Y-83278306D01*
X69718427Y-83278318D01*
X69680000Y-83471504D01*
X69680000Y-83870000D01*
X70380000Y-83870000D01*
X70380000Y-84370000D01*
X69680000Y-84370000D01*
X69675539Y-84374460D01*
X69660315Y-84426309D01*
X69607511Y-84472064D01*
X69538353Y-84482008D01*
X69474797Y-84452983D01*
X69468319Y-84446951D01*
X69408657Y-84387289D01*
X69408656Y-84387288D01*
X69310033Y-84326457D01*
X69259336Y-84295187D01*
X69259331Y-84295185D01*
X69220377Y-84282277D01*
X69092797Y-84240001D01*
X69092795Y-84240000D01*
X68990016Y-84229500D01*
X68064128Y-84229500D01*
X67997089Y-84209815D01*
X67951334Y-84157011D01*
X67941390Y-84087853D01*
X67949565Y-84058053D01*
X67959737Y-84033497D01*
X67990500Y-83878842D01*
X67990500Y-83721158D01*
X67990500Y-83721155D01*
X67990499Y-83721153D01*
X67978075Y-83658693D01*
X67959737Y-83566503D01*
X67899394Y-83420821D01*
X67899393Y-83420820D01*
X67899390Y-83420814D01*
X67811789Y-83289711D01*
X67811786Y-83289707D01*
X67700292Y-83178213D01*
X67700288Y-83178210D01*
X67569185Y-83090609D01*
X67569172Y-83090602D01*
X67423501Y-83030264D01*
X67423489Y-83030261D01*
X67268845Y-82999500D01*
X67268842Y-82999500D01*
X67111158Y-82999500D01*
X67073189Y-83007052D01*
X67003597Y-83000823D01*
X66948420Y-82957959D01*
X66925177Y-82892069D01*
X66924999Y-82885434D01*
X66924999Y-82505028D01*
X66924998Y-82505013D01*
X66914505Y-82402302D01*
X66885081Y-82313504D01*
X66882679Y-82243675D01*
X66918411Y-82183634D01*
X66980932Y-82152441D01*
X67002787Y-82150500D01*
X70911018Y-82150500D01*
X70978057Y-82170185D01*
G37*
G04 #@! TD.AperFunction*
G04 #@! TA.AperFunction,Conductor*
G36*
X68960539Y-75729685D02*
G01*
X69006294Y-75782489D01*
X69017500Y-75834000D01*
X69017500Y-76586880D01*
X69024666Y-76600004D01*
X69027500Y-76626362D01*
X69027500Y-77670000D01*
X69864999Y-77670000D01*
X69864999Y-77395028D01*
X69864998Y-77395013D01*
X69854505Y-77292302D01*
X69799358Y-77125880D01*
X69799356Y-77125875D01*
X69707317Y-76976657D01*
X69628341Y-76897680D01*
X69594857Y-76836356D01*
X69599841Y-76766665D01*
X69628342Y-76722317D01*
X69697317Y-76653342D01*
X69789356Y-76504124D01*
X69789358Y-76504119D01*
X69844505Y-76337697D01*
X69844506Y-76337690D01*
X69854999Y-76234986D01*
X69854999Y-76067654D01*
X69874683Y-76000614D01*
X69927487Y-75954859D01*
X69996645Y-75944915D01*
X70042118Y-75960920D01*
X70119602Y-76006744D01*
X70209928Y-76032986D01*
X70263012Y-76064380D01*
X70791586Y-76592954D01*
X70802138Y-76600004D01*
X70847415Y-76630256D01*
X70914505Y-76675084D01*
X70914507Y-76675085D01*
X70914511Y-76675087D01*
X71051082Y-76731656D01*
X71051087Y-76731658D01*
X71051091Y-76731658D01*
X71051092Y-76731659D01*
X71196079Y-76760500D01*
X71196082Y-76760500D01*
X71196083Y-76760500D01*
X71343917Y-76760500D01*
X72175500Y-76760500D01*
X72242539Y-76780185D01*
X72288294Y-76832989D01*
X72299500Y-76884500D01*
X72299500Y-76898846D01*
X72319543Y-76999608D01*
X72313316Y-77069199D01*
X72270453Y-77124377D01*
X72204563Y-77147621D01*
X72150474Y-77138360D01*
X72058501Y-77100264D01*
X72058489Y-77100261D01*
X71903845Y-77069500D01*
X71903842Y-77069500D01*
X71746158Y-77069500D01*
X71746155Y-77069500D01*
X71591510Y-77100261D01*
X71591498Y-77100264D01*
X71445827Y-77160602D01*
X71445814Y-77160609D01*
X71314711Y-77248210D01*
X71314707Y-77248213D01*
X71203213Y-77359707D01*
X71203210Y-77359711D01*
X71115609Y-77490814D01*
X71115602Y-77490827D01*
X71055264Y-77636498D01*
X71055261Y-77636510D01*
X71024500Y-77791153D01*
X71024500Y-77948843D01*
X71024727Y-77951150D01*
X71024500Y-77952346D01*
X71024500Y-77954934D01*
X71024009Y-77954934D01*
X71011703Y-78019796D01*
X70963635Y-78070503D01*
X70895783Y-78087172D01*
X70866729Y-78082373D01*
X70782492Y-78057900D01*
X70780000Y-78057703D01*
X70780000Y-79406000D01*
X70760315Y-79473039D01*
X70707511Y-79518794D01*
X70656000Y-79530000D01*
X70530000Y-79530000D01*
X70530000Y-79656000D01*
X70510315Y-79723039D01*
X70457511Y-79768794D01*
X70406000Y-79780000D01*
X69730000Y-79780000D01*
X69730000Y-80420649D01*
X69732899Y-80457489D01*
X69742608Y-80490906D01*
X69742408Y-80560775D01*
X69704465Y-80619445D01*
X69640827Y-80648288D01*
X69623531Y-80649500D01*
X66716230Y-80649500D01*
X66649191Y-80629815D01*
X66603436Y-80577011D01*
X66593492Y-80507853D01*
X66622517Y-80444297D01*
X66628549Y-80437819D01*
X67235447Y-79830920D01*
X67235450Y-79830917D01*
X67235449Y-79830917D01*
X67235452Y-79830915D01*
X67289112Y-79750606D01*
X67317584Y-79707995D01*
X67349411Y-79631158D01*
X67374159Y-79571412D01*
X67393038Y-79476498D01*
X67398561Y-79448735D01*
X67398561Y-79448732D01*
X67403000Y-79426418D01*
X67403000Y-79122087D01*
X67422685Y-79055048D01*
X67461902Y-79016548D01*
X67508656Y-78987712D01*
X67632712Y-78863656D01*
X67634752Y-78860347D01*
X67636745Y-78858555D01*
X67637193Y-78857989D01*
X67637289Y-78858065D01*
X67686694Y-78813623D01*
X67755656Y-78802395D01*
X67819740Y-78830234D01*
X67845829Y-78860339D01*
X67847681Y-78863341D01*
X67847683Y-78863344D01*
X67971654Y-78987315D01*
X68120875Y-79079356D01*
X68120880Y-79079358D01*
X68287302Y-79134505D01*
X68287309Y-79134506D01*
X68390019Y-79144999D01*
X68527499Y-79144999D01*
X68527500Y-79144998D01*
X68527500Y-78170000D01*
X69027500Y-78170000D01*
X69027500Y-79144999D01*
X69164972Y-79144999D01*
X69164986Y-79144998D01*
X69267697Y-79134505D01*
X69434119Y-79079358D01*
X69434130Y-79079353D01*
X69540903Y-79013495D01*
X69608295Y-78995054D01*
X69674959Y-79015976D01*
X69719729Y-79069618D01*
X69730000Y-79119033D01*
X69730000Y-79280000D01*
X70280000Y-79280000D01*
X70280000Y-78057703D01*
X70277503Y-78057900D01*
X70119806Y-78103716D01*
X70119799Y-78103719D01*
X70000827Y-78174078D01*
X69933103Y-78191261D01*
X69869529Y-78170000D01*
X69027500Y-78170000D01*
X68527500Y-78170000D01*
X68527500Y-77043119D01*
X68520334Y-77029996D01*
X68517500Y-77003638D01*
X68517500Y-75834000D01*
X68537185Y-75766961D01*
X68589989Y-75721206D01*
X68641500Y-75710000D01*
X68893500Y-75710000D01*
X68960539Y-75729685D01*
G37*
G04 #@! TD.AperFunction*
G04 #@! TA.AperFunction,Conductor*
G36*
X78399809Y-72365185D02*
G01*
X78420451Y-72381819D01*
X78421344Y-72382712D01*
X78570666Y-72474814D01*
X78737203Y-72529999D01*
X78839991Y-72540500D01*
X79647769Y-72540499D01*
X79714808Y-72560183D01*
X79735450Y-72576818D01*
X80303551Y-73144919D01*
X80756214Y-73597581D01*
X80789699Y-73658904D01*
X80784715Y-73728596D01*
X80742843Y-73784529D01*
X80707538Y-73802967D01*
X80670674Y-73815182D01*
X80670663Y-73815187D01*
X80521342Y-73907289D01*
X80432181Y-73996451D01*
X80370858Y-74029936D01*
X80301166Y-74024952D01*
X80245233Y-73983080D01*
X80220816Y-73917616D01*
X80220500Y-73908770D01*
X80220500Y-73689313D01*
X80220499Y-73689298D01*
X80217598Y-73652432D01*
X80217597Y-73652426D01*
X80171745Y-73494606D01*
X80171744Y-73494603D01*
X80171744Y-73494602D01*
X80088081Y-73353135D01*
X80088079Y-73353133D01*
X80088076Y-73353129D01*
X79971870Y-73236923D01*
X79971862Y-73236917D01*
X79830396Y-73153255D01*
X79830393Y-73153254D01*
X79672573Y-73107402D01*
X79672567Y-73107401D01*
X79635701Y-73104500D01*
X79635694Y-73104500D01*
X79204306Y-73104500D01*
X79204298Y-73104500D01*
X79167432Y-73107401D01*
X79167426Y-73107402D01*
X79009606Y-73153254D01*
X79009603Y-73153255D01*
X78868137Y-73236917D01*
X78861969Y-73241702D01*
X78860072Y-73239256D01*
X78811358Y-73265857D01*
X78741666Y-73260873D01*
X78709296Y-73240069D01*
X78708031Y-73241702D01*
X78701862Y-73236917D01*
X78560396Y-73153255D01*
X78560393Y-73153254D01*
X78402573Y-73107402D01*
X78402567Y-73107401D01*
X78365701Y-73104500D01*
X78365694Y-73104500D01*
X77934306Y-73104500D01*
X77934298Y-73104500D01*
X77897432Y-73107401D01*
X77897426Y-73107402D01*
X77739606Y-73153254D01*
X77739603Y-73153255D01*
X77598137Y-73236917D01*
X77591969Y-73241702D01*
X77590072Y-73239256D01*
X77541358Y-73265857D01*
X77471666Y-73260873D01*
X77439296Y-73240069D01*
X77438031Y-73241702D01*
X77431862Y-73236917D01*
X77290396Y-73153255D01*
X77290393Y-73153254D01*
X77132573Y-73107402D01*
X77132567Y-73107401D01*
X77095701Y-73104500D01*
X77095694Y-73104500D01*
X76664306Y-73104500D01*
X76664298Y-73104500D01*
X76627432Y-73107401D01*
X76627426Y-73107402D01*
X76469606Y-73153254D01*
X76469603Y-73153255D01*
X76328137Y-73236917D01*
X76321969Y-73241702D01*
X76320072Y-73239256D01*
X76271358Y-73265857D01*
X76201666Y-73260873D01*
X76169296Y-73240069D01*
X76168031Y-73241702D01*
X76161862Y-73236917D01*
X76020396Y-73153255D01*
X76020393Y-73153254D01*
X75862573Y-73107402D01*
X75862567Y-73107401D01*
X75825701Y-73104500D01*
X75825694Y-73104500D01*
X75394306Y-73104500D01*
X75394298Y-73104500D01*
X75357432Y-73107401D01*
X75357426Y-73107402D01*
X75199606Y-73153254D01*
X75199605Y-73153254D01*
X75118932Y-73200963D01*
X75051207Y-73218144D01*
X74984945Y-73195984D01*
X74941252Y-73141685D01*
X74919311Y-73088714D01*
X74919309Y-73088711D01*
X74919307Y-73088707D01*
X74850859Y-72986268D01*
X74822659Y-72958068D01*
X74763733Y-72899142D01*
X74763732Y-72899141D01*
X74421772Y-72557181D01*
X74388287Y-72495858D01*
X74393271Y-72426166D01*
X74435143Y-72370233D01*
X74500607Y-72345816D01*
X74509453Y-72345500D01*
X78332770Y-72345500D01*
X78399809Y-72365185D01*
G37*
G04 #@! TD.AperFunction*
M02*
