M48
; DRILL file KiCad 10.0.6 date 2026-09-04T16:21:37
; FORMAT={-:-/ absolute / metric / decimal}
; #@! TF.CreationDate,2026-09-04T16:21:37-04:00
; #@! TF.GenerationSoftware,Kicad,Pcbnew,10.0.6
; #@! TF.FileFunction,MixedPlating,1,2
FMAT,2
METRIC
; #@! TA.AperFunction,Plated,PTH,ComponentDrill
T1C0.200
; #@! TA.AperFunction,Plated,PTH,ViaDrill
T2C0.300
; #@! TA.AperFunction,Plated,PTH,ComponentDrill
T3C0.600
; #@! TA.AperFunction,Plated,PTH,ComponentDrill
T4C1.000
; #@! TA.AperFunction,NonPlated,NPTH,ComponentDrill
T5C0.650
%
G90
G05
T1
X64.83Y-58.38
X64.83Y-59.78
X65.53Y-57.68
X65.53Y-59.08
X65.53Y-60.48
X66.23Y-58.38
X66.23Y-59.78
X66.93Y-57.68
X66.93Y-59.08
X66.93Y-60.48
X67.63Y-58.38
X67.63Y-59.78
T2
X52.97Y-63.92
X54.89Y-68.87
X56.06Y-80.67
X56.73Y-60.99
X57.42Y-70.76
X57.48Y-69.54
X60.37Y-80.71
X60.67Y-54.85
X60.839Y-71.416
X62.72Y-54.47
X62.76Y-64.49
X62.77Y-72.01
X64.75Y-73.77
X65.33Y-80.46
X67.19Y-83.8
X68.06Y-83.03
X69.08Y-83.04
X70.5Y-77.64
X70.51Y-76.71
X70.57Y-71.385
X71.35Y-85.52
X71.47Y-72.02
X71.54Y-64.5
X71.57Y-54.35
X71.825Y-77.87
X72.33Y-71.37
X72.604Y-83.928
X73.1Y-76.82
X73.875Y-71.595
X74.24Y-81.37
X74.93Y-55.2
X74.96Y-56.48
X76.91Y-81.33
X76.96Y-72.66
X77.396Y-83.928
X78.51Y-85.49
X78.62Y-81.31
X81.58Y-82.44
X82.43Y-88.29
X82.89Y-79.71
X82.9Y-52.91
X82.9Y-73.57
X83.44Y-82.45
T4
X80.56Y-52.83
X80.56Y-55.37
X80.56Y-57.91
X80.56Y-60.45
X80.56Y-62.99
X80.56Y-65.53
T5
X72.11Y-84.65
X77.89Y-84.65
T3
G00X70.68Y-83.57
M15
G01X70.68Y-84.67
M16
G05
G00X70.68Y-88.0
M15
G01X70.68Y-88.6
M16
G05
G00X79.32Y-83.57
M15
G01X79.32Y-84.67
M16
G05
G00X79.32Y-88.0
M15
G01X79.32Y-88.6
M16
G05
M30
