G04 #@! TF.GenerationSoftware,KiCad,Pcbnew,10.0.6*
G04 #@! TF.CreationDate,2026-09-04T16:18:08-04:00*
G04 #@! TF.ProjectId,KiCAD_ESP32_Sensor,4b694341-445f-4455-9350-33325f53656e,rev?*
G04 #@! TF.SameCoordinates,Original*
G04 #@! TF.FileFunction,Copper,L2,Bot*
G04 #@! TF.FilePolarity,Positive*
%FSLAX46Y46*%
G04 Gerber Fmt 4.6, Leading zero omitted, Abs format (unit mm)*
G04 Created by KiCad (PCBNEW 10.0.6) date 2026-09-04 16:18:08*
%MOMM*%
%LPD*%
G01*
G04 APERTURE LIST*
G04 #@! TA.AperFunction,HeatsinkPad*
%ADD10C,0.600000*%
G04 #@! TD*
G04 #@! TA.AperFunction,ComponentPad*
%ADD11O,1.000000X2.100000*%
G04 #@! TD*
G04 #@! TA.AperFunction,ComponentPad*
%ADD12O,1.000000X1.600000*%
G04 #@! TD*
G04 #@! TA.AperFunction,ComponentPad*
%ADD13R,1.700000X1.700000*%
G04 #@! TD*
G04 #@! TA.AperFunction,ComponentPad*
%ADD14C,1.700000*%
G04 #@! TD*
G04 #@! TA.AperFunction,ViaPad*
%ADD15C,0.600000*%
G04 #@! TD*
G04 #@! TA.AperFunction,Conductor*
%ADD16C,0.500000*%
G04 #@! TD*
G04 #@! TA.AperFunction,Conductor*
%ADD17C,0.250000*%
G04 #@! TD*
G04 APERTURE END LIST*
D10*
X64830000Y-58380000D03*
X64830000Y-59780000D03*
X65530000Y-57680000D03*
X65530000Y-59080000D03*
X65530000Y-60480000D03*
X66230000Y-58380000D03*
X66230000Y-59780000D03*
X66930000Y-57680000D03*
X66930000Y-59080000D03*
X66930000Y-60480000D03*
X67630000Y-58380000D03*
X67630000Y-59780000D03*
D11*
X70680000Y-84120000D03*
D12*
X70680000Y-88300000D03*
D11*
X79320000Y-84120000D03*
D12*
X79320000Y-88300000D03*
D13*
X80560000Y-52830000D03*
D14*
X80560000Y-55370000D03*
X80560000Y-57910000D03*
X80560000Y-60450000D03*
X80560000Y-62990000D03*
X80560000Y-65530000D03*
D15*
X52970000Y-63920000D03*
X56060000Y-80670000D03*
X60370000Y-80710000D03*
X82430000Y-88290000D03*
X78620000Y-81310000D03*
X70500000Y-77640000D03*
X70510000Y-76710000D03*
X57480000Y-69540000D03*
X82900000Y-52910000D03*
X67190000Y-83800000D03*
X65330000Y-80460000D03*
X82900000Y-73570000D03*
X82890000Y-79710000D03*
X64750000Y-73770000D03*
X73875000Y-71595000D03*
X62760000Y-64490000D03*
X71350000Y-85520000D03*
X83440000Y-82450000D03*
X71570000Y-54350000D03*
X76960000Y-72660000D03*
X71540000Y-64500000D03*
X68060000Y-83030000D03*
X78510000Y-85490000D03*
X81580000Y-82440000D03*
X69080000Y-83040000D03*
X62720000Y-54470000D03*
X72330000Y-71370000D03*
X57420000Y-70760000D03*
X60670000Y-54850000D03*
X56730000Y-60990000D03*
X72604326Y-83928012D03*
X77395674Y-83928011D03*
X60838750Y-71416250D03*
X70570000Y-71385000D03*
X62770000Y-72010000D03*
X71470000Y-72020000D03*
X71825000Y-77870000D03*
X74960000Y-56480000D03*
X73100000Y-76820000D03*
X74930000Y-55200000D03*
X74240000Y-81370000D03*
X76910000Y-81330000D03*
X54890000Y-68870000D03*
D16*
X82900000Y-73570000D02*
X82900000Y-52910000D01*
X64750000Y-73770000D02*
X65750000Y-72770000D01*
X56309670Y-70710330D02*
X57480000Y-69540000D01*
X82890000Y-79710000D02*
X82890000Y-73580000D01*
X82890000Y-73580000D02*
X82900000Y-73570000D01*
X65750000Y-72770000D02*
X72700000Y-72770000D01*
X63470000Y-73770000D02*
X62030000Y-72330000D01*
X56309670Y-71069670D02*
X56309670Y-70710330D01*
X64750000Y-73770000D02*
X63470000Y-73770000D01*
X57570000Y-72330000D02*
X56309670Y-71069670D01*
X72700000Y-72770000D02*
X73875000Y-71595000D01*
X62030000Y-72330000D02*
X57570000Y-72330000D01*
D17*
X71770000Y-70760000D02*
X72330000Y-71320000D01*
X57420000Y-70760000D02*
X71770000Y-70760000D01*
X72330000Y-71320000D02*
X72330000Y-71370000D01*
X56730000Y-60990000D02*
X60220000Y-60990000D01*
X60220000Y-60990000D02*
X60670000Y-60540000D01*
X60670000Y-60540000D02*
X60670000Y-54850000D01*
D16*
X76470000Y-84860000D02*
X77395674Y-83934326D01*
X73536314Y-84860000D02*
X76470000Y-84860000D01*
X72604326Y-83928012D02*
X73536314Y-84860000D01*
X77395674Y-83934326D02*
X77395674Y-83928011D01*
D17*
X60870000Y-71385000D02*
X60838750Y-71416250D01*
X70570000Y-71385000D02*
X70565000Y-71390000D01*
X63028884Y-71385000D02*
X60870000Y-71385000D01*
X63033884Y-71390000D02*
X63028884Y-71385000D01*
X70565000Y-71390000D02*
X63033884Y-71390000D01*
X71470000Y-72020000D02*
X71460000Y-72010000D01*
X71460000Y-72010000D02*
X62770000Y-72010000D01*
X71865000Y-77830000D02*
X73090000Y-77830000D01*
X75230000Y-75690000D02*
X75230000Y-56750000D01*
X73090000Y-77830000D02*
X75230000Y-75690000D01*
X75230000Y-56750000D02*
X74960000Y-56480000D01*
X71825000Y-77870000D02*
X71865000Y-77830000D01*
X74335000Y-56738884D02*
X74335000Y-55795000D01*
X74335000Y-55795000D02*
X74930000Y-55200000D01*
X74780000Y-75140000D02*
X74780000Y-57183884D01*
X74780000Y-57183884D02*
X74335000Y-56738884D01*
X73100000Y-76820000D02*
X74780000Y-75140000D01*
X76910000Y-81330000D02*
X74280000Y-81330000D01*
X74280000Y-81330000D02*
X74240000Y-81370000D01*
D16*
X67190000Y-82320000D02*
X67190000Y-83800000D01*
X65330000Y-80460000D02*
X67190000Y-82320000D01*
G04 #@! TA.AperFunction,Conductor*
G36*
X82062130Y-55421203D02*
G01*
X82120363Y-55459813D01*
X82148477Y-55523776D01*
X82149500Y-55539669D01*
X82149500Y-57737133D01*
X82129815Y-57804172D01*
X82077011Y-57849927D01*
X82007853Y-57859871D01*
X81944297Y-57830846D01*
X81906523Y-57772068D01*
X81903027Y-57756531D01*
X81877246Y-57593760D01*
X81877246Y-57593757D01*
X81811557Y-57391588D01*
X81715051Y-57202184D01*
X81715049Y-57202181D01*
X81715048Y-57202179D01*
X81590109Y-57030213D01*
X81439786Y-56879890D01*
X81267817Y-56754949D01*
X81258504Y-56750204D01*
X81207707Y-56702230D01*
X81190912Y-56634409D01*
X81213449Y-56568274D01*
X81258507Y-56529232D01*
X81267555Y-56524622D01*
X81321716Y-56485270D01*
X81321717Y-56485270D01*
X80689408Y-55852962D01*
X80752993Y-55835925D01*
X80867007Y-55770099D01*
X80960099Y-55677007D01*
X81025925Y-55562993D01*
X81042962Y-55499408D01*
X81675270Y-56131717D01*
X81675270Y-56131716D01*
X81714622Y-56077554D01*
X81811095Y-55888217D01*
X81876757Y-55686130D01*
X81876757Y-55686127D01*
X81903027Y-55520271D01*
X81932956Y-55457136D01*
X81992268Y-55420205D01*
X82062130Y-55421203D01*
G37*
G04 #@! TD.AperFunction*
G04 #@! TA.AperFunction,Conductor*
G36*
X82070896Y-53697507D02*
G01*
X82126075Y-53740368D01*
X82149322Y-53806257D01*
X82149500Y-53812899D01*
X82149500Y-55200330D01*
X82129815Y-55267369D01*
X82077011Y-55313124D01*
X82007853Y-55323068D01*
X81944297Y-55294043D01*
X81906523Y-55235265D01*
X81903027Y-55219728D01*
X81876757Y-55053872D01*
X81876757Y-55053869D01*
X81811095Y-54851782D01*
X81714624Y-54662449D01*
X81675270Y-54608282D01*
X81675269Y-54608282D01*
X81042962Y-55240590D01*
X81025925Y-55177007D01*
X80960099Y-55062993D01*
X80867007Y-54969901D01*
X80752993Y-54904075D01*
X80689409Y-54887037D01*
X81359627Y-54216818D01*
X81420950Y-54183333D01*
X81447307Y-54180499D01*
X81457872Y-54180499D01*
X81517483Y-54174091D01*
X81652331Y-54123796D01*
X81767546Y-54037546D01*
X81853796Y-53922331D01*
X81904091Y-53787483D01*
X81904091Y-53787476D01*
X81904822Y-53784387D01*
X81906050Y-53782228D01*
X81906802Y-53780215D01*
X81907128Y-53780336D01*
X81939394Y-53723670D01*
X82001304Y-53691283D01*
X82070896Y-53697507D01*
G37*
G04 #@! TD.AperFunction*
G04 #@! TA.AperFunction,Conductor*
G36*
X84062539Y-50720185D02*
G01*
X84108294Y-50772989D01*
X84119500Y-50824500D01*
X84119500Y-89575500D01*
X84099815Y-89642539D01*
X84047011Y-89688294D01*
X83995500Y-89699500D01*
X79883210Y-89699500D01*
X79816171Y-89679815D01*
X79770416Y-89627011D01*
X79760472Y-89557853D01*
X79789497Y-89494297D01*
X79814319Y-89472398D01*
X79957462Y-89376751D01*
X79957466Y-89376748D01*
X80096748Y-89237466D01*
X80096751Y-89237462D01*
X80206185Y-89073684D01*
X80206192Y-89073671D01*
X80281569Y-88891693D01*
X80281572Y-88891681D01*
X80319999Y-88698495D01*
X80320000Y-88698492D01*
X80320000Y-88550000D01*
X79620000Y-88550000D01*
X79620000Y-88050000D01*
X80320000Y-88050000D01*
X80320000Y-87901508D01*
X80319999Y-87901504D01*
X80281572Y-87708318D01*
X80281569Y-87708306D01*
X80206192Y-87526328D01*
X80206185Y-87526315D01*
X80096751Y-87362537D01*
X80096748Y-87362533D01*
X79957466Y-87223251D01*
X79957462Y-87223248D01*
X79793684Y-87113814D01*
X79793671Y-87113807D01*
X79611691Y-87038429D01*
X79611683Y-87038427D01*
X79570000Y-87030135D01*
X79570000Y-87833011D01*
X79560060Y-87815795D01*
X79504205Y-87759940D01*
X79435796Y-87720444D01*
X79359496Y-87700000D01*
X79280504Y-87700000D01*
X79204204Y-87720444D01*
X79135795Y-87759940D01*
X79079940Y-87815795D01*
X79070000Y-87833011D01*
X79070000Y-87030136D01*
X79069999Y-87030135D01*
X79028316Y-87038427D01*
X79028308Y-87038429D01*
X78846328Y-87113807D01*
X78846315Y-87113814D01*
X78682537Y-87223248D01*
X78682533Y-87223251D01*
X78543251Y-87362533D01*
X78543248Y-87362537D01*
X78433814Y-87526315D01*
X78433807Y-87526328D01*
X78358430Y-87708306D01*
X78358427Y-87708318D01*
X78320000Y-87901504D01*
X78320000Y-88050000D01*
X79020000Y-88050000D01*
X79020000Y-88550000D01*
X78320000Y-88550000D01*
X78320000Y-88698495D01*
X78358427Y-88891681D01*
X78358430Y-88891693D01*
X78433807Y-89073671D01*
X78433814Y-89073684D01*
X78543248Y-89237462D01*
X78543251Y-89237466D01*
X78682533Y-89376748D01*
X78682537Y-89376751D01*
X78825681Y-89472398D01*
X78870486Y-89526010D01*
X78879193Y-89595335D01*
X78849038Y-89658363D01*
X78789595Y-89695082D01*
X78756790Y-89699500D01*
X71243210Y-89699500D01*
X71176171Y-89679815D01*
X71130416Y-89627011D01*
X71120472Y-89557853D01*
X71149497Y-89494297D01*
X71174319Y-89472398D01*
X71317462Y-89376751D01*
X71317466Y-89376748D01*
X71456748Y-89237466D01*
X71456751Y-89237462D01*
X71566185Y-89073684D01*
X71566192Y-89073671D01*
X71641569Y-88891693D01*
X71641572Y-88891681D01*
X71679999Y-88698495D01*
X71680000Y-88698492D01*
X71680000Y-88550000D01*
X70980000Y-88550000D01*
X70980000Y-88050000D01*
X71680000Y-88050000D01*
X71680000Y-87901508D01*
X71679999Y-87901504D01*
X71641572Y-87708318D01*
X71641569Y-87708306D01*
X71566192Y-87526328D01*
X71566185Y-87526315D01*
X71456751Y-87362537D01*
X71456748Y-87362533D01*
X71317466Y-87223251D01*
X71317462Y-87223248D01*
X71153684Y-87113814D01*
X71153671Y-87113807D01*
X70971691Y-87038429D01*
X70971683Y-87038427D01*
X70930000Y-87030135D01*
X70930000Y-87833011D01*
X70920060Y-87815795D01*
X70864205Y-87759940D01*
X70795796Y-87720444D01*
X70719496Y-87700000D01*
X70640504Y-87700000D01*
X70564204Y-87720444D01*
X70495795Y-87759940D01*
X70439940Y-87815795D01*
X70430000Y-87833011D01*
X70430000Y-87030136D01*
X70429999Y-87030135D01*
X70388316Y-87038427D01*
X70388308Y-87038429D01*
X70206328Y-87113807D01*
X70206315Y-87113814D01*
X70042537Y-87223248D01*
X70042533Y-87223251D01*
X69903251Y-87362533D01*
X69903248Y-87362537D01*
X69793814Y-87526315D01*
X69793807Y-87526328D01*
X69718430Y-87708306D01*
X69718427Y-87708318D01*
X69680000Y-87901504D01*
X69680000Y-88050000D01*
X70380000Y-88050000D01*
X70380000Y-88550000D01*
X69680000Y-88550000D01*
X69680000Y-88698495D01*
X69718427Y-88891681D01*
X69718430Y-88891693D01*
X69793807Y-89073671D01*
X69793814Y-89073684D01*
X69903248Y-89237462D01*
X69903251Y-89237466D01*
X70042533Y-89376748D01*
X70042537Y-89376751D01*
X70185681Y-89472398D01*
X70230486Y-89526010D01*
X70239193Y-89595335D01*
X70209038Y-89658363D01*
X70149595Y-89695082D01*
X70116790Y-89699500D01*
X52584500Y-89699500D01*
X52517461Y-89679815D01*
X52471706Y-89627011D01*
X52460500Y-89575500D01*
X52460500Y-80381153D01*
X64529500Y-80381153D01*
X64529500Y-80538846D01*
X64560261Y-80693489D01*
X64560264Y-80693501D01*
X64620602Y-80839172D01*
X64620609Y-80839185D01*
X64708210Y-80970288D01*
X64708213Y-80970292D01*
X64819710Y-81081789D01*
X64950815Y-81169390D01*
X64950821Y-81169394D01*
X64974475Y-81179191D01*
X65014703Y-81206071D01*
X66403181Y-82594548D01*
X66436666Y-82655871D01*
X66439500Y-82682229D01*
X66439500Y-83495396D01*
X66430062Y-83542844D01*
X66425256Y-83554449D01*
X66420262Y-83566506D01*
X66420260Y-83566511D01*
X66389500Y-83721153D01*
X66389500Y-83878846D01*
X66420261Y-84033489D01*
X66420264Y-84033501D01*
X66480602Y-84179172D01*
X66480609Y-84179185D01*
X66568210Y-84310288D01*
X66568213Y-84310292D01*
X66679707Y-84421786D01*
X66679711Y-84421789D01*
X66810814Y-84509390D01*
X66810827Y-84509397D01*
X66956498Y-84569735D01*
X66956503Y-84569737D01*
X67111153Y-84600499D01*
X67111156Y-84600500D01*
X67111158Y-84600500D01*
X67268844Y-84600500D01*
X67268845Y-84600499D01*
X67423497Y-84569737D01*
X67569179Y-84509394D01*
X67700289Y-84421789D01*
X67811789Y-84310289D01*
X67824415Y-84291392D01*
X67852242Y-84249748D01*
X67852242Y-84249747D01*
X67857531Y-84241830D01*
X67899394Y-84179179D01*
X67959737Y-84033497D01*
X67990500Y-83878842D01*
X67990500Y-83721158D01*
X67990500Y-83721155D01*
X67990499Y-83721153D01*
X67959739Y-83566511D01*
X67959738Y-83566508D01*
X67959737Y-83566503D01*
X67949937Y-83542844D01*
X67948311Y-83534670D01*
X67945523Y-83530331D01*
X67940500Y-83495396D01*
X67940500Y-83471504D01*
X69680000Y-83471504D01*
X69680000Y-83870000D01*
X70380000Y-83870000D01*
X70380000Y-84370000D01*
X69680000Y-84370000D01*
X69680000Y-84768495D01*
X69718427Y-84961681D01*
X69718430Y-84961693D01*
X69793807Y-85143671D01*
X69793814Y-85143684D01*
X69903248Y-85307462D01*
X69903251Y-85307466D01*
X70042533Y-85446748D01*
X70042537Y-85446751D01*
X70206315Y-85556185D01*
X70206328Y-85556192D01*
X70388308Y-85631569D01*
X70430000Y-85639862D01*
X70430000Y-84836988D01*
X70439940Y-84854205D01*
X70495795Y-84910060D01*
X70564204Y-84949556D01*
X70640504Y-84970000D01*
X70719496Y-84970000D01*
X70795796Y-84949556D01*
X70864205Y-84910060D01*
X70920060Y-84854205D01*
X70930000Y-84836988D01*
X70930000Y-85639862D01*
X70971690Y-85631569D01*
X70971692Y-85631569D01*
X71153671Y-85556192D01*
X71153684Y-85556185D01*
X71317462Y-85446751D01*
X71317466Y-85446748D01*
X71456748Y-85307466D01*
X71456751Y-85307462D01*
X71569574Y-85138613D01*
X71571007Y-85139570D01*
X71614198Y-85095580D01*
X71682332Y-85080103D01*
X71748018Y-85103919D01*
X71750089Y-85105697D01*
X71750189Y-85105568D01*
X71756630Y-85110510D01*
X71756635Y-85110515D01*
X71887865Y-85186281D01*
X72034234Y-85225500D01*
X72034236Y-85225500D01*
X72185764Y-85225500D01*
X72185766Y-85225500D01*
X72332135Y-85186281D01*
X72463365Y-85110515D01*
X72506732Y-85067148D01*
X72568055Y-85033663D01*
X72637747Y-85038647D01*
X72682094Y-85067148D01*
X73057900Y-85442954D01*
X73087372Y-85462645D01*
X73131584Y-85492186D01*
X73180819Y-85525084D01*
X73180820Y-85525084D01*
X73180821Y-85525085D01*
X73180823Y-85525086D01*
X73317396Y-85581656D01*
X73317401Y-85581658D01*
X73317405Y-85581658D01*
X73317406Y-85581659D01*
X73462393Y-85610500D01*
X73462396Y-85610500D01*
X76543920Y-85610500D01*
X76641462Y-85591096D01*
X76688913Y-85581658D01*
X76825495Y-85525084D01*
X76874729Y-85492186D01*
X76874734Y-85492183D01*
X76899071Y-85475921D01*
X76948416Y-85442952D01*
X77321064Y-85070302D01*
X77382385Y-85036819D01*
X77452076Y-85041803D01*
X77496424Y-85070304D01*
X77536635Y-85110515D01*
X77667865Y-85186281D01*
X77814234Y-85225500D01*
X77814236Y-85225500D01*
X77965764Y-85225500D01*
X77965766Y-85225500D01*
X78112135Y-85186281D01*
X78243365Y-85110515D01*
X78243372Y-85110507D01*
X78249811Y-85105568D01*
X78252044Y-85108478D01*
X78298258Y-85082865D01*
X78367980Y-85087411D01*
X78424176Y-85128930D01*
X78430394Y-85138634D01*
X78430426Y-85138613D01*
X78543248Y-85307462D01*
X78543251Y-85307466D01*
X78682533Y-85446748D01*
X78682537Y-85446751D01*
X78846315Y-85556185D01*
X78846328Y-85556192D01*
X79028308Y-85631569D01*
X79070000Y-85639862D01*
X79070000Y-84836988D01*
X79079940Y-84854205D01*
X79135795Y-84910060D01*
X79204204Y-84949556D01*
X79280504Y-84970000D01*
X79359496Y-84970000D01*
X79435796Y-84949556D01*
X79504205Y-84910060D01*
X79560060Y-84854205D01*
X79570000Y-84836988D01*
X79570000Y-85639862D01*
X79611690Y-85631569D01*
X79611692Y-85631569D01*
X79793671Y-85556192D01*
X79793684Y-85556185D01*
X79957462Y-85446751D01*
X79957466Y-85446748D01*
X80096748Y-85307466D01*
X80096751Y-85307462D01*
X80206185Y-85143684D01*
X80206192Y-85143671D01*
X80281569Y-84961693D01*
X80281572Y-84961681D01*
X80319999Y-84768495D01*
X80320000Y-84768492D01*
X80320000Y-84370000D01*
X79620000Y-84370000D01*
X79620000Y-83870000D01*
X80320000Y-83870000D01*
X80320000Y-83471508D01*
X80319999Y-83471504D01*
X80281572Y-83278318D01*
X80281569Y-83278306D01*
X80206192Y-83096328D01*
X80206185Y-83096315D01*
X80096751Y-82932537D01*
X80096748Y-82932533D01*
X79957466Y-82793251D01*
X79957462Y-82793248D01*
X79793684Y-82683814D01*
X79793671Y-82683807D01*
X79611691Y-82608429D01*
X79611683Y-82608427D01*
X79570000Y-82600135D01*
X79570000Y-83403011D01*
X79560060Y-83385795D01*
X79504205Y-83329940D01*
X79435796Y-83290444D01*
X79359496Y-83270000D01*
X79280504Y-83270000D01*
X79204204Y-83290444D01*
X79135795Y-83329940D01*
X79079940Y-83385795D01*
X79070000Y-83403011D01*
X79070000Y-82600136D01*
X79069999Y-82600135D01*
X79028316Y-82608427D01*
X79028308Y-82608429D01*
X78846328Y-82683807D01*
X78846315Y-82683814D01*
X78682537Y-82793248D01*
X78682533Y-82793251D01*
X78543251Y-82932533D01*
X78543248Y-82932537D01*
X78433814Y-83096315D01*
X78433807Y-83096328D01*
X78358430Y-83278306D01*
X78358427Y-83278318D01*
X78319999Y-83471509D01*
X78319718Y-83474364D01*
X78319153Y-83475761D01*
X78318811Y-83477484D01*
X78318484Y-83477418D01*
X78293552Y-83539149D01*
X78236514Y-83579504D01*
X78166714Y-83582615D01*
X78106312Y-83547495D01*
X78093214Y-83531091D01*
X78017463Y-83417722D01*
X78017460Y-83417718D01*
X77905966Y-83306224D01*
X77905962Y-83306221D01*
X77774859Y-83218620D01*
X77774846Y-83218613D01*
X77629175Y-83158275D01*
X77629163Y-83158272D01*
X77474519Y-83127511D01*
X77474516Y-83127511D01*
X77316832Y-83127511D01*
X77316829Y-83127511D01*
X77162184Y-83158272D01*
X77162172Y-83158275D01*
X77016501Y-83218613D01*
X77016488Y-83218620D01*
X76885385Y-83306221D01*
X76885381Y-83306224D01*
X76773887Y-83417718D01*
X76773884Y-83417722D01*
X76686283Y-83548825D01*
X76686277Y-83548837D01*
X76672015Y-83583268D01*
X76645136Y-83623494D01*
X76195451Y-84073181D01*
X76134128Y-84106666D01*
X76107770Y-84109500D01*
X73898544Y-84109500D01*
X73831505Y-84089815D01*
X73810863Y-84073181D01*
X73350397Y-83612715D01*
X73323517Y-83572487D01*
X73313720Y-83548833D01*
X73301357Y-83530331D01*
X73226115Y-83417722D01*
X73114618Y-83306225D01*
X73114614Y-83306222D01*
X72983511Y-83218621D01*
X72983498Y-83218614D01*
X72837827Y-83158276D01*
X72837815Y-83158273D01*
X72683171Y-83127512D01*
X72683168Y-83127512D01*
X72525484Y-83127512D01*
X72525481Y-83127512D01*
X72370836Y-83158273D01*
X72370824Y-83158276D01*
X72225153Y-83218614D01*
X72225140Y-83218621D01*
X72094037Y-83306222D01*
X72094033Y-83306225D01*
X71982539Y-83417719D01*
X71982536Y-83417723D01*
X71906785Y-83531092D01*
X71853172Y-83575897D01*
X71783847Y-83584604D01*
X71720820Y-83554449D01*
X71684101Y-83495006D01*
X71680280Y-83474350D01*
X71680000Y-83471506D01*
X71641572Y-83278318D01*
X71641569Y-83278306D01*
X71566192Y-83096328D01*
X71566185Y-83096315D01*
X71456751Y-82932537D01*
X71456748Y-82932533D01*
X71317466Y-82793251D01*
X71317462Y-82793248D01*
X71153684Y-82683814D01*
X71153671Y-82683807D01*
X70971691Y-82608429D01*
X70971683Y-82608427D01*
X70930000Y-82600135D01*
X70930000Y-83403011D01*
X70920060Y-83385795D01*
X70864205Y-83329940D01*
X70795796Y-83290444D01*
X70719496Y-83270000D01*
X70640504Y-83270000D01*
X70564204Y-83290444D01*
X70495795Y-83329940D01*
X70439940Y-83385795D01*
X70430000Y-83403011D01*
X70430000Y-82600136D01*
X70429999Y-82600135D01*
X70388316Y-82608427D01*
X70388308Y-82608429D01*
X70206328Y-82683807D01*
X70206315Y-82683814D01*
X70042537Y-82793248D01*
X70042533Y-82793251D01*
X69903251Y-82932533D01*
X69903248Y-82932537D01*
X69793814Y-83096315D01*
X69793807Y-83096328D01*
X69718430Y-83278306D01*
X69718427Y-83278318D01*
X69680000Y-83471504D01*
X67940500Y-83471504D01*
X67940500Y-82246079D01*
X67911659Y-82101092D01*
X67911658Y-82101091D01*
X67911658Y-82101087D01*
X67902674Y-82079397D01*
X67855087Y-81964511D01*
X67855080Y-81964498D01*
X67772952Y-81841585D01*
X67771655Y-81840288D01*
X67668416Y-81737049D01*
X67222520Y-81291153D01*
X73439500Y-81291153D01*
X73439500Y-81448846D01*
X73470261Y-81603489D01*
X73470264Y-81603501D01*
X73530602Y-81749172D01*
X73530609Y-81749185D01*
X73618210Y-81880288D01*
X73618213Y-81880292D01*
X73729707Y-81991786D01*
X73729711Y-81991789D01*
X73860814Y-82079390D01*
X73860827Y-82079397D01*
X74006498Y-82139735D01*
X74006503Y-82139737D01*
X74161153Y-82170499D01*
X74161156Y-82170500D01*
X74161158Y-82170500D01*
X74318844Y-82170500D01*
X74318845Y-82170499D01*
X74473497Y-82139737D01*
X74619179Y-82079394D01*
X74750289Y-81991789D01*
X74750293Y-81991784D01*
X74754999Y-81987924D01*
X74755739Y-81988826D01*
X74811583Y-81958334D01*
X74837941Y-81955500D01*
X76367650Y-81955500D01*
X76434689Y-81975185D01*
X76436541Y-81976398D01*
X76530821Y-82039394D01*
X76530823Y-82039395D01*
X76530827Y-82039397D01*
X76676498Y-82099735D01*
X76676503Y-82099737D01*
X76831153Y-82130499D01*
X76831156Y-82130500D01*
X76831158Y-82130500D01*
X76988844Y-82130500D01*
X76988845Y-82130499D01*
X77143497Y-82099737D01*
X77289179Y-82039394D01*
X77420289Y-81951789D01*
X77531789Y-81840289D01*
X77619394Y-81709179D01*
X77679737Y-81563497D01*
X77710500Y-81408842D01*
X77710500Y-81251158D01*
X77710500Y-81251155D01*
X77710499Y-81251153D01*
X77679737Y-81096503D01*
X77635965Y-80990827D01*
X77619397Y-80950827D01*
X77619390Y-80950814D01*
X77531789Y-80819711D01*
X77531786Y-80819707D01*
X77420292Y-80708213D01*
X77420288Y-80708210D01*
X77289185Y-80620609D01*
X77289172Y-80620602D01*
X77143501Y-80560264D01*
X77143489Y-80560261D01*
X76988845Y-80529500D01*
X76988842Y-80529500D01*
X76831158Y-80529500D01*
X76831155Y-80529500D01*
X76676510Y-80560261D01*
X76676498Y-80560264D01*
X76530827Y-80620602D01*
X76530815Y-80620609D01*
X76436541Y-80683602D01*
X76369864Y-80704480D01*
X76367650Y-80704500D01*
X74722486Y-80704500D01*
X74655447Y-80684815D01*
X74653594Y-80683601D01*
X74619187Y-80660610D01*
X74619172Y-80660602D01*
X74473501Y-80600264D01*
X74473489Y-80600261D01*
X74318845Y-80569500D01*
X74318842Y-80569500D01*
X74161158Y-80569500D01*
X74161155Y-80569500D01*
X74006510Y-80600261D01*
X74006498Y-80600264D01*
X73860827Y-80660602D01*
X73860814Y-80660609D01*
X73729711Y-80748210D01*
X73729707Y-80748213D01*
X73618213Y-80859707D01*
X73618210Y-80859711D01*
X73530609Y-80990814D01*
X73530602Y-80990827D01*
X73470264Y-81136498D01*
X73470261Y-81136510D01*
X73439500Y-81291153D01*
X67222520Y-81291153D01*
X66076071Y-80144703D01*
X66049191Y-80104475D01*
X66039394Y-80080821D01*
X66039389Y-80080814D01*
X65951789Y-79949710D01*
X65840292Y-79838213D01*
X65840288Y-79838210D01*
X65709185Y-79750609D01*
X65709172Y-79750602D01*
X65563501Y-79690264D01*
X65563489Y-79690261D01*
X65408845Y-79659500D01*
X65408842Y-79659500D01*
X65251158Y-79659500D01*
X65251155Y-79659500D01*
X65096510Y-79690261D01*
X65096498Y-79690264D01*
X64950827Y-79750602D01*
X64950814Y-79750609D01*
X64819711Y-79838210D01*
X64819707Y-79838213D01*
X64708213Y-79949707D01*
X64708210Y-79949711D01*
X64620609Y-80080814D01*
X64620602Y-80080827D01*
X64560264Y-80226498D01*
X64560261Y-80226510D01*
X64529500Y-80381153D01*
X52460500Y-80381153D01*
X52460500Y-71143590D01*
X55559169Y-71143590D01*
X55588010Y-71288577D01*
X55588013Y-71288587D01*
X55644583Y-71425160D01*
X55668418Y-71460832D01*
X55726713Y-71548080D01*
X55726717Y-71548085D01*
X57091578Y-72912947D01*
X57091581Y-72912950D01*
X57091584Y-72912952D01*
X57144354Y-72948211D01*
X57214505Y-72995084D01*
X57351087Y-73051658D01*
X57351091Y-73051658D01*
X57351092Y-73051659D01*
X57496079Y-73080500D01*
X57496082Y-73080500D01*
X57496083Y-73080500D01*
X57643918Y-73080500D01*
X61667770Y-73080500D01*
X61734809Y-73100185D01*
X61755451Y-73116819D01*
X62887049Y-74248416D01*
X62991584Y-74352951D01*
X62991587Y-74352953D01*
X62991588Y-74352954D01*
X63114503Y-74435083D01*
X63114506Y-74435085D01*
X63171079Y-74458518D01*
X63171080Y-74458518D01*
X63251088Y-74491659D01*
X63365919Y-74514500D01*
X63386027Y-74518500D01*
X63396081Y-74520500D01*
X63396082Y-74520500D01*
X63396083Y-74520500D01*
X63543918Y-74520500D01*
X64445396Y-74520500D01*
X64492844Y-74529937D01*
X64516503Y-74539737D01*
X64516508Y-74539738D01*
X64516511Y-74539739D01*
X64671153Y-74570499D01*
X64671156Y-74570500D01*
X64671158Y-74570500D01*
X64828844Y-74570500D01*
X64828845Y-74570499D01*
X64983497Y-74539737D01*
X65129179Y-74479394D01*
X65260289Y-74391789D01*
X65371789Y-74280289D01*
X65459394Y-74149179D01*
X65469191Y-74125524D01*
X65496069Y-74085297D01*
X66024548Y-73556819D01*
X66085871Y-73523334D01*
X66112229Y-73520500D01*
X72773920Y-73520500D01*
X72871462Y-73501096D01*
X72918913Y-73491658D01*
X73055495Y-73435084D01*
X73104729Y-73402186D01*
X73178416Y-73352952D01*
X73942819Y-72588549D01*
X74004142Y-72555064D01*
X74073834Y-72560048D01*
X74129767Y-72601920D01*
X74154184Y-72667384D01*
X74154500Y-72676230D01*
X74154500Y-74829547D01*
X74134815Y-74896586D01*
X74118181Y-74917228D01*
X73041203Y-75994205D01*
X72979880Y-76027690D01*
X72977714Y-76028141D01*
X72866508Y-76050261D01*
X72866498Y-76050264D01*
X72720827Y-76110602D01*
X72720814Y-76110609D01*
X72589711Y-76198210D01*
X72589707Y-76198213D01*
X72478213Y-76309707D01*
X72478210Y-76309711D01*
X72390609Y-76440814D01*
X72390602Y-76440827D01*
X72330264Y-76586498D01*
X72330261Y-76586510D01*
X72299500Y-76741153D01*
X72299500Y-76898846D01*
X72319543Y-76999608D01*
X72313316Y-77069199D01*
X72270453Y-77124377D01*
X72204563Y-77147621D01*
X72150474Y-77138360D01*
X72058501Y-77100264D01*
X72058489Y-77100261D01*
X71903845Y-77069500D01*
X71903842Y-77069500D01*
X71746158Y-77069500D01*
X71746155Y-77069500D01*
X71591510Y-77100261D01*
X71591498Y-77100264D01*
X71445827Y-77160602D01*
X71445814Y-77160609D01*
X71314711Y-77248210D01*
X71314707Y-77248213D01*
X71203213Y-77359707D01*
X71203210Y-77359711D01*
X71115609Y-77490814D01*
X71115602Y-77490827D01*
X71055264Y-77636498D01*
X71055261Y-77636510D01*
X71024500Y-77791153D01*
X71024500Y-77948846D01*
X71055261Y-78103489D01*
X71055264Y-78103501D01*
X71115602Y-78249172D01*
X71115609Y-78249185D01*
X71203210Y-78380288D01*
X71203213Y-78380292D01*
X71314707Y-78491786D01*
X71314711Y-78491789D01*
X71445814Y-78579390D01*
X71445827Y-78579397D01*
X71591498Y-78639735D01*
X71591503Y-78639737D01*
X71746153Y-78670499D01*
X71746156Y-78670500D01*
X71746158Y-78670500D01*
X71903844Y-78670500D01*
X71903845Y-78670499D01*
X72058497Y-78639737D01*
X72204179Y-78579394D01*
X72335289Y-78491789D01*
X72335293Y-78491784D01*
X72339999Y-78487924D01*
X72340739Y-78488826D01*
X72396583Y-78458334D01*
X72422941Y-78455500D01*
X73151607Y-78455500D01*
X73212029Y-78443481D01*
X73272452Y-78431463D01*
X73272455Y-78431461D01*
X73272458Y-78431461D01*
X73305787Y-78417654D01*
X73305786Y-78417654D01*
X73305792Y-78417652D01*
X73386286Y-78384312D01*
X73437509Y-78350084D01*
X73488733Y-78315858D01*
X73575858Y-78228733D01*
X73575859Y-78228731D01*
X73582925Y-78221665D01*
X73582928Y-78221661D01*
X75628729Y-76175860D01*
X75628733Y-76175858D01*
X75715858Y-76088733D01*
X75741564Y-76050261D01*
X75762117Y-76019502D01*
X75762118Y-76019500D01*
X75784312Y-75986286D01*
X75831463Y-75872451D01*
X75855500Y-75751607D01*
X75855500Y-75628393D01*
X75855500Y-56817741D01*
X75855501Y-56817720D01*
X75855501Y-56688391D01*
X75855500Y-56688389D01*
X75831465Y-56567558D01*
X75831462Y-56567546D01*
X75829193Y-56562069D01*
X75827859Y-56558851D01*
X75827859Y-56558843D01*
X75827858Y-56558844D01*
X75811933Y-56520399D01*
X75811932Y-56520398D01*
X75811932Y-56520397D01*
X75784312Y-56453715D01*
X75778996Y-56445760D01*
X75760480Y-56401058D01*
X75729738Y-56246510D01*
X75729737Y-56246503D01*
X75729735Y-56246498D01*
X75669397Y-56100827D01*
X75669390Y-56100814D01*
X75581789Y-55969711D01*
X75581786Y-55969707D01*
X75524759Y-55912680D01*
X75491274Y-55851357D01*
X75496258Y-55781665D01*
X75524760Y-55737317D01*
X75551789Y-55710289D01*
X75639394Y-55579179D01*
X75699737Y-55433497D01*
X75730500Y-55278842D01*
X75730500Y-55121158D01*
X75730500Y-55121155D01*
X75730499Y-55121153D01*
X75729197Y-55114606D01*
X75699737Y-54966503D01*
X75684138Y-54928844D01*
X75639397Y-54820827D01*
X75639390Y-54820814D01*
X75551789Y-54689711D01*
X75551786Y-54689707D01*
X75440292Y-54578213D01*
X75440288Y-54578210D01*
X75309185Y-54490609D01*
X75309172Y-54490602D01*
X75163501Y-54430264D01*
X75163489Y-54430261D01*
X75008845Y-54399500D01*
X75008842Y-54399500D01*
X74851158Y-54399500D01*
X74851155Y-54399500D01*
X74696510Y-54430261D01*
X74696498Y-54430264D01*
X74550827Y-54490602D01*
X74550814Y-54490609D01*
X74419711Y-54578210D01*
X74419707Y-54578213D01*
X74308213Y-54689707D01*
X74308210Y-54689711D01*
X74220609Y-54820814D01*
X74220602Y-54820827D01*
X74160264Y-54966498D01*
X74160261Y-54966508D01*
X74138141Y-55077714D01*
X74105756Y-55139625D01*
X74104206Y-55141203D01*
X73936270Y-55309139D01*
X73936267Y-55309142D01*
X73892704Y-55352704D01*
X73849142Y-55396266D01*
X73824265Y-55433498D01*
X73824264Y-55433499D01*
X73780690Y-55498709D01*
X73780685Y-55498718D01*
X73755554Y-55559392D01*
X73755554Y-55559394D01*
X73733537Y-55612548D01*
X73733536Y-55612552D01*
X73733536Y-55612553D01*
X73733535Y-55612556D01*
X73709500Y-55733389D01*
X73709500Y-56800495D01*
X73733535Y-56921328D01*
X73733540Y-56921345D01*
X73780685Y-57035164D01*
X73780690Y-57035173D01*
X73814914Y-57086391D01*
X73814915Y-57086393D01*
X73849141Y-57137617D01*
X73940586Y-57229062D01*
X73940608Y-57229082D01*
X74118181Y-57406655D01*
X74151666Y-57467978D01*
X74154500Y-57494336D01*
X74154500Y-70683318D01*
X74134815Y-70750357D01*
X74082011Y-70796112D01*
X74012853Y-70806056D01*
X74006310Y-70804936D01*
X73953842Y-70794500D01*
X73796158Y-70794500D01*
X73796155Y-70794500D01*
X73641510Y-70825261D01*
X73641498Y-70825264D01*
X73495827Y-70885602D01*
X73495814Y-70885609D01*
X73364711Y-70973210D01*
X73260743Y-71077178D01*
X73199420Y-71110662D01*
X73129728Y-71105678D01*
X73073795Y-71063806D01*
X73058501Y-71036949D01*
X73039395Y-70990823D01*
X73039390Y-70990814D01*
X72951789Y-70859711D01*
X72951786Y-70859707D01*
X72840292Y-70748213D01*
X72840288Y-70748210D01*
X72709185Y-70660609D01*
X72709172Y-70660602D01*
X72563501Y-70600264D01*
X72563491Y-70600261D01*
X72514699Y-70590556D01*
X72452788Y-70558171D01*
X72451210Y-70556620D01*
X72262928Y-70368338D01*
X72262925Y-70368334D01*
X72262925Y-70368335D01*
X72255858Y-70361268D01*
X72255858Y-70361267D01*
X72168733Y-70274142D01*
X72168732Y-70274141D01*
X72168731Y-70274140D01*
X72117509Y-70239915D01*
X72105530Y-70231911D01*
X72066286Y-70205688D01*
X71969264Y-70165501D01*
X71967617Y-70164818D01*
X71952456Y-70158538D01*
X71952452Y-70158537D01*
X71892029Y-70146518D01*
X71831610Y-70134500D01*
X71831607Y-70134500D01*
X71831606Y-70134500D01*
X58277509Y-70134500D01*
X58210470Y-70114815D01*
X58164715Y-70062011D01*
X58154771Y-69992853D01*
X58174408Y-69941608D01*
X58189389Y-69919187D01*
X58189390Y-69919184D01*
X58189394Y-69919179D01*
X58249737Y-69773497D01*
X58280500Y-69618842D01*
X58280500Y-69461158D01*
X58280500Y-69461155D01*
X58280499Y-69461153D01*
X58249738Y-69306510D01*
X58249737Y-69306503D01*
X58199194Y-69184480D01*
X58189397Y-69160827D01*
X58189390Y-69160814D01*
X58101789Y-69029711D01*
X58101786Y-69029707D01*
X57990292Y-68918213D01*
X57990288Y-68918210D01*
X57859185Y-68830609D01*
X57859172Y-68830602D01*
X57713501Y-68770264D01*
X57713489Y-68770261D01*
X57558845Y-68739500D01*
X57558842Y-68739500D01*
X57401158Y-68739500D01*
X57401155Y-68739500D01*
X57246510Y-68770261D01*
X57246498Y-68770264D01*
X57100827Y-68830602D01*
X57100814Y-68830609D01*
X56969711Y-68918210D01*
X56969707Y-68918213D01*
X56858213Y-69029707D01*
X56858207Y-69029715D01*
X56770607Y-69160818D01*
X56770606Y-69160819D01*
X56760805Y-69184480D01*
X56733927Y-69224703D01*
X55726719Y-70231911D01*
X55677482Y-70305601D01*
X55644591Y-70354826D01*
X55644584Y-70354838D01*
X55588012Y-70491416D01*
X55588010Y-70491422D01*
X55559170Y-70636409D01*
X55559170Y-70636412D01*
X55559170Y-71143588D01*
X55559170Y-71143590D01*
X55559169Y-71143590D01*
X52460500Y-71143590D01*
X52460500Y-60911153D01*
X55929500Y-60911153D01*
X55929500Y-61068846D01*
X55960261Y-61223489D01*
X55960264Y-61223501D01*
X56020602Y-61369172D01*
X56020609Y-61369185D01*
X56108210Y-61500288D01*
X56108213Y-61500292D01*
X56219707Y-61611786D01*
X56219711Y-61611789D01*
X56350814Y-61699390D01*
X56350827Y-61699397D01*
X56445094Y-61738443D01*
X56496503Y-61759737D01*
X56611000Y-61782512D01*
X56651153Y-61790499D01*
X56651156Y-61790500D01*
X56651158Y-61790500D01*
X56808844Y-61790500D01*
X56808845Y-61790499D01*
X56963497Y-61759737D01*
X57109179Y-61699394D01*
X57203459Y-61636398D01*
X57270136Y-61615520D01*
X57272350Y-61615500D01*
X60281607Y-61615500D01*
X60342029Y-61603481D01*
X60402452Y-61591463D01*
X60402455Y-61591461D01*
X60402458Y-61591461D01*
X60435787Y-61577654D01*
X60435786Y-61577654D01*
X60435792Y-61577652D01*
X60516286Y-61544312D01*
X60582169Y-61500289D01*
X60618733Y-61475858D01*
X60705858Y-61388733D01*
X60705859Y-61388731D01*
X60712925Y-61381665D01*
X60712928Y-61381661D01*
X61068729Y-61025860D01*
X61068733Y-61025858D01*
X61155858Y-60938733D01*
X61190084Y-60887509D01*
X61224312Y-60836286D01*
X61257356Y-60756510D01*
X61271459Y-60722461D01*
X61271459Y-60722459D01*
X61271463Y-60722451D01*
X61295500Y-60601607D01*
X61295500Y-60478393D01*
X61295500Y-55392350D01*
X61315185Y-55325311D01*
X61316398Y-55323459D01*
X61336053Y-55294043D01*
X61379394Y-55229179D01*
X61439737Y-55083497D01*
X61470500Y-54928842D01*
X61470500Y-54771158D01*
X61470500Y-54771155D01*
X61470499Y-54771153D01*
X61439738Y-54616510D01*
X61439737Y-54616503D01*
X61423876Y-54578210D01*
X61379397Y-54470827D01*
X61379390Y-54470814D01*
X61291789Y-54339711D01*
X61291786Y-54339707D01*
X61180292Y-54228213D01*
X61180288Y-54228210D01*
X61049185Y-54140609D01*
X61049172Y-54140602D01*
X60903501Y-54080264D01*
X60903489Y-54080261D01*
X60748845Y-54049500D01*
X60748842Y-54049500D01*
X60591158Y-54049500D01*
X60591155Y-54049500D01*
X60436510Y-54080261D01*
X60436498Y-54080264D01*
X60290827Y-54140602D01*
X60290814Y-54140609D01*
X60159711Y-54228210D01*
X60159707Y-54228213D01*
X60048213Y-54339707D01*
X60048210Y-54339711D01*
X59960609Y-54470814D01*
X59960602Y-54470827D01*
X59900264Y-54616498D01*
X59900261Y-54616510D01*
X59869500Y-54771153D01*
X59869500Y-54928846D01*
X59900261Y-55083489D01*
X59900264Y-55083501D01*
X59960602Y-55229172D01*
X59960609Y-55229184D01*
X60023602Y-55323459D01*
X60044480Y-55390136D01*
X60044500Y-55392350D01*
X60044500Y-60229548D01*
X60024815Y-60296587D01*
X60008181Y-60317229D01*
X59997229Y-60328181D01*
X59935906Y-60361666D01*
X59909548Y-60364500D01*
X57272350Y-60364500D01*
X57205311Y-60344815D01*
X57203459Y-60343602D01*
X57109184Y-60280609D01*
X57109172Y-60280602D01*
X56963501Y-60220264D01*
X56963489Y-60220261D01*
X56808845Y-60189500D01*
X56808842Y-60189500D01*
X56651158Y-60189500D01*
X56651155Y-60189500D01*
X56496510Y-60220261D01*
X56496498Y-60220264D01*
X56350827Y-60280602D01*
X56350814Y-60280609D01*
X56219711Y-60368210D01*
X56219707Y-60368213D01*
X56108213Y-60479707D01*
X56108210Y-60479711D01*
X56020609Y-60610814D01*
X56020602Y-60610827D01*
X55960264Y-60756498D01*
X55960261Y-60756510D01*
X55929500Y-60911153D01*
X52460500Y-60911153D01*
X52460500Y-51932135D01*
X79209500Y-51932135D01*
X79209500Y-53727870D01*
X79209501Y-53727876D01*
X79215908Y-53787483D01*
X79266202Y-53922328D01*
X79266206Y-53922335D01*
X79352452Y-54037544D01*
X79352455Y-54037547D01*
X79467664Y-54123793D01*
X79467671Y-54123797D01*
X79512618Y-54140561D01*
X79602517Y-54174091D01*
X79662127Y-54180500D01*
X79672685Y-54180499D01*
X79739723Y-54200179D01*
X79760372Y-54216818D01*
X80430591Y-54887037D01*
X80367007Y-54904075D01*
X80252993Y-54969901D01*
X80159901Y-55062993D01*
X80094075Y-55177007D01*
X80077037Y-55240591D01*
X79444728Y-54608282D01*
X79444727Y-54608282D01*
X79405380Y-54662439D01*
X79308904Y-54851782D01*
X79243242Y-55053869D01*
X79243242Y-55053872D01*
X79210000Y-55263753D01*
X79210000Y-55476246D01*
X79243242Y-55686127D01*
X79243242Y-55686130D01*
X79308904Y-55888217D01*
X79405375Y-56077550D01*
X79444728Y-56131716D01*
X80077037Y-55499408D01*
X80094075Y-55562993D01*
X80159901Y-55677007D01*
X80252993Y-55770099D01*
X80367007Y-55835925D01*
X80430590Y-55852962D01*
X79798282Y-56485269D01*
X79798282Y-56485270D01*
X79852452Y-56524626D01*
X79852451Y-56524626D01*
X79861495Y-56529234D01*
X79912292Y-56577208D01*
X79929087Y-56645029D01*
X79906550Y-56711164D01*
X79861499Y-56750202D01*
X79852182Y-56754949D01*
X79680213Y-56879890D01*
X79529890Y-57030213D01*
X79404951Y-57202179D01*
X79308444Y-57391585D01*
X79242753Y-57593760D01*
X79209500Y-57803713D01*
X79209500Y-58016286D01*
X79242753Y-58226239D01*
X79308444Y-58428414D01*
X79404951Y-58617820D01*
X79529890Y-58789786D01*
X79680213Y-58940109D01*
X79852182Y-59065050D01*
X79860946Y-59069516D01*
X79911742Y-59117491D01*
X79928536Y-59185312D01*
X79905998Y-59251447D01*
X79860946Y-59290484D01*
X79852182Y-59294949D01*
X79680213Y-59419890D01*
X79529890Y-59570213D01*
X79404951Y-59742179D01*
X79308444Y-59931585D01*
X79242753Y-60133760D01*
X79209500Y-60343713D01*
X79209500Y-60556286D01*
X79241210Y-60756498D01*
X79242754Y-60766243D01*
X79289838Y-60911153D01*
X79308444Y-60968414D01*
X79404951Y-61157820D01*
X79529890Y-61329786D01*
X79680213Y-61480109D01*
X79852182Y-61605050D01*
X79860946Y-61609516D01*
X79911742Y-61657491D01*
X79928536Y-61725312D01*
X79905998Y-61791447D01*
X79860946Y-61830484D01*
X79852182Y-61834949D01*
X79680213Y-61959890D01*
X79529890Y-62110213D01*
X79404951Y-62282179D01*
X79308444Y-62471585D01*
X79242753Y-62673760D01*
X79209500Y-62883713D01*
X79209500Y-63096286D01*
X79242753Y-63306239D01*
X79308444Y-63508414D01*
X79404951Y-63697820D01*
X79529890Y-63869786D01*
X79680213Y-64020109D01*
X79852182Y-64145050D01*
X79860946Y-64149516D01*
X79911742Y-64197491D01*
X79928536Y-64265312D01*
X79905998Y-64331447D01*
X79860946Y-64370484D01*
X79852182Y-64374949D01*
X79680213Y-64499890D01*
X79529890Y-64650213D01*
X79404951Y-64822179D01*
X79308444Y-65011585D01*
X79242753Y-65213760D01*
X79209500Y-65423713D01*
X79209500Y-65636286D01*
X79242753Y-65846239D01*
X79308444Y-66048414D01*
X79404951Y-66237820D01*
X79529890Y-66409786D01*
X79680213Y-66560109D01*
X79852179Y-66685048D01*
X79852181Y-66685049D01*
X79852184Y-66685051D01*
X80041588Y-66781557D01*
X80243757Y-66847246D01*
X80453713Y-66880500D01*
X80453714Y-66880500D01*
X80666286Y-66880500D01*
X80666287Y-66880500D01*
X80876243Y-66847246D01*
X81078412Y-66781557D01*
X81267816Y-66685051D01*
X81289789Y-66669086D01*
X81439786Y-66560109D01*
X81439788Y-66560106D01*
X81439792Y-66560104D01*
X81590104Y-66409792D01*
X81590106Y-66409788D01*
X81590109Y-66409786D01*
X81715048Y-66237820D01*
X81715047Y-66237820D01*
X81715051Y-66237816D01*
X81811557Y-66048412D01*
X81877246Y-65846243D01*
X81903027Y-65683467D01*
X81932956Y-65620333D01*
X81992268Y-65583402D01*
X82062130Y-65584400D01*
X82120363Y-65623010D01*
X82148477Y-65686973D01*
X82149500Y-65702866D01*
X82149500Y-73265396D01*
X82140062Y-73312844D01*
X82130263Y-73336503D01*
X82130262Y-73336506D01*
X82130260Y-73336511D01*
X82099500Y-73491153D01*
X82099500Y-73648846D01*
X82130261Y-73803489D01*
X82132031Y-73809324D01*
X82131356Y-73809528D01*
X82139500Y-73850461D01*
X82139500Y-79405396D01*
X82130062Y-79452844D01*
X82120263Y-79476503D01*
X82120262Y-79476506D01*
X82120260Y-79476511D01*
X82089500Y-79631153D01*
X82089500Y-79788846D01*
X82120261Y-79943489D01*
X82120264Y-79943501D01*
X82180602Y-80089172D01*
X82180609Y-80089185D01*
X82268210Y-80220288D01*
X82268213Y-80220292D01*
X82379707Y-80331786D01*
X82379711Y-80331789D01*
X82510814Y-80419390D01*
X82510827Y-80419397D01*
X82656498Y-80479735D01*
X82656503Y-80479737D01*
X82811153Y-80510499D01*
X82811156Y-80510500D01*
X82811158Y-80510500D01*
X82968844Y-80510500D01*
X82968845Y-80510499D01*
X83123497Y-80479737D01*
X83269179Y-80419394D01*
X83400289Y-80331789D01*
X83511789Y-80220289D01*
X83599394Y-80089179D01*
X83602854Y-80080827D01*
X83657163Y-79949711D01*
X83659737Y-79943497D01*
X83690500Y-79788842D01*
X83690500Y-79631158D01*
X83690500Y-79631155D01*
X83690499Y-79631153D01*
X83659739Y-79476511D01*
X83659738Y-79476508D01*
X83659737Y-79476503D01*
X83649937Y-79452844D01*
X83640500Y-79405396D01*
X83640500Y-73898746D01*
X83649939Y-73851293D01*
X83650284Y-73850461D01*
X83669737Y-73803497D01*
X83700500Y-73648842D01*
X83700500Y-73491158D01*
X83700500Y-73491155D01*
X83700499Y-73491153D01*
X83669739Y-73336511D01*
X83669738Y-73336508D01*
X83669737Y-73336503D01*
X83659937Y-73312844D01*
X83650500Y-73265396D01*
X83650500Y-53214604D01*
X83659939Y-53167151D01*
X83669737Y-53143497D01*
X83700500Y-52988842D01*
X83700500Y-52831158D01*
X83700500Y-52831155D01*
X83700499Y-52831153D01*
X83669738Y-52676510D01*
X83669737Y-52676503D01*
X83654274Y-52639172D01*
X83609397Y-52530827D01*
X83609390Y-52530814D01*
X83521789Y-52399711D01*
X83521786Y-52399707D01*
X83410292Y-52288213D01*
X83410288Y-52288210D01*
X83279185Y-52200609D01*
X83279172Y-52200602D01*
X83133501Y-52140264D01*
X83133489Y-52140261D01*
X82978845Y-52109500D01*
X82978842Y-52109500D01*
X82821158Y-52109500D01*
X82821155Y-52109500D01*
X82666510Y-52140261D01*
X82666498Y-52140264D01*
X82520827Y-52200602D01*
X82520814Y-52200609D01*
X82389711Y-52288210D01*
X82389707Y-52288213D01*
X82278213Y-52399707D01*
X82278210Y-52399711D01*
X82190609Y-52530814D01*
X82190604Y-52530824D01*
X82149060Y-52631121D01*
X82105219Y-52685524D01*
X82038925Y-52707589D01*
X81971225Y-52690310D01*
X81923615Y-52639172D01*
X81910499Y-52583668D01*
X81910499Y-51932129D01*
X81910498Y-51932123D01*
X81910497Y-51932116D01*
X81904091Y-51872517D01*
X81853796Y-51737669D01*
X81853795Y-51737668D01*
X81853793Y-51737664D01*
X81767547Y-51622455D01*
X81767544Y-51622452D01*
X81652335Y-51536206D01*
X81652328Y-51536202D01*
X81517482Y-51485908D01*
X81517483Y-51485908D01*
X81457883Y-51479501D01*
X81457881Y-51479500D01*
X81457873Y-51479500D01*
X81457864Y-51479500D01*
X79662129Y-51479500D01*
X79662123Y-51479501D01*
X79602516Y-51485908D01*
X79467671Y-51536202D01*
X79467664Y-51536206D01*
X79352455Y-51622452D01*
X79352452Y-51622455D01*
X79266206Y-51737664D01*
X79266202Y-51737671D01*
X79215908Y-51872517D01*
X79209501Y-51932116D01*
X79209501Y-51932123D01*
X79209500Y-51932135D01*
X52460500Y-51932135D01*
X52460500Y-50824500D01*
X52480185Y-50757461D01*
X52532989Y-50711706D01*
X52584500Y-50700500D01*
X83995500Y-50700500D01*
X84062539Y-50720185D01*
G37*
G04 #@! TD.AperFunction*
M02*
